SplineFontDB: 3.0
FontName: Ramabhadra
FullName: Ramabhadra
FamilyName: Ramabhadra
Weight: Book
Copyright: Copyright (c) 2012 Andhra Pradesh Society for Knowledge Networks (fonts.siliconandhra.org). Copyright (c) 2011, Admix Designs (http://www.admixdesigns.com/) with Reserved Font Name Questrial.
Version: 1.0.3
ItalicAngle: 0
UnderlinePosition: -532
UnderlineWidth: 20
Ascent: 664
Descent: 166
InvalidEm: 0
sfntRevision: 0x00010000
LayerCount: 2
Layer: 0 1 "Back" 1
Layer: 1 1 "Fore" 0
XUID: [1021 187 -1988226791 1210338]
FSType: 0
OS2Version: 3
OS2_WeightWidthSlopeOnly: 0
OS2_UseTypoMetrics: 1
CreationTime: 1341100800
ModificationTime: 1414355839
PfmFamily: 17
TTFWeight: 400
TTFWidth: 5
LineGap: 0
VLineGap: 0
Panose: 2 0 6 0 0 0 0 0 0 0
OS2TypoAscent: 1101
OS2TypoAOffset: 0
OS2TypoDescent: -474
OS2TypoDOffset: 0
OS2TypoLinegap: 0
OS2WinAscent: 1101
OS2WinAOffset: 0
OS2WinDescent: 474
OS2WinDOffset: 0
HheadAscent: 1101
HheadAOffset: 0
HheadDescent: -474
HheadDOffset: 0
OS2SubXSize: 717
OS2SubYSize: 666
OS2SubXOff: 0
OS2SubYOff: 205
OS2SupXSize: 717
OS2SupYSize: 666
OS2SupXOff: 0
OS2SupYOff: 512
OS2StrikeYSize: 50
OS2StrikeYPos: 250
OS2CapHeight: 0
OS2XHeight: 0
OS2Vendor: 'GPK '
OS2CodePages: 00000001.00000000
OS2UnicodeRanges: 80200003.00000000.00000000.00000000
Lookup: 4 0 0 "'akhn' Akhand in Telugu lookup 0" { "'akhn' Akhand in Telugu lookup 0 subtable"  } ['akhn' ('telu' <'dflt' > ) ]
Lookup: 4 0 0 "'blwf' Below Base Forms in Telugu lookup 1" { "'blwf' Below Base Forms in Telugu lookup 1 subtable"  } ['blwf' ('telu' <'dflt' > ) ]
Lookup: 4 0 0 "'psts' Post Base Substitutions in Telugu lookup 2" { "'psts' Post Base Substitutions in Telugu lookup 2 subtable"  } ['psts' ('telu' <'dflt' > ) ]
Lookup: 4 0 0 "'blwf' Below Base Forms in Telugu lookup 3" { "'blwf' Below Base Forms in Telugu lookup 3 subtable"  } ['blwf' ('telu' <'dflt' > ) ]

StartChar: U0C15_U0C4D_U0C37_U0C4D_U0C30_U
Encoding: 65536 -1 0
Width: 880
GlyphClass: 2
Flags: W
LayerCount: 2
Back
Fore
SplineSet
110 -344 m 1,0,-1
 110 418 l 1,1,-1
 764 418 l 1,2,-1
 764 -344 l 1,3,-1
 110 -344 l 1,0,-1
159 -297 m 1,4,-1
 715 -297 l 1,5,-1
 715 371 l 1,6,-1
 159 371 l 1,7,-1
 159 -297 l 1,4,-1
EndSplineSet
EndChar

StartChar: exclam
Encoding: 33 33 4
Width: 183
GlyphClass: 2
Flags: W
LayerCount: 2
Back
Fore
SplineSet
132 85 m 1,0,-1
 132 0 l 1,1,-1
 51 0 l 1,2,-1
 51 85 l 1,3,-1
 132 85 l 1,0,-1
69 152 m 1,4,-1
 53 549 l 1,5,-1
 130 549 l 1,6,-1
 115 152 l 1,7,-1
 69 152 l 1,4,-1
EndSplineSet
EndChar

StartChar: quotedbl
Encoding: 34 34 5
Width: 263
GlyphClass: 2
Flags: W
LayerCount: 2
Back
Fore
SplineSet
97 368 m 1,0,-1
 55 368 l 1,1,-1
 39 549 l 1,2,-1
 113 549 l 1,3,-1
 97 368 l 1,0,-1
208 368 m 1,4,-1
 166 368 l 1,5,-1
 150 549 l 1,6,-1
 224 549 l 1,7,-1
 208 368 l 1,4,-1
EndSplineSet
EndChar

StartChar: numbersign
Encoding: 35 35 6
Width: 482
GlyphClass: 2
Flags: W
LayerCount: 2
Back
Fore
SplineSet
154 367 m 1,0,-1
 172 486 l 1,1,-1
 226 486 l 1,2,-1
 208 367 l 1,3,-1
 305 367 l 1,4,-1
 322 486 l 1,5,-1
 376 486 l 1,6,-1
 359 367 l 1,7,-1
 445 367 l 1,8,-1
 445 313 l 1,9,-1
 351 313 l 1,10,-1
 334 193 l 1,11,-1
 420 193 l 1,12,-1
 420 139 l 1,13,-1
 327 139 l 1,14,-1
 310 21 l 1,15,-1
 256 21 l 1,16,-1
 273 139 l 1,17,-1
 177 139 l 1,18,-1
 160 21 l 1,19,-1
 106 21 l 1,20,-1
 123 139 l 1,21,-1
 37 139 l 1,22,-1
 37 193 l 1,23,-1
 130 193 l 1,24,-1
 147 313 l 1,25,-1
 62 313 l 1,26,-1
 62 367 l 1,27,-1
 154 367 l 1,0,-1
184 193 m 1,28,-1
 281 193 l 1,29,-1
 297 313 l 1,30,-1
 201 313 l 1,31,-1
 184 193 l 1,28,-1
EndSplineSet
EndChar

StartChar: dollar
Encoding: 36 36 7
Width: 527
GlyphClass: 2
Flags: W
LayerCount: 2
Back
Fore
SplineSet
434.5 35.5 m 128,-1,1
 378 -5 378 -5 278 -7 c 1,2,-1
 278 -89 l 1,3,-1
 247 -89 l 1,4,-1
 247 -6 l 1,5,6
 94 1 94 1 51 100 c 0,7,8
 38 130 38 130 36 164 c 1,9,-1
 100 164 l 1,10,11
 102 114 102 114 144 85 c 0,12,13
 181 58 181 58 247 53 c 1,14,-1
 247 255 l 1,15,16
 156 276 156 276 121 297.5 c 128,-1,17
 86 319 86 319 69 343.5 c 128,-1,18
 52 368 52 368 52 404 c 0,19,20
 52 470 52 470 100.5 512 c 128,-1,21
 149 554 149 554 247 556 c 1,22,-1
 247 619 l 1,23,-1
 278 619 l 1,24,-1
 278 555 l 1,25,26
 373 550 373 550 425 505 c 0,27,28
 473 462 473 462 476 399 c 1,29,-1
 413 399 l 1,30,31
 408 438 408 438 376 465.5 c 128,-1,32
 344 493 344 493 278 497 c 1,33,-1
 278 308 l 1,34,35
 316 299 316 299 354 288 c 128,-1,36
 392 277 392 277 422 260 c 0,37,38
 491 221 491 221 491 148.5 c 128,-1,0
 491 76 491 76 434.5 35.5 c 128,-1,1
113 402 m 0,39,40
 113 386 113 386 123.5 372 c 128,-1,41
 134 358 134 358 153 348 c 0,42,43
 185 331 185 331 247 315 c 1,44,-1
 247 498 l 1,45,46
 171 495 171 495 138 463 c 0,47,48
 113 441 113 441 113 402 c 0,39,40
278 52 m 1,49,50
 348 52 348 52 388 76 c 128,-1,51
 428 100 428 100 428 149 c 0,52,53
 428 205 428 205 335 232 c 0,54,55
 308 239 308 239 278 247 c 1,56,-1
 278 52 l 1,49,50
EndSplineSet
EndChar

StartChar: percent
Encoding: 37 37 8
Width: 701
GlyphClass: 2
Flags: W
LayerCount: 2
Back
Fore
SplineSet
284 390 m 128,-1,1
 284 319 284 319 250.5 279 c 128,-1,2
 217 239 217 239 159 239 c 128,-1,3
 101 239 101 239 68 279 c 128,-1,4
 35 319 35 319 35 396.5 c 128,-1,5
 35 474 35 474 68 514 c 128,-1,6
 101 554 101 554 161.5 553 c 128,-1,7
 222 552 222 552 253 506.5 c 128,-1,0
 284 461 284 461 284 390 c 128,-1,1
159 286 m 0,8,9
 215 288 215 288 229 358 c 0,10,11
 232 377 232 377 232 396 c 0,12,13
 232 451 232 451 212.5 478 c 128,-1,14
 193 505 193 505 158.5 505 c 128,-1,15
 124 505 124 505 104.5 478 c 128,-1,16
 85 451 85 451 85 396 c 256,17,18
 85 341 85 341 104.5 313.5 c 128,-1,19
 124 286 124 286 159 286 c 0,8,9
666 144.5 m 128,-1,21
 666 73 666 73 632.5 33 c 128,-1,22
 599 -7 599 -7 541.5 -7 c 128,-1,23
 484 -7 484 -7 450.5 33 c 128,-1,24
 417 73 417 73 417 150.5 c 128,-1,25
 417 228 417 228 450.5 268 c 128,-1,26
 484 308 484 308 544.5 307 c 128,-1,27
 605 306 605 306 635.5 261 c 128,-1,20
 666 216 666 216 666 144.5 c 128,-1,21
542 41 m 0,28,29
 598 43 598 43 611 112 c 0,30,31
 615 131 615 131 615 150 c 0,32,33
 615 205 615 205 595.5 232.5 c 128,-1,34
 576 260 576 260 541.5 260 c 128,-1,35
 507 260 507 260 487.5 232.5 c 128,-1,36
 468 205 468 205 468 150 c 256,37,38
 468 95 468 95 487.5 68 c 128,-1,39
 507 41 507 41 542 41 c 0,28,29
567 556 m 1,40,-1
 186 -10 l 1,41,-1
 134 -10 l 1,42,-1
 515 556 l 1,43,-1
 567 556 l 1,40,-1
EndSplineSet
EndChar

StartChar: ampersand
Encoding: 38 38 9
Width: 481
GlyphClass: 2
Flags: W
LayerCount: 2
Back
Fore
SplineSet
153 544.5 m 128,-1,1
 187 556 187 556 230.5 556 c 128,-1,2
 274 556 274 556 304.5 546 c 128,-1,3
 335 536 335 536 357 520 c 0,4,5
 396 490 396 490 406 442 c 1,6,-1
 340 442 l 1,7,8
 333 462 333 462 306 481 c 128,-1,9
 279 500 279 500 239 500 c 128,-1,10
 199 500 199 500 176.5 492.5 c 128,-1,11
 154 485 154 485 139 471 c 0,12,13
 111 446 111 446 111 405 c 0,14,15
 111 360 111 360 144 335 c 0,16,17
 173 313 173 313 219 314 c 2,18,-1
 353 314 l 1,19,-1
 353 350 l 1,20,-1
 411 350 l 1,21,-1
 411 314 l 1,22,-1
 465 314 l 1,23,-1
 465 258 l 1,24,-1
 411 258 l 1,25,-1
 411 153 l 2,26,27
 411 82 411 82 361 38 c 0,28,29
 310 -7 310 -7 223 -7 c 0,30,31
 144 -7 144 -7 88 39 c 0,32,33
 31 85 31 85 31 158 c 0,34,35
 31 203 31 203 57.5 237.5 c 128,-1,36
 84 272 84 272 132 290 c 1,37,38
 101 299 101 299 76 332 c 0,39,40
 49 369 49 369 49 403.5 c 128,-1,41
 49 438 49 438 60.5 465.5 c 128,-1,42
 72 493 72 493 95.5 513 c 128,-1,0
 119 533 119 533 153 544.5 c 128,-1,1
212 258 m 2,43,44
 161 258 161 258 126 227 c 0,45,46
 93 199 93 199 93 156 c 128,-1,47
 93 113 93 113 129 81 c 0,48,49
 166 49 166 49 223 49 c 0,50,51
 284 49 284 49 320 80 c 0,52,53
 352 107 352 107 353 148 c 2,54,-1
 353 258 l 1,55,-1
 212 258 l 2,43,44
EndSplineSet
EndChar

StartChar: quotesingle
Encoding: 39 39 10
Width: 151
GlyphClass: 2
Flags: W
LayerCount: 2
Back
Fore
SplineSet
97 368 m 1,0,-1
 55 368 l 1,1,-1
 39 549 l 1,2,-1
 113 549 l 1,3,-1
 97 368 l 1,0,-1
EndSplineSet
EndChar

StartChar: parenleft
Encoding: 40 40 11
Width: 203
GlyphClass: 2
Flags: W
LayerCount: 2
Back
Fore
SplineSet
192 581 m 1,0,1
 92 420 92 420 92 232.5 c 128,-1,2
 92 45 92 45 192 -115 c 1,3,-1
 135 -115 l 1,4,5
 29 50 29 50 29 233 c 128,-1,6
 29 416 29 416 135 581 c 1,7,-1
 192 581 l 1,0,1
EndSplineSet
EndChar

StartChar: parenright
Encoding: 41 41 12
Width: 203
GlyphClass: 2
Flags: W
LayerCount: 2
Back
Fore
SplineSet
12 -115 m 1,0,1
 112 44 112 44 111.5 232 c 128,-1,2
 111 420 111 420 12 581 c 1,3,-1
 68 581 l 1,4,5
 174 416 174 416 174 233.5 c 128,-1,6
 174 51 174 51 68 -115 c 1,7,-1
 12 -115 l 1,0,1
EndSplineSet
EndChar

StartChar: asterisk
Encoding: 42 42 13
Width: 309
GlyphClass: 2
Flags: W
LayerCount: 2
Back
Fore
SplineSet
181 428 m 1,0,-1
 242 360 l 1,1,-1
 200 330 l 1,2,-1
 155 408 l 1,3,-1
 110 330 l 1,4,-1
 67 360 l 1,5,-1
 129 427 l 1,6,-1
 40 447 l 1,7,-1
 56 496 l 1,8,-1
 139 459 l 1,9,-1
 129 549 l 1,10,-1
 181 549 l 1,11,-1
 171 459 l 1,12,-1
 254 496 l 1,13,-1
 270 447 l 1,14,-1
 181 428 l 1,0,-1
EndSplineSet
EndChar

StartChar: plus
Encoding: 43 43 14
Width: 456
GlyphClass: 2
Flags: W
LayerCount: 2
Back
Fore
SplineSet
415 168 m 1,0,-1
 255 168 l 1,1,-1
 255 0 l 1,2,-1
 201 0 l 1,3,-1
 201 168 l 1,4,-1
 42 168 l 1,5,-1
 42 222 l 1,6,-1
 201 222 l 1,7,-1
 201 391 l 1,8,-1
 255 391 l 1,9,-1
 255 222 l 1,10,-1
 415 222 l 1,11,-1
 415 168 l 1,0,-1
EndSplineSet
EndChar

StartChar: comma
Encoding: 44 44 15
Width: 182
GlyphClass: 2
Flags: W
LayerCount: 2
Back
Fore
SplineSet
57 66 m 1,0,-1
 139 66 l 1,1,-1
 66 -110 l 1,2,-1
 9 -110 l 1,3,-1
 57 66 l 1,0,-1
EndSplineSet
EndChar

StartChar: hyphen
Encoding: 45 45 16
Width: 295
GlyphClass: 2
Flags: W
LayerCount: 2
Back
Fore
SplineSet
44 276 m 1,0,-1
 251 276 l 1,1,-1
 251 215 l 1,2,-1
 44 215 l 1,3,-1
 44 276 l 1,0,-1
EndSplineSet
EndChar

StartChar: period
Encoding: 46 46 17
Width: 168
GlyphClass: 2
Flags: W
LayerCount: 2
Back
Fore
SplineSet
124 85 m 1,0,-1
 124 0 l 1,1,-1
 44 0 l 1,2,-1
 44 85 l 1,3,-1
 124 85 l 1,0,-1
EndSplineSet
EndChar

StartChar: slash
Encoding: 47 47 18
Width: 307
GlyphClass: 2
Flags: W
LayerCount: 2
Back
Fore
SplineSet
278 564 m 1,0,-1
 88 -27 l 1,1,-1
 30 -27 l 1,2,-1
 220 564 l 1,3,-1
 278 564 l 1,0,-1
EndSplineSet
EndChar

StartChar: zero
Encoding: 48 48 19
Width: 456
GlyphClass: 2
Flags: W
LayerCount: 2
Back
Fore
SplineSet
36 275 m 256,0,1
 36 556 36 556 228 556 c 0,2,3
 333 554 333 554 382 468 c 0,4,5
 421 398 421 398 421 275 c 0,6,7
 421 -6 421 -6 228 -7 c 256,8,9
 36 -6 36 -6 36 275 c 256,0,1
228 54 m 0,10,11
 338 56 338 56 354 198 c 0,12,13
 359 237 359 237 359 275 c 0,14,15
 359 386 359 386 328 441 c 128,-1,16
 297 496 297 496 228 496 c 256,17,18
 159 496 159 496 128.5 441 c 128,-1,19
 98 386 98 386 98 275 c 256,20,21
 98 164 98 164 128.5 109 c 128,-1,22
 159 54 159 54 228 54 c 0,10,11
EndSplineSet
EndChar

StartChar: one
Encoding: 49 49 20
Width: 456
GlyphClass: 2
Flags: W
LayerCount: 2
Back
Fore
SplineSet
290 549 m 1,0,-1
 290 0 l 1,1,-1
 228 0 l 1,2,-1
 228 490 l 1,3,-1
 112 490 l 1,4,-1
 112 549 l 1,5,-1
 290 549 l 1,0,-1
EndSplineSet
EndChar

StartChar: two
Encoding: 50 50 21
Width: 456
GlyphClass: 2
Flags: W
LayerCount: 2
Back
Fore
SplineSet
414 392 m 0,0,1
 414 356 414 356 393 323 c 128,-1,2
 372 290 372 290 339.5 261 c 128,-1,3
 307 232 307 232 269.5 206 c 128,-1,4
 232 180 232 180 198.5 155.5 c 128,-1,5
 165 131 165 131 142.5 107.5 c 128,-1,6
 120 84 120 84 117 60 c 1,7,-1
 413 60 l 1,8,-1
 413 0 l 1,9,-1
 43 0 l 1,10,-1
 43 34 l 2,11,12
 43 75 43 75 66 108.5 c 128,-1,13
 89 142 89 142 123.5 171.5 c 128,-1,14
 158 201 158 201 197.5 227 c 128,-1,15
 237 253 237 253 271.5 279.5 c 128,-1,16
 306 306 306 306 329 333.5 c 128,-1,17
 352 361 352 361 352 393 c 0,18,19
 352 441 352 441 320 468.5 c 128,-1,20
 288 496 288 496 230.5 496 c 128,-1,21
 173 496 173 496 139 471.5 c 128,-1,22
 105 447 105 447 98 400 c 1,23,-1
 36 400 l 1,24,25
 43 470 43 470 96 513 c 256,26,27
 150 556 150 556 227 556 c 0,28,29
 314 556 314 556 365 510 c 0,30,31
 414 465 414 465 414 392 c 0,0,1
EndSplineSet
EndChar

StartChar: three
Encoding: 51 51 22
Width: 456
GlyphClass: 2
Flags: W
LayerCount: 2
Back
Fore
SplineSet
315 293 m 1,0,1
 363 275 363 275 390 239 c 128,-1,2
 417 203 417 203 417 162 c 128,-1,3
 417 121 417 121 402.5 91 c 128,-1,4
 388 61 388 61 362 39 c 0,5,6
 309 -7 309 -7 230 -7 c 0,7,8
 152 -7 152 -7 96 37 c 0,9,10
 40 82 40 82 34 145 c 1,11,-1
 97 145 l 1,12,13
 104 107 104 107 141 81 c 0,14,15
 179 54 179 54 230 54 c 0,16,17
 287 54 287 54 322 84 c 0,18,19
 354 112 354 112 354 156 c 0,20,21
 354 199 354 199 321 229 c 0,22,23
 286 261 286 261 236 261 c 2,24,-1
 173 261 l 1,25,-1
 173 318 l 1,26,-1
 228 318 l 2,27,28
 271 318 271 318 304 343 c 256,29,30
 336 368 336 368 336 407.5 c 128,-1,31
 336 447 336 447 308.5 471.5 c 128,-1,32
 281 496 281 496 228.5 496 c 128,-1,33
 176 496 176 496 145.5 472.5 c 128,-1,34
 115 449 115 449 110 417 c 1,35,-1
 49 417 l 1,36,37
 55 472 55 472 100 512 c 0,38,39
 150 556 150 556 225 556 c 0,40,41
 305 556 305 556 352 515 c 0,42,43
 398 475 398 475 398 410 c 0,44,45
 398 372 398 372 370 335 c 0,46,47
 345 301 345 301 315 293 c 1,0,1
EndSplineSet
EndChar

StartChar: four
Encoding: 52 52 23
Width: 456
GlyphClass: 2
Flags: W
LayerCount: 2
Back
Fore
SplineSet
424 196 m 1,0,-1
 424 140 l 1,1,-1
 350 140 l 1,2,-1
 350 0 l 1,3,-1
 288 0 l 1,4,-1
 288 140 l 1,5,-1
 26 140 l 1,6,-1
 26 201 l 1,7,-1
 256 549 l 1,8,-1
 350 549 l 1,9,-1
 350 196 l 1,10,-1
 424 196 l 1,0,-1
288 196 m 1,11,-1
 288 496 l 1,12,-1
 84 196 l 1,13,-1
 288 196 l 1,11,-1
EndSplineSet
EndChar

StartChar: five
Encoding: 53 53 24
Width: 456
GlyphClass: 2
Flags: W
LayerCount: 2
Back
Fore
SplineSet
134 330 m 1,0,1
 176 356 176 356 224.5 356 c 128,-1,2
 273 356 273 356 307 343 c 128,-1,3
 341 330 341 330 365 305 c 0,4,5
 416 255 416 255 417 176 c 0,6,7
 417 100 417 100 363.5 46.5 c 128,-1,8
 310 -7 310 -7 232 -7 c 0,9,10
 137 -7 137 -7 85 45 c 0,11,12
 46 82 46 82 35 138 c 1,13,-1
 99 138 l 1,14,15
 118 82 118 82 177 61 c 0,16,17
 199 54 199 54 228.5 54 c 128,-1,18
 258 54 258 54 281 63.5 c 128,-1,19
 304 73 304 73 320 90 c 0,20,21
 354 126 354 126 354 176 c 0,22,23
 354 230 354 230 320 264 c 256,24,25
 286 298 286 298 232 298 c 0,26,27
 195 298 195 298 166 284.5 c 128,-1,28
 137 271 137 271 123 254 c 1,29,-1
 66 289 l 1,30,-1
 103 549 l 1,31,-1
 389 549 l 1,32,-1
 389 490 l 1,33,-1
 159 490 l 1,34,-1
 134 330 l 1,0,1
EndSplineSet
EndChar

StartChar: six
Encoding: 54 54 25
Width: 456
GlyphClass: 2
Flags: W
LayerCount: 2
Back
Fore
SplineSet
343 422 m 1,0,1
 320 496 320 496 244 496 c 0,2,3
 171 496 171 496 133 430 c 0,4,5
 98 372 98 372 98 272 c 1,6,7
 118 307 118 307 156.5 328.5 c 128,-1,8
 195 350 195 350 238 350 c 128,-1,9
 281 350 281 350 315 337 c 0,10,11
 350 324 350 324 374 300 c 0,12,13
 429 249 429 249 428 172 c 0,14,15
 428 96 428 96 373 44 c 0,16,17
 319 -7 319 -7 239 -7 c 0,18,19
 139 -7 139 -7 87.5 66 c 128,-1,20
 36 139 36 139 36 275 c 0,21,22
 36 478 36 478 153 536 c 0,23,24
 192 556 192 556 238 556 c 128,-1,25
 284 556 284 556 313 544.5 c 128,-1,26
 342 533 342 533 362 514 c 0,27,28
 402 477 402 477 413 422 c 1,29,-1
 343 422 l 1,0,1
239 291 m 0,30,31
 212 291 212 291 189.5 283 c 128,-1,32
 167 275 167 275 149 259 c 0,33,34
 112 227 112 227 112 176 c 0,35,36
 112 123 112 123 149 88 c 0,37,38
 184 54 184 54 239 54 c 0,39,40
 292 54 292 54 329 87 c 0,41,42
 366 121 366 121 366 172 c 256,43,44
 366 223 366 223 329 257 c 0,45,46
 291 291 291 291 239 291 c 0,30,31
EndSplineSet
EndChar

StartChar: seven
Encoding: 55 55 26
Width: 456
GlyphClass: 2
Flags: W
LayerCount: 2
Back
Fore
SplineSet
420 549 m 1,0,-1
 420 479 l 1,1,-1
 191 0 l 1,2,-1
 119 0 l 1,3,-1
 356 490 l 1,4,-1
 39 490 l 1,5,-1
 39 549 l 1,6,-1
 420 549 l 1,0,-1
EndSplineSet
EndChar

StartChar: eight
Encoding: 56 56 27
Width: 456
GlyphClass: 2
Flags: W
LayerCount: 2
Back
Fore
SplineSet
320 302 m 1,0,1
 369 283 369 283 397 244 c 128,-1,2
 425 205 425 205 425 163 c 128,-1,3
 425 121 425 121 411.5 91 c 128,-1,4
 398 61 398 61 374 39 c 0,5,6
 322 -7 322 -7 228 -7 c 256,7,8
 135 -7 135 -7 83 39 c 0,9,10
 32 84 32 84 32 158 c 0,11,12
 32 205 32 205 60 244 c 128,-1,13
 88 283 88 283 137 302 c 1,14,15
 105 314 105 314 81 340 c 0,16,17
 53 372 53 372 53 417 c 0,18,19
 53 479 53 479 98 517.5 c 128,-1,20
 143 556 143 556 228 556 c 256,21,22
 313 556 313 556 358 518 c 128,-1,23
 403 480 403 480 403 417 c 0,24,25
 403 351 403 351 348 317 c 0,26,27
 333 307 333 307 320 302 c 1,0,1
228 329 m 256,28,29
 272 329 272 329 304 349 c 0,30,31
 341 373 341 373 341 413.5 c 128,-1,32
 341 454 341 454 309.5 475 c 128,-1,33
 278 496 278 496 228 496 c 256,34,35
 178 496 178 496 146.5 475 c 128,-1,36
 115 454 115 454 115 413.5 c 128,-1,37
 115 373 115 373 149.5 351 c 128,-1,38
 184 329 184 329 228 329 c 256,28,29
228 53 m 256,39,40
 290 53 290 53 326.5 81.5 c 128,-1,41
 363 110 363 110 363 159 c 0,42,43
 363 210 363 210 323 242 c 0,44,45
 286 271 286 271 228 271 c 256,46,47
 171 271 171 271 134 242 c 0,48,49
 94 210 94 210 94 160 c 128,-1,50
 94 110 94 110 130 81.5 c 128,-1,51
 166 53 166 53 228 53 c 256,39,40
EndSplineSet
EndChar

StartChar: nine
Encoding: 57 57 28
Width: 456
GlyphClass: 2
Flags: W
LayerCount: 2
Back
Fore
SplineSet
114 128 m 1,0,1
 137 54 137 54 212 54 c 0,2,3
 285 54 285 54 324 120 c 0,4,5
 359 178 359 178 359 277 c 1,6,7
 339 242 339 242 300 220.5 c 128,-1,8
 261 199 261 199 218.5 199 c 128,-1,9
 176 199 176 199 142 212.5 c 128,-1,10
 108 226 108 226 83 249 c 0,11,12
 28 300 28 300 28 378 c 0,13,14
 28 454 28 454 84 505 c 0,15,16
 138 556 138 556 217 556 c 0,17,18
 317 556 317 556 369 483.5 c 128,-1,19
 421 411 421 411 421 275 c 0,20,21
 421 72 421 72 304 13 c 0,22,23
 265 -7 265 -7 219 -7 c 128,-1,24
 173 -7 173 -7 144 5 c 128,-1,25
 115 17 115 17 95 36 c 0,26,27
 55 73 55 73 44 128 c 1,28,-1
 114 128 l 1,0,1
217 258 m 0,29,30
 243 258 243 258 266.5 266.5 c 0,31,32
 290 274 290 274 307 290 c 0,33,34
 344 322 344 322 344 374 c 0,35,36
 344 427 344 427 307 461 c 0,37,38
 272 495 272 495 217 496 c 0,39,40
 164 496 164 496 128 462 c 0,41,42
 91 428 91 428 90 378 c 256,43,44
 90 327 90 327 128 292 c 0,45,46
 165 258 165 258 217 258 c 0,29,30
EndSplineSet
EndChar

StartChar: colon
Encoding: 58 58 29
Width: 168
GlyphClass: 2
Flags: W
LayerCount: 2
Back
Fore
SplineSet
124 85 m 1,0,-1
 124 0 l 1,1,-1
 44 0 l 1,2,-1
 44 85 l 1,3,-1
 124 85 l 1,0,-1
124 415 m 1,4,-1
 124 330 l 1,5,-1
 44 330 l 1,6,-1
 44 415 l 1,7,-1
 124 415 l 1,4,-1
EndSplineSet
EndChar

StartChar: semicolon
Encoding: 59 59 30
Width: 203
GlyphClass: 2
Flags: W
LayerCount: 2
Back
Fore
SplineSet
147 415 m 1,0,-1
 147 330 l 1,1,-1
 66 330 l 1,2,-1
 66 415 l 1,3,-1
 147 415 l 1,0,-1
69 66 m 1,4,-1
 150 66 l 1,5,-1
 77 -110 l 1,6,-1
 21 -110 l 1,7,-1
 69 66 l 1,4,-1
EndSplineSet
EndChar

StartChar: less
Encoding: 60 60 31
Width: 456
GlyphClass: 2
Flags: W
LayerCount: 2
Back
Fore
SplineSet
421 7 m 1,0,-1
 22 183 l 1,1,-1
 22 235 l 1,2,-1
 421 412 l 1,3,-1
 421 347 l 1,4,-1
 85 209 l 1,5,-1
 421 71 l 1,6,-1
 421 7 l 1,0,-1
EndSplineSet
EndChar

StartChar: equal
Encoding: 61 61 32
Width: 456
GlyphClass: 2
Flags: W
LayerCount: 2
Back
Fore
SplineSet
409 305 m 1,0,-1
 409 250 l 1,1,-1
 47 250 l 1,2,-1
 47 305 l 1,3,-1
 409 305 l 1,0,-1
47 141 m 1,4,-1
 409 141 l 1,5,-1
 409 85 l 1,6,-1
 47 85 l 1,7,-1
 47 141 l 1,4,-1
EndSplineSet
EndChar

StartChar: greater
Encoding: 62 62 33
Width: 456
GlyphClass: 2
Flags: W
LayerCount: 2
Back
Fore
SplineSet
35 71 m 1,0,-1
 371 209 l 1,1,-1
 35 347 l 1,2,-1
 35 412 l 1,3,-1
 434 235 l 1,4,-1
 434 183 l 1,5,-1
 35 7 l 1,6,-1
 35 71 l 1,0,-1
EndSplineSet
EndChar

StartChar: question
Encoding: 63 63 34
Width: 427
GlyphClass: 2
Flags: W
LayerCount: 2
Back
Fore
SplineSet
386 403 m 0,0,1
 386 373 386 373 376 350 c 128,-1,2
 366 327 366 327 350.5 308.5 c 128,-1,3
 335 290 335 290 317.5 274 c 128,-1,4
 300 258 300 258 284 241 c 0,5,6
 249 201 249 201 249 152 c 1,7,-1
 188 152 l 1,8,9
 188 229 188 229 257 292 c 0,10,11
 299 329 299 329 313 354.5 c 128,-1,12
 327 380 327 380 327 401 c 128,-1,13
 327 422 327 422 322 438 c 128,-1,14
 317 454 317 454 305 468 c 0,15,16
 277 499 277 499 221 499 c 0,17,18
 164 499 164 499 128 465 c 0,19,20
 95 433 95 433 91 387 c 1,21,-1
 32 387 l 1,22,23
 35 458 35 458 85 505 c 0,24,25
 137 556 137 556 216 556 c 0,26,27
 301 556 301 556 345 510 c 0,28,29
 386 467 386 467 386 403 c 0,0,1
259 85 m 1,30,-1
 259 0 l 1,31,-1
 178 0 l 1,32,-1
 178 85 l 1,33,-1
 259 85 l 1,30,-1
EndSplineSet
EndChar

StartChar: at
Encoding: 64 64 35
Width: 707
GlyphClass: 2
Flags: W
LayerCount: 2
Back
Fore
SplineSet
495 183 m 2,0,1
 495 139 495 139 539.5 139 c 128,-1,2
 584 139 584 139 613 178 c 128,-1,3
 642 217 642 217 642 302 c 0,4,5
 642 408 642 408 568 482 c 0,6,7
 495 555 495 555 388 555 c 0,8,9
 326 555 326 555 269 530 c 128,-1,10
 212 505 212 505 168 461.5 c 128,-1,11
 124 418 124 418 98 361 c 128,-1,12
 72 304 72 304 72 245 c 128,-1,13
 72 186 72 186 91.5 140.5 c 128,-1,14
 111 95 111 95 146 61 c 0,15,16
 219 -11 219 -11 326 -11 c 128,-1,17
 433 -11 433 -11 508 51 c 1,18,-1
 526 26 l 1,19,20
 441 -42 441 -42 325 -42 c 0,21,22
 263 -42 263 -42 211 -19.5 c 128,-1,23
 159 3 159 3 121.5 42 c 128,-1,24
 84 81 84 81 63 132 c 128,-1,25
 42 183 42 183 42 245.5 c 128,-1,26
 42 308 42 308 69.5 370.5 c 128,-1,27
 97 433 97 433 145 481 c 128,-1,28
 193 529 193 529 256 557.5 c 128,-1,29
 319 586 319 586 382 586 c 128,-1,30
 445 586 445 586 496.5 564.5 c 128,-1,31
 548 543 548 543 587 505 c 128,-1,32
 626 467 626 467 649 416 c 128,-1,33
 672 365 672 365 672 308.5 c 128,-1,34
 672 252 672 252 659 214 c 128,-1,35
 646 176 646 176 624 151 c 0,36,37
 582 102 582 102 518 102 c 0,38,39
 470 102 470 102 452 131 c 0,40,41
 443 143 443 143 441 160 c 1,42,43
 394 102 394 102 320 102 c 0,44,45
 252 102 252 102 214 141 c 0,46,47
 179 178 179 178 179 240 c 0,48,49
 179 330 179 330 234 386 c 0,50,51
 288 442 288 442 367 442 c 128,-1,52
 446 442 446 442 476 383 c 1,53,-1
 485 437 l 1,54,-1
 535 437 l 1,55,-1
 496 194 l 2,56,57
 495 192 495 192 495 191 c 2,58,-1
 495 183 l 2,0,1
463 297 m 0,59,60
 463 339 463 339 439 369 c 0,61,62
 414 398 414 398 368 398 c 0,63,64
 307 398 307 398 268 356 c 0,65,66
 229 314 229 314 229 245 c 0,67,68
 229 203 229 203 255 175 c 128,-1,69
 281 147 281 147 337 147 c 128,-1,70
 393 147 393 147 428 191 c 128,-1,71
 463 235 463 235 463 297 c 0,59,60
EndSplineSet
EndChar

StartChar: A
Encoding: 65 65 36
Width: 549
GlyphClass: 2
Flags: W
LayerCount: 2
Back
Fore
SplineSet
547 0 m 1,0,-1
 478 0 l 1,1,-1
 411 159 l 1,2,-1
 139 159 l 1,3,-1
 71 0 l 1,4,-1
 2 0 l 1,5,-1
 236 549 l 1,6,-1
 314 549 l 1,7,-1
 547 0 l 1,0,-1
387 217 m 1,8,-1
 275 485 l 1,9,-1
 163 217 l 1,10,-1
 387 217 l 1,8,-1
EndSplineSet
EndChar

StartChar: B
Encoding: 66 66 37
Width: 549
GlyphClass: 2
Flags: W
LayerCount: 2
Back
Fore
SplineSet
487 404 m 0,0,1
 487 314 487 314 413 281 c 1,2,3
 481 259 481 259 506 198 c 0,4,5
 515 175 515 175 515 144 c 0,6,7
 515 44 515 44 410 12 c 0,8,9
 375 0 375 0 328 0 c 2,10,-1
 67 0 l 1,11,-1
 67 549 l 1,12,-1
 314 549 l 2,13,14
 403 549 403 549 449 501 c 0,15,16
 487 463 487 463 487 404 c 0,0,1
129 304 m 1,17,-1
 314 304 l 2,18,19
 390 304 390 304 416 356 c 0,20,21
 425 374 425 374 425 395.5 c 128,-1,22
 425 417 425 417 419 433 c 128,-1,23
 413 449 413 449 401 461 c 0,24,25
 374 490 374 490 320 491 c 2,26,-1
 129 491 l 1,27,-1
 129 304 l 1,17,-1
334 59 m 2,28,29
 391 59 391 59 422 82.5 c 128,-1,30
 453 106 453 106 453 149 c 0,31,32
 453 191 453 191 423 217 c 0,33,34
 390 247 390 247 328 247 c 2,35,-1
 129 247 l 1,36,-1
 129 59 l 1,37,-1
 334 59 l 2,28,29
EndSplineSet
EndChar

StartChar: C
Encoding: 67 67 38
Width: 572
GlyphClass: 2
Flags: W
LayerCount: 2
Back
Fore
SplineSet
312 54 m 0,0,1
 371 54 371 54 415.5 84 c 128,-1,2
 460 114 460 114 481 164 c 1,3,-1
 547 164 l 1,4,5
 520 86 520 86 456 42 c 0,6,7
 389 -6 389 -6 298 -7 c 0,8,9
 178 -7 178 -7 103 76 c 0,10,11
 32 155 32 155 32 275 c 128,-1,12
 32 395 32 395 103 474 c 0,13,14
 178 556 178 556 298 556 c 0,15,16
 388 556 388 556 456 508 c 0,17,18
 519 463 519 463 547 385 c 1,19,-1
 481 385 l 1,20,21
 459 436 459 436 415 466 c 128,-1,22
 371 496 371 496 312 496 c 128,-1,23
 253 496 253 496 214 478.5 c 128,-1,24
 175 461 175 461 149 432 c 0,25,26
 95 371 95 371 95 275 c 256,27,28
 95 179 95 179 149 118 c 0,29,30
 205 54 205 54 312 54 c 0,0,1
EndSplineSet
EndChar

StartChar: D
Encoding: 68 68 39
Width: 584
GlyphClass: 2
Flags: W
LayerCount: 2
Back
Fore
SplineSet
299 549 m 2,0,1
 348 549 348 549 393.5 530.5 c 128,-1,2
 439 512 439 512 474 476 c 0,3,4
 551 397 551 397 551 275 c 256,5,6
 551 152 551 152 474 73 c 0,7,8
 439 37 439 37 393.5 18.5 c 128,-1,9
 348 0 348 0 299 0 c 2,10,-1
 67 0 l 1,11,-1
 67 549 l 1,12,-1
 299 549 l 2,0,1
296 59 m 2,13,14
 382 59 382 59 437 123 c 0,15,16
 489 184 489 184 489 275 c 256,17,18
 489 365 489 365 437 427 c 0,19,20
 383 491 383 491 296 491 c 2,21,-1
 129 491 l 1,22,-1
 129 59 l 1,23,-1
 296 59 l 2,13,14
EndSplineSet
EndChar

StartChar: E
Encoding: 69 69 40
Width: 504
GlyphClass: 2
Flags: W
LayerCount: 2
Back
Fore
SplineSet
129 490 m 1,0,-1
 129 305 l 1,1,-1
 435 305 l 1,2,-1
 435 245 l 1,3,-1
 129 245 l 1,4,-1
 129 60 l 1,5,-1
 471 60 l 1,6,-1
 471 0 l 1,7,-1
 67 0 l 1,8,-1
 67 549 l 1,9,-1
 471 549 l 1,10,-1
 471 490 l 1,11,-1
 129 490 l 1,0,-1
EndSplineSet
EndChar

StartChar: F
Encoding: 70 70 41
Width: 483
GlyphClass: 2
Flags: W
LayerCount: 2
Back
Fore
SplineSet
129 490 m 1,0,-1
 129 299 l 1,1,-1
 427 299 l 1,2,-1
 427 238 l 1,3,-1
 129 238 l 1,4,-1
 129 0 l 1,5,-1
 67 0 l 1,6,-1
 67 549 l 1,7,-1
 464 549 l 1,8,-1
 464 490 l 1,9,-1
 129 490 l 1,0,-1
EndSplineSet
EndChar

StartChar: G
Encoding: 71 71 42
Width: 600
GlyphClass: 2
Flags: W
LayerCount: 2
Back
Fore
SplineSet
191 534 m 128,-1,1
 241 556 241 556 294 556 c 128,-1,2
 347 556 347 556 386 544.5 c 0,3,4
 424 533 424 533 456 513 c 0,5,6
 522 471 522 471 553 400 c 1,7,-1
 485 400 l 1,8,9
 460 445 460 445 415.5 470.5 c 128,-1,10
 371 496 371 496 314.5 496 c 128,-1,11
 258 496 258 496 218 478.5 c 128,-1,12
 178 461 178 461 151 432 c 0,13,14
 95 371 95 371 95 275 c 128,-1,15
 95 179 95 179 150 118 c 0,16,17
 209 54 209 54 306 54 c 0,18,19
 384 54 384 54 441 102 c 0,20,21
 501 153 501 153 500 236 c 1,22,-1
 300 236 l 1,23,-1
 300 292 l 1,24,-1
 558 292 l 1,25,-1
 558 0 l 1,26,-1
 500 0 l 1,27,-1
 500 97 l 1,28,29
 453 26 453 26 369 2 c 0,30,31
 338 -6 338 -6 288 -6.5 c 128,-1,32
 238 -7 238 -7 188.5 15 c 128,-1,33
 139 37 139 37 104 76 c 0,34,35
 33 154 33 154 32 275 c 0,36,37
 32 395 32 395 106 474 c 0,38,0
 141 512 141 512 191 534 c 128,-1,1
EndSplineSet
EndChar

StartChar: H
Encoding: 72 72 43
Width: 578
GlyphClass: 2
Flags: W
LayerCount: 2
Back
Fore
SplineSet
511 549 m 1,0,-1
 511 0 l 1,1,-1
 449 0 l 1,2,-1
 449 245 l 1,3,-1
 129 245 l 1,4,-1
 129 0 l 1,5,-1
 67 0 l 1,6,-1
 67 549 l 1,7,-1
 129 549 l 1,8,-1
 129 305 l 1,9,-1
 449 305 l 1,10,-1
 449 549 l 1,11,-1
 511 549 l 1,0,-1
EndSplineSet
EndChar

StartChar: I
Encoding: 73 73 44
Width: 196
GlyphClass: 2
Flags: W
LayerCount: 2
Back
Fore
SplineSet
129 0 m 1,0,-1
 67 0 l 1,1,-1
 67 549 l 1,2,-1
 129 549 l 1,3,-1
 129 0 l 1,0,-1
EndSplineSet
EndChar

StartChar: J
Encoding: 74 74 45
Width: 437
GlyphClass: 2
Flags: W
LayerCount: 2
Back
Fore
SplineSet
375 549 m 1,0,-1
 375 182 l 2,1,2
 375 102 375 102 335 51 c 0,3,4
 289 -7 289 -7 196 -7 c 0,5,6
 112 -6 112 -6 62 42 c 0,7,8
 18 86 18 86 12 147 c 1,9,-1
 77 147 l 1,10,11
 83 110 83 110 111 85 c 0,12,13
 144 54 144 54 199 54 c 0,14,15
 265 54 265 54 294 98 c 0,16,17
 313 129 313 129 313 184 c 2,18,-1
 313 549 l 1,19,-1
 375 549 l 1,0,-1
EndSplineSet
EndChar

StartChar: K
Encoding: 75 75 46
Width: 532
GlyphClass: 2
Flags: W
LayerCount: 2
Back
Fore
SplineSet
289 329 m 1,0,-1
 536 0 l 1,1,-1
 458 0 l 1,2,-1
 243 286 l 1,3,-1
 129 180 l 1,4,-1
 129 0 l 1,5,-1
 67 0 l 1,6,-1
 67 549 l 1,7,-1
 129 549 l 1,8,-1
 129 263 l 1,9,-1
 435 549 l 1,10,-1
 523 549 l 1,11,-1
 289 329 l 1,0,-1
EndSplineSet
EndChar

StartChar: L
Encoding: 76 76 47
Width: 442
GlyphClass: 2
Flags: W
LayerCount: 2
Back
Fore
SplineSet
129 549 m 1,0,-1
 129 60 l 1,1,-1
 429 60 l 1,2,-1
 429 0 l 1,3,-1
 67 0 l 1,4,-1
 67 549 l 1,5,-1
 129 549 l 1,0,-1
EndSplineSet
EndChar

StartChar: M
Encoding: 77 77 48
Width: 668
GlyphClass: 2
Flags: W
LayerCount: 2
Back
Fore
SplineSet
602 549 m 1,0,-1
 602 0 l 1,1,-1
 540 0 l 1,2,-1
 540 455 l 1,3,-1
 336 193 l 1,4,-1
 129 455 l 1,5,-1
 129 0 l 1,6,-1
 67 0 l 1,7,-1
 67 549 l 1,8,-1
 139 549 l 1,9,-1
 336 289 l 1,10,-1
 530 549 l 1,11,-1
 602 549 l 1,0,-1
EndSplineSet
EndChar

StartChar: N
Encoding: 78 78 49
Width: 608
GlyphClass: 2
Flags: W
LayerCount: 2
Back
Fore
SplineSet
541 549 m 1,0,-1
 541 0 l 1,1,-1
 469 0 l 1,2,-1
 129 464 l 1,3,-1
 129 0 l 1,4,-1
 67 0 l 1,5,-1
 67 549 l 1,6,-1
 139 549 l 1,7,-1
 479 87 l 1,8,-1
 479 549 l 1,9,-1
 541 549 l 1,0,-1
EndSplineSet
EndChar

StartChar: O
Encoding: 79 79 50
Width: 622
GlyphClass: 2
Flags: W
LayerCount: 2
Back
Fore
SplineSet
311 556 m 256,0,1
 434 556 434 556 513 474 c 0,2,3
 590 394 590 394 590 274.5 c 128,-1,4
 590 155 590 155 513 76 c 0,5,6
 434 -6 434 -6 311 -7 c 256,7,8
 188 -7 188 -7 110 76 c 0,9,10
 33 156 33 156 32.5 275 c 128,-1,11
 32 394 32 394 110 474 c 0,12,13
 188 556 188 556 311 556 c 256,0,1
311 54 m 256,14,15
 409 54 409 54 470 118 c 0,16,17
 528 179 528 179 528 275 c 256,18,19
 528 370 528 370 470 432 c 0,20,21
 409 496 409 496 311 496 c 256,22,23
 213 496 213 496 153 432 c 0,24,25
 95 371 95 371 95 275 c 256,26,27
 95 180 95 180 153 118 c 0,28,29
 213 54 213 54 311 54 c 256,14,15
EndSplineSet
EndChar

StartChar: P
Encoding: 80 80 51
Width: 521
GlyphClass: 2
Flags: W
LayerCount: 2
Back
Fore
SplineSet
129 0 m 1,0,-1
 67 0 l 1,1,-1
 67 549 l 1,2,-1
 315 549 l 2,3,4
 402 549 402 549 453 501 c 0,5,6
 504 453 504 453 504 373 c 0,7,8
 504 292 504 292 453 244 c 128,-1,9
 402 196 402 196 315 196 c 2,10,-1
 129 196 l 1,11,-1
 129 0 l 1,0,-1
129 491 m 1,12,-1
 129 254 l 1,13,-1
 310 254 l 2,14,15
 375 254 375 254 408.5 285.5 c 128,-1,16
 442 317 442 317 442 372 c 128,-1,17
 442 427 442 427 408.5 459 c 128,-1,18
 375 491 375 491 310 491 c 2,19,-1
 129 491 l 1,12,-1
EndSplineSet
EndChar

StartChar: Q
Encoding: 81 81 52
Width: 622
GlyphClass: 2
Flags: W
LayerCount: 2
Back
Fore
SplineSet
496 -77 m 0,0,1
 550 -77 550 -77 596 -40 c 1,2,-1
 629 -85 l 1,3,4
 572 -131 572 -131 495 -130 c 0,5,6
 434 -130 434 -130 380 -96 c 256,7,8
 327 -62 327 -62 300 -6 c 1,9,10
 181 -1 181 -1 106 80 c 0,11,12
 32 158 32 158 32 275 c 0,13,14
 32 395 32 395 110 474 c 0,15,16
 189 556 189 556 311 556 c 256,17,18
 434 556 434 556 513 474 c 0,19,20
 590 394 590 394 590 275 c 0,21,22
 590 170 590 170 527 93 c 0,23,24
 464 15 464 15 363 -2 c 1,25,26
 387 -50 387 -50 445 -70 c 0,27,28
 467 -77 467 -77 496 -77 c 0,0,1
311 54 m 256,29,30
 409 54 409 54 470 118 c 0,31,32
 528 179 528 179 528 275 c 256,33,34
 528 370 528 370 470 432 c 0,35,36
 409 496 409 496 311 496 c 256,37,38
 213 496 213 496 153 432 c 0,39,40
 95 371 95 371 95 275 c 256,41,42
 95 180 95 180 153 118 c 0,43,44
 213 54 213 54 311 54 c 256,29,30
EndSplineSet
EndChar

StartChar: R
Encoding: 82 82 53
Width: 555
GlyphClass: 2
Flags: W
LayerCount: 2
Back
Fore
SplineSet
129 0 m 1,0,-1
 67 0 l 1,1,-1
 67 549 l 1,2,-1
 330 549 l 2,3,4
 414 549 414 549 465 503 c 0,5,6
 516 457 516 457 515 378 c 0,7,8
 515 275 515 275 430 237 c 0,9,10
 406 226 406 226 383 222 c 1,11,-1
 527 0 l 1,12,-1
 453 0 l 1,13,-1
 320 211 l 1,14,-1
 129 211 l 1,15,-1
 129 0 l 1,0,-1
129 270 m 1,16,-1
 320 270 l 2,17,18
 408 270 408 270 441 325 c 0,19,20
 453 346 453 346 453 378 c 0,21,22
 453 430 453 430 417.5 460.5 c 128,-1,23
 382 491 382 491 323 491 c 2,24,-1
 129 491 l 1,25,-1
 129 270 l 1,16,-1
EndSplineSet
EndChar

StartChar: S
Encoding: 83 83 54
Width: 510
GlyphClass: 2
Flags: W
LayerCount: 2
Back
Fore
SplineSet
109.5 435 m 128,-1,1
 104 418 104 418 104 399.5 c 128,-1,2
 104 381 104 381 120 365 c 128,-1,3
 136 349 136 349 162.5 338.5 c 128,-1,4
 189 328 189 328 223 319.5 c 128,-1,5
 257 311 257 311 292.5 302.5 c 128,-1,6
 328 294 328 294 362 282.5 c 128,-1,7
 396 271 396 271 422 254 c 0,8,9
 481 217 481 217 481 152 c 0,10,11
 481 75 481 75 423.5 34 c 128,-1,12
 366 -7 366 -7 264 -7 c 0,13,14
 149 -6 149 -6 88 42 c 0,15,16
 34 85 34 85 27 164 c 1,17,-1
 91 164 l 1,18,19
 94 108 94 108 146 78 c 0,20,21
 191 52 191 52 265 52 c 0,22,23
 419 52 419 52 419 149 c 0,24,25
 419 182 419 182 391.5 201.5 c 128,-1,26
 364 221 364 221 322 233.5 c 128,-1,27
 280 246 280 246 231.5 256.5 c 128,-1,28
 183 267 183 267 141 284 c 128,-1,29
 99 301 99 301 71 329 c 128,-1,30
 43 357 43 357 43 404 c 0,31,32
 43 471 43 471 94.5 513.5 c 128,-1,33
 146 556 146 556 250 556 c 0,34,35
 355 556 355 556 412 508 c 0,36,37
 464 466 464 466 467 399 c 1,38,-1
 403 399 l 1,39,40
 395 467 395 467 315 490 c 0,41,42
 287 498 287 498 245 498 c 128,-1,43
 203 498 203 498 174.5 488.5 c 128,-1,44
 146 479 146 479 130.5 465.5 c 128,-1,0
 115 452 115 452 109.5 435 c 128,-1,1
EndSplineSet
EndChar

StartChar: T
Encoding: 84 84 55
Width: 468
GlyphClass: 2
Flags: W
LayerCount: 2
Back
Fore
SplineSet
457 490 m 1,0,-1
 266 490 l 1,1,-1
 266 0 l 1,2,-1
 203 0 l 1,3,-1
 203 490 l 1,4,-1
 12 490 l 1,5,-1
 12 549 l 1,6,-1
 457 549 l 1,7,-1
 457 490 l 1,0,-1
EndSplineSet
EndChar

StartChar: U
Encoding: 85 85 56
Width: 588
GlyphClass: 2
Flags: W
LayerCount: 2
Back
Fore
SplineSet
528 549 m 1,0,-1
 528 237 l 2,1,2
 528 127 528 127 463 60 c 128,-1,3
 398 -7 398 -7 294 -7 c 0,4,5
 191 -7 191 -7 126 60 c 128,-1,6
 61 127 61 127 61 237 c 2,7,-1
 61 549 l 1,8,-1
 123 549 l 1,9,-1
 123 235 l 2,10,11
 123 146 123 146 176 96 c 0,12,13
 222 54 222 54 294 54 c 256,14,15
 366 54 366 54 413 96 c 0,16,17
 466 145 466 145 466 235 c 2,18,-1
 466 549 l 1,19,-1
 528 549 l 1,0,-1
EndSplineSet
EndChar

StartChar: V
Encoding: 86 86 57
Width: 521
GlyphClass: 2
Flags: W
LayerCount: 2
Back
Fore
SplineSet
519 549 m 1,0,-1
 296 0 l 1,1,-1
 225 0 l 1,2,-1
 2 549 l 1,3,-1
 71 549 l 1,4,-1
 261 71 l 1,5,-1
 451 549 l 1,6,-1
 519 549 l 1,0,-1
EndSplineSet
EndChar

StartChar: W
Encoding: 87 87 58
Width: 795
GlyphClass: 2
Flags: W
LayerCount: 2
Back
Fore
SplineSet
249 0 m 1,0,-1
 178 0 l 1,1,-1
 7 549 l 1,2,-1
 73 549 l 1,3,-1
 214 88 l 1,4,-1
 362 549 l 1,5,-1
 433 549 l 1,6,-1
 581 88 l 1,7,-1
 722 549 l 1,8,-1
 788 549 l 1,9,-1
 617 0 l 1,10,-1
 546 0 l 1,11,-1
 398 461 l 1,12,-1
 249 0 l 1,0,-1
EndSplineSet
EndChar

StartChar: X
Encoding: 88 88 59
Width: 508
GlyphClass: 2
Flags: W
LayerCount: 2
Back
Fore
SplineSet
292 284 m 1,0,-1
 511 0 l 1,1,-1
 432 0 l 1,2,-1
 254 236 l 1,3,-1
 76 0 l 1,4,-1
 -2 0 l 1,5,-1
 217 284 l 1,6,-1
 12 549 l 1,7,-1
 91 549 l 1,8,-1
 254 334 l 1,9,-1
 417 549 l 1,10,-1
 496 549 l 1,11,-1
 292 284 l 1,0,-1
EndSplineSet
EndChar

StartChar: Y
Encoding: 89 89 60
Width: 522
GlyphClass: 2
Flags: W
LayerCount: 2
Back
Fore
SplineSet
292 0 m 1,0,-1
 230 0 l 1,1,-1
 230 217 l 1,2,-1
 -1 549 l 1,3,-1
 75 549 l 1,4,-1
 261 282 l 1,5,-1
 447 549 l 1,6,-1
 522 549 l 1,7,-1
 292 217 l 1,8,-1
 292 0 l 1,0,-1
EndSplineSet
EndChar

StartChar: Z
Encoding: 90 90 61
Width: 484
GlyphClass: 2
Flags: W
LayerCount: 2
Back
Fore
SplineSet
100 58 m 1,0,-1
 459 58 l 1,1,-1
 459 0 l 1,2,-1
 24 0 l 1,3,-1
 24 59 l 1,4,-1
 383 491 l 1,5,-1
 29 491 l 1,6,-1
 29 549 l 1,7,-1
 459 549 l 1,8,-1
 459 490 l 1,9,-1
 100 58 l 1,0,-1
EndSplineSet
EndChar

StartChar: bracketleft
Encoding: 91 91 62
Width: 232
GlyphClass: 2
Flags: W
LayerCount: 2
Back
Fore
SplineSet
110 512 m 1,0,-1
 110 -59 l 1,1,-1
 210 -59 l 1,2,-1
 210 -110 l 1,3,-1
 55 -110 l 1,4,-1
 55 564 l 1,5,-1
 210 564 l 1,6,-1
 210 512 l 1,7,-1
 110 512 l 1,0,-1
EndSplineSet
EndChar

StartChar: backslash
Encoding: 92 92 63
Width: 307
GlyphClass: 2
Flags: W
LayerCount: 2
Back
Fore
SplineSet
88 564 m 1,0,-1
 278 -27 l 1,1,-1
 220 -27 l 1,2,-1
 30 564 l 1,3,-1
 88 564 l 1,0,-1
EndSplineSet
EndChar

StartChar: bracketright
Encoding: 93 93 64
Width: 232
GlyphClass: 2
Flags: W
LayerCount: 2
Back
Fore
SplineSet
22 512 m 1,0,-1
 22 564 l 1,1,-1
 178 564 l 1,2,-1
 178 -110 l 1,3,-1
 22 -110 l 1,4,-1
 22 -59 l 1,5,-1
 123 -59 l 1,6,-1
 123 512 l 1,7,-1
 22 512 l 1,0,-1
EndSplineSet
EndChar

StartChar: asciicircum
Encoding: 94 94 65
Width: 415
GlyphClass: 2
Flags: W
LayerCount: 2
Back
Fore
SplineSet
360 295 m 1,0,-1
 302 295 l 1,1,-1
 212 473 l 1,2,-1
 120 295 l 1,3,-1
 62 295 l 1,4,-1
 186 554 l 1,5,-1
 237 554 l 1,6,-1
 360 295 l 1,0,-1
EndSplineSet
EndChar

StartChar: underscore
Encoding: 95 95 66
Width: 498
GlyphClass: 2
Flags: W
LayerCount: 2
Back
Fore
SplineSet
42 -61 m 1,0,-1
 456 -61 l 1,1,-1
 456 -106 l 1,2,-1
 42 -106 l 1,3,-1
 42 -61 l 1,0,-1
EndSplineSet
EndChar

StartChar: grave
Encoding: 96 96 67
Width: 282
GlyphClass: 2
Flags: W
LayerCount: 2
Back
Fore
SplineSet
217 473 m 1,0,-1
 166 473 l 1,1,-1
 77 560 l 1,2,-1
 166 560 l 1,3,-1
 217 473 l 1,0,-1
EndSplineSet
EndChar

StartChar: a
Encoding: 97 97 68
Width: 493
GlyphClass: 2
Flags: W
LayerCount: 2
Back
Fore
SplineSet
378 66 m 1,0,1
 328 -7 328 -7 229 -7 c 0,2,3
 139 -7 139 -7 83 56 c 0,4,5
 28 118 28 118 28 208 c 256,6,7
 28 298 28 298 83 359 c 0,8,9
 139 421 139 421 233 421.5 c 128,-1,10
 327 422 327 422 378 348 c 1,11,-1
 378 415 l 1,12,-1
 440 415 l 1,13,-1
 440 0 l 1,14,-1
 378 0 l 1,15,-1
 378 66 l 1,0,1
237 50 m 0,16,17
 304 50 304 50 344 96 c 0,18,19
 381 140 381 140 381 208 c 256,20,21
 381 275 381 275 344 319 c 0,22,23
 305 365 305 365 237 365 c 0,24,25
 171 365 171 365 129 319 c 0,26,27
 90 276 90 276 90 208 c 256,28,29
 90 141 90 141 129 96 c 0,30,31
 171 50 171 50 237 50 c 0,16,17
EndSplineSet
EndChar

StartChar: b
Encoding: 98 98 69
Width: 493
GlyphClass: 2
Flags: W
LayerCount: 2
Back
Fore
SplineSet
116 348 m 1,0,1
 167 422 167 422 265 422 c 0,2,3
 355 422 355 422 410 359 c 0,4,5
 466 298 466 298 466 208 c 256,6,7
 466 118 466 118 410 56 c 0,8,9
 354 -6 354 -6 260 -6.5 c 128,-1,10
 166 -7 166 -7 116 66 c 1,11,-1
 116 0 l 1,12,-1
 54 0 l 1,13,-1
 54 581 l 1,14,-1
 116 581 l 1,15,-1
 116 348 l 1,0,1
256 50 m 0,16,17
 322 50 322 50 364 96 c 0,18,19
 403 140 403 140 403 208 c 256,20,21
 403 275 403 275 364 319 c 0,22,23
 322 365 322 365 256 365 c 0,24,25
 189 365 189 365 150 319 c 0,26,27
 113 276 113 276 113 208 c 256,28,29
 113 141 113 141 150 96 c 0,30,31
 189 50 189 50 256 50 c 0,16,17
EndSplineSet
EndChar

StartChar: c
Encoding: 99 99 70
Width: 451
GlyphClass: 2
Flags: W
LayerCount: 2
Back
Fore
SplineSet
246 50 m 0,0,1
 286 50 286 50 316.5 72.5 c 128,-1,2
 347 95 347 95 361 130 c 1,3,-1
 428 130 l 1,4,5
 409 69 409 69 359 32 c 0,6,7
 306 -6 306 -6 232 -7 c 0,8,9
 141 -7 141 -7 84 56 c 0,10,11
 28 118 28 118 28 208 c 256,12,13
 28 299 28 299 84 359 c 0,14,15
 141 421 141 421 232 422 c 0,16,17
 305 422 305 422 359 383 c 0,18,19
 410 346 410 346 428 285 c 1,20,-1
 361 285 l 1,21,22
 347 321 347 321 316.5 343 c 128,-1,23
 286 365 286 365 246 365 c 128,-1,24
 206 365 206 365 178 352.5 c 128,-1,25
 150 340 150 340 131 319 c 0,26,27
 90 274 90 274 90 208 c 256,28,29
 90 142 90 142 131 96 c 0,30,31
 173 50 173 50 246 50 c 0,0,1
EndSplineSet
EndChar

StartChar: d
Encoding: 100 100 71
Width: 493
GlyphClass: 2
Flags: W
LayerCount: 2
Back
Fore
SplineSet
378 66 m 1,0,1
 328 -7 328 -7 229 -7 c 0,2,3
 139 -7 139 -7 83 56 c 0,4,5
 28 118 28 118 28 208 c 256,6,7
 28 298 28 298 83 359 c 0,8,9
 139 421 139 421 233 421.5 c 128,-1,10
 327 422 327 422 378 348 c 1,11,-1
 378 581 l 1,12,-1
 440 581 l 1,13,-1
 440 0 l 1,14,-1
 378 0 l 1,15,-1
 378 66 l 1,0,1
237 50 m 0,16,17
 304 50 304 50 344 96 c 0,18,19
 381 140 381 140 381 208 c 256,20,21
 381 275 381 275 344 319 c 0,22,23
 305 365 305 365 237 365 c 0,24,25
 171 365 171 365 129 319 c 0,26,27
 90 276 90 276 90 208 c 256,28,29
 90 141 90 141 129 96 c 0,30,31
 171 50 171 50 237 50 c 0,16,17
EndSplineSet
EndChar

StartChar: e
Encoding: 101 101 72
Width: 462
GlyphClass: 2
Flags: W
LayerCount: 2
Back
Fore
SplineSet
239 50 m 0,0,1
 323 50 323 50 359 120 c 1,2,-1
 427 120 l 1,3,4
 405 64 405 64 358.5 28.5 c 128,-1,5
 312 -7 312 -7 238 -7 c 0,6,7
 144 -7 144 -7 85 56 c 0,8,9
 28 118 28 118 28 208 c 0,10,11
 28 300 28 300 83 359 c 0,12,13
 141 421 141 421 234 422 c 256,14,15
 327 422 327 422 385 359 c 0,16,17
 440 300 440 300 440 208 c 2,18,-1
 440 183 l 1,19,-1
 92 183 l 1,20,21
 99 126 99 126 138 88 c 0,22,23
 178 50 178 50 239 50 c 0,0,1
234 365 m 256,24,25
 177 365 177 365 138 330 c 0,26,27
 101 296 101 296 93 241 c 1,28,-1
 375 241 l 1,29,30
 367 296 367 296 330 330 c 0,31,32
 291 365 291 365 234 365 c 256,24,25
EndSplineSet
EndChar

StartChar: f
Encoding: 102 102 73
Width: 254
GlyphClass: 2
Flags: W
LayerCount: 2
Back
Fore
SplineSet
232 529 m 2,0,1
 188 529 188 529 166 509.5 c 128,-1,2
 144 490 144 490 144 447 c 2,3,-1
 144 415 l 1,4,-1
 241 415 l 1,5,-1
 241 360 l 1,6,-1
 144 360 l 1,7,-1
 144 0 l 1,8,-1
 82 0 l 1,9,-1
 82 360 l 1,10,-1
 11 360 l 1,11,-1
 11 415 l 1,12,-1
 82 415 l 1,13,-1
 82 452 l 2,14,15
 82 520 82 520 123 554 c 128,-1,16
 164 588 164 588 236 588 c 2,17,-1
 241 588 l 1,18,-1
 241 529 l 1,19,-1
 232 529 l 2,0,1
EndSplineSet
EndChar

StartChar: g
Encoding: 103 103 74
Width: 493
GlyphClass: 2
Flags: W
LayerCount: 2
Back
Fore
SplineSet
378 349 m 1,0,-1
 378 415 l 1,1,-1
 440 415 l 1,2,-1
 440 12 l 2,3,4
 440 -78 440 -78 389 -124.5 c 128,-1,5
 338 -171 338 -171 251.5 -171 c 128,-1,6
 165 -171 165 -171 116.5 -138 c 128,-1,7
 68 -105 68 -105 51 -50 c 1,8,-1
 120 -50 l 1,9,10
 147 -115 147 -115 241 -115 c 0,11,12
 313 -115 313 -115 345.5 -81.5 c 128,-1,13
 378 -48 378 -48 378 17 c 2,14,-1
 378 74 l 1,15,16
 327 0 327 0 229 0 c 0,17,18
 139 0 139 0 83 61 c 0,19,20
 28 121 28 121 28 211 c 256,21,22
 28 301 28 301 83 360 c 0,23,24
 139 421 139 421 233.5 421.5 c 128,-1,25
 328 422 328 422 378 349 c 1,0,-1
237 56 m 0,26,27
 271 56 271 56 298 68.5 c 128,-1,28
 325 81 325 81 344 101 c 0,29,30
 381 144 381 144 381 211 c 256,31,32
 381 277 381 277 344 320 c 0,33,34
 303 365 303 365 237 365 c 0,35,36
 170 365 170 365 129 320 c 0,37,38
 90 276 90 276 90 211 c 256,39,40
 90 145 90 145 129 101 c 0,41,42
 170 56 170 56 237 56 c 0,26,27
EndSplineSet
EndChar

StartChar: h
Encoding: 104 104 75
Width: 469
GlyphClass: 2
Flags: W
LayerCount: 2
Back
Fore
SplineSet
116 581 m 1,0,-1
 116 350 l 1,1,2
 138 380 138 380 170.5 401 c 128,-1,3
 203 422 203 422 244.5 422 c 128,-1,4
 286 422 286 422 316 410 c 128,-1,5
 346 398 346 398 369 375 c 0,6,7
 420 324 420 324 420 242 c 2,8,-1
 420 0 l 1,9,-1
 358 0 l 1,10,-1
 358 240 l 2,11,12
 358 297 358 297 325.5 331 c 128,-1,13
 293 365 293 365 242 365 c 0,14,15
 190 365 190 365 153 330 c 0,16,17
 116 294 116 294 116 239 c 2,18,-1
 116 0 l 1,19,-1
 54 0 l 1,20,-1
 54 581 l 1,21,-1
 116 581 l 1,0,-1
EndSplineSet
EndChar

StartChar: i
Encoding: 105 105 76
Width: 170
GlyphClass: 2
Flags: W
LayerCount: 2
Back
Fore
SplineSet
54 415 m 1,0,-1
 116 415 l 1,1,-1
 116 0 l 1,2,-1
 54 0 l 1,3,-1
 54 415 l 1,0,-1
119 566 m 1,4,-1
 119 485 l 1,5,-1
 51 485 l 1,6,-1
 51 566 l 1,7,-1
 119 566 l 1,4,-1
EndSplineSet
EndChar

StartChar: j
Encoding: 106 106 77
Width: 170
GlyphClass: 2
Flags: W
LayerCount: 2
Back
Fore
SplineSet
54 415 m 1,0,-1
 116 415 l 1,1,-1
 116 -164 l 1,2,-1
 54 -164 l 1,3,-1
 54 415 l 1,0,-1
119 566 m 1,4,-1
 119 485 l 1,5,-1
 51 485 l 1,6,-1
 51 566 l 1,7,-1
 119 566 l 1,4,-1
EndSplineSet
EndChar

StartChar: k
Encoding: 107 107 78
Width: 416
GlyphClass: 2
Flags: W
LayerCount: 2
Back
Fore
SplineSet
237 251 m 1,0,-1
 416 0 l 1,1,-1
 339 0 l 1,2,-1
 194 208 l 1,3,-1
 116 131 l 1,4,-1
 116 0 l 1,5,-1
 54 0 l 1,6,-1
 54 581 l 1,7,-1
 116 581 l 1,8,-1
 116 209 l 1,9,-1
 316 415 l 1,10,-1
 403 415 l 1,11,-1
 237 251 l 1,0,-1
EndSplineSet
EndChar

StartChar: l
Encoding: 108 108 79
Width: 170
GlyphClass: 2
Flags: W
LayerCount: 2
Back
Fore
SplineSet
116 0 m 1,0,-1
 54 0 l 1,1,-1
 54 581 l 1,2,-1
 116 581 l 1,3,-1
 116 0 l 1,0,-1
EndSplineSet
EndChar

StartChar: m
Encoding: 109 109 80
Width: 720
GlyphClass: 2
Flags: W
LayerCount: 2
Back
Fore
SplineSet
116 352 m 1,0,1
 158 422 158 422 242 422 c 0,2,3
 284 422 284 422 319 400 c 128,-1,4
 354 378 354 378 374 338 c 1,5,6
 402 390 402 390 462 413 c 0,7,8
 486 422 486 422 516.5 422 c 128,-1,9
 547 422 547 422 575 410 c 128,-1,10
 603 398 603 398 624 375 c 0,11,12
 670 325 670 325 671 251 c 2,13,-1
 671 0 l 1,14,-1
 608 0 l 1,15,-1
 608 249 l 2,16,17
 608 300 608 300 579 334 c 0,18,19
 550 366 550 366 505 365 c 0,20,21
 458 365 458 365 427 334 c 0,22,23
 394 302 394 302 393 248 c 2,24,-1
 393 0 l 1,25,-1
 331 0 l 1,26,-1
 331 249 l 2,27,28
 331 300 331 300 302 334 c 0,29,30
 273 366 273 366 228 365 c 0,31,32
 181 365 181 365 149 334 c 0,33,34
 116 302 116 302 116 248 c 2,35,-1
 116 0 l 1,36,-1
 54 0 l 1,37,-1
 54 415 l 1,38,-1
 116 415 l 1,39,-1
 116 352 l 1,0,1
EndSplineSet
EndChar

StartChar: n
Encoding: 110 110 81
Width: 469
GlyphClass: 2
Flags: W
LayerCount: 2
Back
Fore
SplineSet
116 415 m 1,0,-1
 116 350 l 1,1,2
 138 380 138 380 170.5 401 c 128,-1,3
 203 422 203 422 244.5 422 c 128,-1,4
 286 422 286 422 316 410 c 128,-1,5
 346 398 346 398 369 375 c 0,6,7
 420 324 420 324 420 242 c 2,8,-1
 420 0 l 1,9,-1
 358 0 l 1,10,-1
 358 240 l 2,11,12
 358 297 358 297 325.5 331 c 128,-1,13
 293 365 293 365 242 365 c 0,14,15
 190 365 190 365 153 330 c 0,16,17
 116 294 116 294 116 239 c 2,18,-1
 116 0 l 1,19,-1
 54 0 l 1,20,-1
 54 415 l 1,21,-1
 116 415 l 1,0,-1
EndSplineSet
EndChar

StartChar: o
Encoding: 111 111 82
Width: 468
GlyphClass: 2
Flags: W
LayerCount: 2
Back
Fore
SplineSet
234 422 m 256,0,1
 327 422 327 422 385 359 c 0,2,3
 440 300 440 300 440 208 c 256,4,5
 440 116 440 116 385 56 c 0,6,7
 327 -6 327 -6 234 -7 c 256,8,9
 141 -7 141 -7 83 56 c 0,10,11
 28 116 28 116 28 208 c 256,12,13
 28 300 28 300 83 359 c 0,14,15
 141 422 141 422 234 422 c 256,0,1
234 50 m 256,16,17
 301 50 301 50 340 96 c 0,18,19
 377 140 377 140 378 208 c 256,20,21
 378 275 378 275 340 319 c 0,22,23
 301 365 301 365 234 365 c 256,24,25
 167 365 167 365 128 319 c 0,26,27
 91 276 91 276 90 208 c 256,28,29
 90 141 90 141 128 96 c 0,30,31
 167 50 167 50 234 50 c 256,16,17
EndSplineSet
EndChar

StartChar: p
Encoding: 112 112 83
Width: 493
GlyphClass: 2
Flags: W
LayerCount: 2
Back
Fore
SplineSet
116 349 m 1,0,1
 166 422 166 422 265 422 c 0,2,3
 355 422 355 422 410 359 c 0,4,5
 466 298 466 298 466 208 c 256,6,7
 466 118 466 118 410 56 c 0,8,9
 354 -6 354 -6 260.5 -6.5 c 128,-1,10
 167 -7 167 -7 116 67 c 1,11,-1
 116 -164 l 1,12,-1
 54 -164 l 1,13,-1
 54 415 l 1,14,-1
 116 415 l 1,15,-1
 116 349 l 1,0,1
256 365 m 0,16,17
 189 365 189 365 150 319 c 0,18,19
 113 276 113 276 113 208 c 256,20,21
 113 141 113 141 150 96 c 0,22,23
 189 50 189 50 256 50 c 0,24,25
 322 50 322 50 364 96 c 0,26,27
 403 140 403 140 403 208 c 256,28,29
 403 275 403 275 364 319 c 0,30,31
 322 365 322 365 256 365 c 0,16,17
EndSplineSet
EndChar

StartChar: q
Encoding: 113 113 84
Width: 493
GlyphClass: 2
Flags: W
LayerCount: 2
Back
Fore
SplineSet
378 67 m 1,0,1
 327 -7 327 -7 229 -7 c 0,2,3
 139 -7 139 -7 83 56 c 0,4,5
 28 118 28 118 28 208 c 256,6,7
 28 298 28 298 83 359 c 0,8,9
 139 421 139 421 233.5 421.5 c 128,-1,10
 328 422 328 422 378 349 c 1,11,-1
 378 415 l 1,12,-1
 440 415 l 1,13,-1
 440 -164 l 1,14,-1
 378 -164 l 1,15,-1
 378 67 l 1,0,1
237 365 m 0,16,17
 171 365 171 365 129 319 c 0,18,19
 90 276 90 276 90 208 c 256,20,21
 90 141 90 141 129 96 c 0,22,23
 171 50 171 50 237 50 c 0,24,25
 304 50 304 50 344 96 c 0,26,27
 381 140 381 140 381 208 c 256,28,29
 381 275 381 275 344 319 c 0,30,31
 304 365 304 365 237 365 c 0,16,17
EndSplineSet
EndChar

StartChar: r
Encoding: 114 114 85
Width: 286
GlyphClass: 2
Flags: W
LayerCount: 2
Back
Fore
SplineSet
273 422 m 1,0,-1
 273 359 l 1,1,-1
 266 359 l 2,2,3
 199 359 199 359 156 305 c 0,4,5
 116 254 116 254 116 183 c 2,6,-1
 116 0 l 1,7,-1
 54 0 l 1,8,-1
 54 415 l 1,9,-1
 116 415 l 1,10,-1
 116 313 l 1,11,12
 136 378 136 378 203 408 c 0,13,14
 230 421 230 421 269 422 c 2,15,-1
 273 422 l 1,0,-1
EndSplineSet
EndChar

StartChar: s
Encoding: 115 115 86
Width: 400
GlyphClass: 2
Flags: W
LayerCount: 2
Back
Fore
SplineSet
298 304 m 1,0,1
 290 369 290 369 194 369 c 128,-1,2
 98 369 98 369 98 309 c 0,3,4
 98 284 98 284 118.5 271 c 128,-1,5
 139 258 139 258 169.5 250 c 128,-1,6
 200 242 200 242 236 234.5 c 128,-1,7
 272 227 272 227 303 214.5 c 128,-1,8
 334 202 334 202 354 179.5 c 128,-1,9
 374 157 374 157 374 118 c 0,10,11
 374 57 374 57 328.5 25 c 128,-1,12
 283 -7 283 -7 205 -7 c 0,13,14
 122 -7 122 -7 73 35 c 0,15,16
 28 72 28 72 25 130 c 1,17,-1
 90 130 l 1,18,19
 96 73 96 73 154 53 c 0,20,21
 176 46 176 46 197 46 c 128,-1,22
 218 46 218 46 236.5 48.5 c 128,-1,23
 255 51 255 51 272 58 c 0,24,25
 312 74 312 74 312 112 c 0,26,27
 312 138 312 138 291.5 151.5 c 128,-1,28
 271 165 271 165 240.5 174 c 128,-1,29
 210 183 210 183 174 190 c 128,-1,30
 138 197 138 197 107 209.5 c 128,-1,31
 76 222 76 222 56 243.5 c 128,-1,32
 36 265 36 265 36 303 c 0,33,34
 36 359 36 359 77 390.5 c 128,-1,35
 118 422 118 422 198 422 c 0,36,37
 274 422 274 422 319 385 c 0,38,39
 356 354 356 354 361 304 c 1,40,-1
 298 304 l 1,0,1
EndSplineSet
EndChar

StartChar: t
Encoding: 116 116 87
Width: 270
GlyphClass: 2
Flags: W
LayerCount: 2
Back
Fore
SplineSet
99 0 m 1,0,-1
 99 360 l 1,1,-1
 14 360 l 1,2,-1
 14 415 l 1,3,-1
 99 415 l 1,4,-1
 99 564 l 1,5,-1
 161 564 l 1,6,-1
 161 415 l 1,7,-1
 256 415 l 1,8,-1
 256 360 l 1,9,-1
 161 360 l 1,10,-1
 161 0 l 1,11,-1
 99 0 l 1,0,-1
EndSplineSet
EndChar

StartChar: u
Encoding: 117 117 88
Width: 469
GlyphClass: 2
Flags: W
LayerCount: 2
Back
Fore
SplineSet
354 0 m 1,0,-1
 354 65 l 1,1,2
 332 35 332 35 299 14 c 128,-1,3
 266 -7 266 -7 224.5 -7 c 128,-1,4
 183 -7 183 -7 153.5 5 c 128,-1,5
 124 17 124 17 101 40 c 0,6,7
 50 91 50 91 50 173 c 2,8,-1
 50 415 l 1,9,-1
 112 415 l 1,10,-1
 112 175 l 2,11,12
 112 118 112 118 144.5 84 c 128,-1,13
 177 50 177 50 228 50 c 0,14,15
 280 50 280 50 317 85 c 0,16,17
 354 121 354 121 354 176 c 2,18,-1
 354 415 l 1,19,-1
 416 415 l 1,20,-1
 416 0 l 1,21,-1
 354 0 l 1,0,-1
EndSplineSet
EndChar

StartChar: v
Encoding: 118 118 89
Width: 405
GlyphClass: 2
Flags: W
LayerCount: 2
Back
Fore
SplineSet
402 415 m 1,0,-1
 240 0 l 1,1,-1
 167 0 l 1,2,-1
 4 415 l 1,3,-1
 72 415 l 1,4,-1
 203 66 l 1,5,-1
 334 415 l 1,6,-1
 402 415 l 1,0,-1
EndSplineSet
EndChar

StartChar: w
Encoding: 119 119 90
Width: 625
GlyphClass: 2
Flags: W
LayerCount: 2
Back
Fore
SplineSet
313 331 m 1,0,-1
 209 0 l 1,1,-1
 138 0 l 1,2,-1
 7 415 l 1,3,-1
 74 415 l 1,4,-1
 173 77 l 1,5,-1
 279 415 l 1,6,-1
 347 415 l 1,7,-1
 452 77 l 1,8,-1
 552 415 l 1,9,-1
 618 415 l 1,10,-1
 488 0 l 1,11,-1
 417 0 l 1,12,-1
 313 331 l 1,0,-1
EndSplineSet
EndChar

StartChar: x
Encoding: 120 120 91
Width: 400
GlyphClass: 2
Flags: W
LayerCount: 2
Back
Fore
SplineSet
236 214 m 1,0,-1
 397 0 l 1,1,-1
 317 0 l 1,2,-1
 200 169 l 1,3,-1
 82 0 l 1,4,-1
 3 0 l 1,5,-1
 164 214 l 1,6,-1
 13 415 l 1,7,-1
 93 415 l 1,8,-1
 200 258 l 1,9,-1
 306 415 l 1,10,-1
 386 415 l 1,11,-1
 236 214 l 1,0,-1
EndSplineSet
EndChar

StartChar: y
Encoding: 121 121 92
Width: 412
GlyphClass: 2
Flags: W
LayerCount: 2
Back
Fore
SplineSet
164 -164 m 1,0,-1
 97 -164 l 1,1,-1
 173 6 l 1,2,-1
 3 415 l 1,3,-1
 72 415 l 1,4,-1
 206 75 l 1,5,-1
 342 415 l 1,6,-1
 410 415 l 1,7,-1
 164 -164 l 1,0,-1
EndSplineSet
EndChar

StartChar: z
Encoding: 122 122 93
Width: 380
GlyphClass: 2
Flags: W
LayerCount: 2
Back
Fore
SplineSet
104 58 m 1,0,-1
 353 58 l 1,1,-1
 353 0 l 1,2,-1
 26 0 l 1,3,-1
 26 59 l 1,4,-1
 274 358 l 1,5,-1
 29 358 l 1,6,-1
 29 415 l 1,7,-1
 353 415 l 1,8,-1
 353 357 l 1,9,-1
 104 58 l 1,0,-1
EndSplineSet
EndChar

StartChar: braceleft
Encoding: 123 123 94
Width: 244
GlyphClass: 2
Flags: W
LayerCount: 2
Back
Fore
SplineSet
80 227 m 1,0,1
 138 198 138 198 138 120 c 2,2,-1
 138 10 l 2,3,4
 138 -33 138 -33 155.5 -49.5 c 128,-1,5
 173 -66 173 -66 223 -66 c 1,6,-1
 223 -110 l 1,7,8
 193 -110 193 -110 168 -107.5 c 128,-1,9
 143 -105 143 -105 124 -93 c 0,10,11
 83 -67 83 -67 83 9 c 2,12,-1
 83 129 l 2,13,14
 83 167 83 167 60 189 c 0,15,16
 41 208 41 208 17 208 c 1,17,-1
 17 246 l 1,18,19
 40 246 40 246 55 260 c 0,20,21
 83 287 83 287 83 325 c 2,22,-1
 83 444 l 2,23,24
 83 551 83 551 168 561 c 0,25,26
 194 563 194 563 223 564 c 1,27,-1
 223 519 l 1,28,29
 173 519 173 519 155.5 502.5 c 128,-1,30
 138 486 138 486 138 443 c 2,31,-1
 138 334 l 2,32,33
 138 288 138 288 120.5 263 c 128,-1,34
 103 238 103 238 80 227 c 1,0,1
EndSplineSet
EndChar

StartChar: bar
Encoding: 124 124 95
Width: 158
GlyphClass: 2
Flags: W
LayerCount: 2
Back
Fore
SplineSet
54 -149 m 1,0,-1
 54 621 l 1,1,-1
 105 621 l 1,2,-1
 105 -149 l 1,3,-1
 54 -149 l 1,0,-1
EndSplineSet
EndChar

StartChar: braceright
Encoding: 125 125 96
Width: 244
GlyphClass: 2
Flags: W
LayerCount: 2
Back
Fore
SplineSet
106 120 m 2,0,1
 106 198 106 198 164 227 c 1,2,3
 141 238 141 238 123.5 262.5 c 128,-1,4
 106 287 106 287 106 334 c 2,5,-1
 106 443 l 2,6,7
 106 486 106 486 88.5 502.5 c 128,-1,8
 71 519 71 519 21 519 c 1,9,-1
 21 564 l 1,10,11
 51 564 51 564 76 561 c 128,-1,12
 101 558 101 558 120 546 c 0,13,14
 161 520 161 520 161 444 c 2,15,-1
 161 325 l 2,16,17
 161 287 161 287 184 264 c 0,18,19
 203 246 203 246 227 246 c 1,20,-1
 227 208 l 1,21,22
 204 208 204 208 189 193 c 0,23,24
 161 166 161 166 161 129 c 2,25,-1
 161 9 l 2,26,27
 161 -98 161 -98 76 -108 c 0,28,29
 50 -110 50 -110 21 -110 c 1,30,-1
 21 -66 l 1,31,32
 71 -66 71 -66 88.5 -49.5 c 128,-1,33
 106 -33 106 -33 106 10 c 2,34,-1
 106 120 l 2,0,1
EndSplineSet
EndChar

StartChar: asciitilde
Encoding: 126 126 97
Width: 434
GlyphClass: 2
Flags: W
LayerCount: 2
Back
Fore
SplineSet
40 178 m 1,0,1
 52 289 52 289 133 290 c 0,2,3
 164 290 164 290 207.5 272.5 c 128,-1,4
 251 255 251 255 272.5 247 c 128,-1,5
 294 239 294 239 310 239 c 128,-1,6
 326 239 326 239 337.5 246.5 c 128,-1,7
 349 254 349 254 356 264 c 128,-1,8
 363 274 363 274 366 284 c 128,-1,9
 369 294 369 294 370 299 c 1,10,-1
 397 299 l 1,11,12
 389 252 389 252 377 231.5 c 128,-1,13
 365 211 365 211 348.5 199.5 c 128,-1,14
 332 188 332 188 307.5 188 c 128,-1,15
 283 188 283 188 258 195.5 c 128,-1,16
 233 203 233 203 209 212.5 c 128,-1,17
 185 222 185 222 164 229.5 c 128,-1,18
 143 237 143 237 126.5 237 c 128,-1,19
 110 237 110 237 98 230 c 128,-1,20
 86 223 86 223 79.5 213 c 128,-1,21
 73 203 73 203 70 193 c 128,-1,22
 67 183 67 183 66 178 c 1,23,-1
 40 178 l 1,0,1
EndSplineSet
EndChar

StartChar: cent
Encoding: 162 162 98
Width: 451
GlyphClass: 2
Flags: W
LayerCount: 2
Back
Fore
SplineSet
208 492 m 5
 256 492 l 1
 256 -54 l 1
 208 -54 l 1
 208 492 l 5
246 50 m 0,0,1
 286 50 286 50 316.5 72.5 c 128,-1,2
 347 95 347 95 361 130 c 1,3,-1
 428 130 l 1,4,5
 409 69 409 69 359 32 c 0,6,7
 306 -6 306 -6 232 -7 c 0,8,9
 141 -7 141 -7 84 56 c 0,10,11
 28 118 28 118 28 208 c 256,12,13
 28 299 28 299 84 359 c 0,14,15
 141 421 141 421 232 422 c 0,16,17
 305 422 305 422 359 383 c 0,18,19
 410 346 410 346 428 285 c 1,20,-1
 361 285 l 1,21,22
 347 321 347 321 316.5 343 c 128,-1,23
 286 365 286 365 246 365 c 128,-1,24
 206 365 206 365 178 352.5 c 128,-1,25
 150 340 150 340 131 319 c 0,26,27
 90 274 90 274 90 208 c 256,28,29
 90 142 90 142 131 96 c 0,30,31
 173 50 173 50 246 50 c 0,0,1
EndSplineSet
EndChar

StartChar: copyright
Encoding: 169 169 99
Width: 646
GlyphClass: 2
Flags: W
LayerCount: 2
Back
Fore
SplineSet
387.5 365.5 m 128,-1,1
 364 383 364 383 321.5 383 c 128,-1,2
 279 383 279 383 251.5 352.5 c 128,-1,3
 224 322 224 322 224 273 c 256,4,5
 224 224 224 224 251.5 194 c 128,-1,6
 279 164 279 164 321.5 164 c 128,-1,7
 364 164 364 164 387.5 181 c 128,-1,8
 411 198 411 198 417 229 c 1,9,-1
 472 229 l 1,10,11
 462 171 462 171 422 139 c 0,12,13
 384 110 384 110 323 110 c 0,14,15
 251 110 251 110 209 156 c 0,16,17
 167 202 167 202 168 273 c 0,18,19
 168 344 168 344 209 389 c 0,20,21
 251 435 251 435 323 435 c 0,22,23
 414 435 414 435 454 369 c 0,24,25
 467 347 467 347 472 317 c 1,26,-1
 417 317 l 1,27,0
 411 348 411 348 387.5 365.5 c 128,-1,1
323 558 m 256,28,29
 382 558 382 558 434 535.5 c 128,-1,30
 486 513 486 513 524.5 474.5 c 128,-1,31
 563 436 563 436 585.5 384 c 128,-1,32
 608 332 608 332 608 273 c 256,33,34
 608 214 608 214 585.5 162.5 c 128,-1,35
 563 111 563 111 524.5 72.5 c 128,-1,36
 486 34 486 34 434 11.5 c 128,-1,37
 382 -11 382 -11 323 -11 c 256,38,39
 264 -11 264 -11 212.5 11.5 c 128,-1,40
 161 34 161 34 122.5 72.5 c 128,-1,41
 84 111 84 111 61.5 162.5 c 128,-1,42
 39 214 39 214 39 273 c 256,43,44
 39 332 39 332 61.5 384 c 128,-1,45
 84 436 84 436 122.5 474.5 c 128,-1,46
 161 513 161 513 212.5 535.5 c 128,-1,47
 264 558 264 558 323 558 c 256,28,29
323 30 m 0,48,49
 424 30 424 30 496 101 c 0,50,51
 529 134 529 134 548 178.5 c 128,-1,52
 567 223 567 223 567 273.5 c 128,-1,53
 567 324 567 324 548 368.5 c 128,-1,54
 529 413 529 413 496 446 c 0,55,56
 425 517 425 517 323 517 c 0,57,58
 221 517 221 517 151 446 c 0,59,60
 80 374 80 374 80 273 c 0,61,62
 80 223 80 223 99 178.5 c 128,-1,63
 118 134 118 134 151 101 c 0,64,65
 221 30 221 30 323 30 c 0,48,49
EndSplineSet
Substitution2: "Single Substitution lookup 23 subtable" copyright
Ligature2: "'abvs' Above Base Substitutions in Telugu lookup 4 subtable" U0C15_U0C4D_U0C37 U0C42
EndChar

StartChar: registered
Encoding: 174 174 100
Width: 646
GlyphClass: 2
Flags: W
LayerCount: 2
Back
SplineSet
387.5 365.5 m 128,-1,1
 364 383 364 383 321.5 383 c 128,-1,2
 279 383 279 383 251.5 352.5 c 128,-1,3
 224 322 224 322 224 273 c 256,4,5
 224 224 224 224 251.5 194 c 128,-1,6
 279 164 279 164 321.5 164 c 128,-1,7
 364 164 364 164 387.5 181 c 128,-1,8
 411 198 411 198 417 229 c 1,9,-1
 472 229 l 1,10,11
 462 171 462 171 422 139 c 0,12,13
 384 110 384 110 323 110 c 0,14,15
 251 110 251 110 209 156 c 128,-1,16
 167 202 167 202 168 273 c 0,17,18
 168 344 168 344 209 389 c 0,19,20
 251 435 251 435 323 435 c 0,21,22
 414 435 414 435 454 369 c 0,23,24
 467 347 467 347 472 317 c 1,25,-1
 417 317 l 1,26,0
 411 348 411 348 387.5 365.5 c 128,-1,1
323 558 m 256,27,28
 382 558 382 558 434 535.5 c 128,-1,29
 486 513 486 513 524.5 474.5 c 128,-1,30
 563 436 563 436 585.5 384 c 128,-1,31
 608 332 608 332 608 273 c 256,32,33
 608 214 608 214 585.5 162.5 c 128,-1,34
 563 111 563 111 524.5 72.5 c 128,-1,35
 486 34 486 34 434 11.5 c 128,-1,36
 382 -11 382 -11 323 -11 c 256,37,38
 264 -11 264 -11 212.5 11.5 c 128,-1,39
 161 34 161 34 122.5 72.5 c 128,-1,40
 84 111 84 111 61.5 162.5 c 128,-1,41
 39 214 39 214 39 273 c 256,42,43
 39 332 39 332 61.5 384 c 128,-1,44
 84 436 84 436 122.5 474.5 c 128,-1,45
 161 513 161 513 212.5 535.5 c 128,-1,46
 264 558 264 558 323 558 c 256,27,28
323 30 m 0,47,48
 424 30 424 30 496 101 c 0,49,50
 529 134 529 134 548 178.5 c 128,-1,51
 567 223 567 223 567 273.5 c 128,-1,52
 567 324 567 324 548 368.5 c 128,-1,53
 529 413 529 413 496 446 c 0,54,55
 425 517 425 517 323 517 c 128,-1,56
 221 517 221 517 151 446 c 0,57,58
 80 374 80 374 80 273 c 0,59,60
 80 223 80 223 99 178.5 c 128,-1,61
 118 134 118 134 151 101 c 0,62,63
 221 30 221 30 323 30 c 0,47,48
EndSplineSet
Fore
SplineSet
463 338 m 0,0,1
 463 310 463 310 446.5 288 c 128,-1,2
 430 266 430 266 401 256 c 1,3,4
 446 243 446 243 456 182 c 0,5,6
 458 166 458 166 459 154 c 2,7,-1
 459 115 l 1,8,-1
 402 115 l 1,9,-1
 402 146 l 2,10,11
 402 182 402 182 394 198 c 0,12,13
 378 231 378 231 338 231 c 2,14,-1
 257 231 l 1,15,-1
 257 115 l 1,16,-1
 199 115 l 1,17,-1
 199 432 l 1,18,-1
 334 432 l 2,19,20
 401 432 401 432 432 406 c 128,-1,21
 463 380 463 380 463 338 c 0,0,1
330 281 m 2,22,23
 365 281 365 281 385.5 294 c 128,-1,24
 406 307 406 307 406 331 c 128,-1,25
 406 355 406 355 389.5 369 c 128,-1,26
 373 383 373 383 328 383 c 2,27,-1
 257 383 l 1,28,-1
 257 281 l 1,29,-1
 330 281 l 2,22,23
323 558 m 256,30,31
 382 558 382 558 434 535.5 c 128,-1,32
 486 513 486 513 524.5 474.5 c 128,-1,33
 563 436 563 436 585.5 384 c 128,-1,34
 608 332 608 332 608 273 c 256,35,36
 608 214 608 214 585.5 162.5 c 128,-1,37
 563 111 563 111 524.5 72.5 c 128,-1,38
 486 34 486 34 434 11.5 c 128,-1,39
 382 -11 382 -11 323 -11 c 256,40,41
 264 -11 264 -11 212.5 11.5 c 128,-1,42
 161 34 161 34 122.5 72.5 c 128,-1,43
 84 111 84 111 61.5 162.5 c 128,-1,44
 39 214 39 214 39 273 c 256,45,46
 39 332 39 332 61.5 384 c 128,-1,47
 84 436 84 436 122.5 474.5 c 128,-1,48
 161 513 161 513 212.5 535.5 c 128,-1,49
 264 558 264 558 323 558 c 256,30,31
323 30 m 0,50,51
 424 30 424 30 496 101 c 0,52,53
 529 134 529 134 548 178.5 c 128,-1,54
 567 223 567 223 567 273.5 c 128,-1,55
 567 324 567 324 548 368.5 c 128,-1,56
 529 413 529 413 496 446 c 0,57,58
 425 517 425 517 323 517 c 0,59,60
 221 517 221 517 151 446 c 0,61,62
 80 374 80 374 80 273 c 0,63,64
 80 223 80 223 99 178.5 c 128,-1,65
 118 134 118 134 151 101 c 0,66,67
 221 30 221 30 323 30 c 0,50,51
EndSplineSet
LCarets2: 1 0 
Ligature2: "'blws' Below Base Substitutions in Telugu lookup 7 subtable" U2022 U0C30_U0C4D
EndChar

StartChar: onequarter
Encoding: 188 188 101
Width: 591
GlyphClass: 2
Flags: W
LayerCount: 2
Back
Fore
SplineSet
556 114 m 1,0,-1
 556 73 l 1,1,-1
 518 73 l 1,2,-1
 518 0 l 1,3,-1
 472 0 l 1,4,-1
 472 73 l 1,5,-1
 335 73 l 1,6,-1
 335 114 l 1,7,-1
 459 300 l 1,8,-1
 518 300 l 1,9,-1
 518 114 l 1,10,-1
 556 114 l 1,0,-1
472 250 m 1,11,-1
 382 114 l 1,12,-1
 472 114 l 1,13,-1
 472 250 l 1,11,-1
139 549 m 1,14,-1
 139 250 l 1,15,-1
 93 250 l 1,16,-1
 93 506 l 1,17,-1
 32 506 l 1,18,-1
 32 549 l 1,19,-1
 139 549 l 1,14,-1
81 -12 m 1,20,-1
 430 559 l 1,21,-1
 483 559 l 1,22,-1
 134 -12 l 1,23,-1
 81 -12 l 1,20,-1
EndSplineSet
EndChar

StartChar: onehalf
Encoding: 189 189 102
Width: 625
GlyphClass: 2
Flags: W
LayerCount: 2
Back
Fore
SplineSet
585 213 m 4,0,1
 585 156 585 156 518 112 c 4,2,3
 500 100 500 100 483 89 c 4,4,5
 441 62 441 62 431 44 c 5,6,-1
 585 44 l 5,7,-1
 585 1 l 5,8,-1
 378 1 l 5,9,-1
 378 25 l 6,10,11
 378 75 378 75 459 126 c 4,12,13
 507 157 507 157 523 176 c 132,-1,14
 539 195 539 195 539 215 c 132,-1,15
 539 235 539 235 523.5 247.5 c 132,-1,16
 508 260 508 260 483 260 c 132,-1,17
 458 260 458 260 441 244.5 c 132,-1,18
 424 229 424 229 420 207 c 5,19,-1
 373 207 l 5,20,21
 379 249 379 249 408.5 276.5 c 132,-1,22
 438 304 438 304 484 304 c 132,-1,23
 530 304 530 304 557.5 278 c 132,-1,24
 585 252 585 252 585 213 c 4,0,1
81 -12 m 5,25,-1
 430 559 l 5,26,-1
 483 559 l 5,27,-1
 134 -12 l 5,28,-1
 81 -12 l 5,25,-1
139 549 m 5,29,-1
 139 250 l 5,30,-1
 93 250 l 5,31,-1
 93 506 l 5,32,-1
 33 506 l 5,33,-1
 33 549 l 5,34,-1
 139 549 l 5,29,-1
EndSplineSet
EndChar

StartChar: threequarters
Encoding: 190 190 103
Width: 651
GlyphClass: 2
Flags: W
LayerCount: 2
Back
Fore
SplineSet
618 114 m 1,0,-1
 618 73 l 1,1,-1
 579 73 l 1,2,-1
 579 0 l 1,3,-1
 534 0 l 1,4,-1
 534 73 l 1,5,-1
 397 73 l 1,6,-1
 397 114 l 1,7,-1
 520 300 l 1,8,-1
 579 300 l 1,9,-1
 579 114 l 1,10,-1
 618 114 l 1,0,-1
534 250 m 1,11,-1
 443 114 l 1,12,-1
 534 114 l 1,13,-1
 534 250 l 1,11,-1
143 -12 m 1,14,-1
 491 559 l 1,15,-1
 544 559 l 1,16,-1
 196 -12 l 1,17,-1
 143 -12 l 1,14,-1
198 408 m 1,18,19
 225 396 225 396 237 378.5 c 128,-1,20
 249 361 249 361 249 336 c 128,-1,21
 249 311 249 311 240.5 295.5 c 128,-1,22
 232 280 232 280 217 269 c 0,23,24
 187 246 187 246 145 246 c 0,25,26
 102 246 102 246 71 272 c 0,27,28
 39 299 39 299 36 338 c 1,29,-1
 81 338 l 1,30,31
 85 318 85 318 103 303 c 128,-1,32
 121 288 121 288 147 288 c 128,-1,33
 173 288 173 288 188 303 c 128,-1,34
 203 318 203 318 203 337 c 256,35,36
 203 356 203 356 189.5 372 c 128,-1,37
 176 388 176 388 148 388 c 2,38,-1
 109 388 l 1,39,-1
 109 427 l 1,40,-1
 144 427 l 2,41,42
 164 427 164 427 179 438.5 c 128,-1,43
 194 450 194 450 194 468 c 128,-1,44
 194 486 194 486 181 498 c 128,-1,45
 168 510 168 510 144 510 c 128,-1,46
 120 510 120 510 105.5 497 c 128,-1,47
 91 484 91 484 88 467 c 1,48,-1
 43 467 l 1,49,50
 46 501 46 501 72 526 c 0,51,52
 100 553 100 553 142 553 c 128,-1,53
 184 553 184 553 212 533.5 c 128,-1,54
 240 514 240 514 240 480 c 0,55,56
 240 428 240 428 198 408 c 1,18,19
EndSplineSet
EndChar

StartChar: multiply
Encoding: 215 215 104
Width: 487
GlyphClass: 2
Flags: W
LayerCount: 2
Back
Fore
SplineSet
279.5 214 m 1,0,-1
 440.5 0 l 1,1,-1
 360.5 0 l 1,2,-1
 243.5 169 l 1,3,-1
 125.5 0 l 1,4,-1
 46.5 0 l 1,5,-1
 207.5 214 l 1,6,-1
 56.5 415 l 1,7,-1
 136.5 415 l 1,8,-1
 243.5 258 l 1,9,-1
 349.5 415 l 1,10,-1
 429.5 415 l 1,11,-1
 279.5 214 l 1,0,-1
EndSplineSet
EndChar

StartChar: divide
Encoding: 247 247 105
Width: 481
GlyphClass: 2
Flags: W
LayerCount: 2
Back
Fore
SplineSet
282.5 406 m 128,-1,1
 300 389 300 389 300 362 c 128,-1,2
 300 335 300 335 279.5 315 c 128,-1,3
 259 295 259 295 231.5 295 c 128,-1,4
 204 295 204 295 188 314.5 c 128,-1,5
 172 334 172 334 172 360.5 c 128,-1,6
 172 387 172 387 190.5 405 c 128,-1,7
 209 423 209 423 237 423 c 128,-1,0
 265 423 265 423 282.5 406 c 128,-1,1
447 187 m 5,8,-1
 33 187 l 5,9,-1
 33 251 l 1,10,-1
 447 251 l 1,11,-1
 447 187 l 5,8,-1
282 117 m 0,12,13
 300 102 300 102 300 74 c 128,-1,14
 300 46 300 46 279.5 26 c 128,-1,15
 259 6 259 6 232 6 c 128,-1,16
 205 6 205 6 188.5 25.5 c 128,-1,17
 172 45 172 45 172 72.5 c 128,-1,18
 172 100 172 100 191 117.5 c 128,-1,19
 210 135 210 135 237 135 c 128,-1,20
 264 135 264 135 282 117 c 0,12,13
EndSplineSet
EndChar

StartChar: U0950
Encoding: 2384 2384 106
Width: 624
GlyphClass: 2
Flags: W
LayerCount: 2
Back
Fore
SplineSet
30 268 m 1,0,-1
 49 274 l 1,1,2
 65 174 65 174 116.5 111 c 128,-1,3
 168 48 168 48 234 48 c 0,4,5
 269 48 269 48 294 74 c 128,-1,6
 319 100 319 100 319 137 c 0,7,8
 319 205 319 205 264 261 c 1,9,10
 236 222 236 222 197 204 c 1,11,-1
 173 263 l 1,12,13
 259 288 259 288 259 347 c 0,14,15
 259 370 259 370 245.5 381.5 c 128,-1,16
 232 393 232 393 205 393 c 0,17,18
 166 393 166 393 123 370 c 1,19,-1
 99 428 l 1,20,21
 133 445 133 445 172 445 c 0,22,23
 222 445 222 445 253.5 412.5 c 128,-1,24
 285 380 285 380 285 328 c 0,25,26
 285 306 285 306 275 286 c 1,27,-1
 288 274 l 1,28,29
 338 322 338 322 383 322 c 0,30,31
 387 322 387 322 396 321 c 1,32,33
 413 412 413 412 487 412 c 0,34,35
 536 412 536 412 560 372.5 c 128,-1,36
 584 333 584 333 584 254 c 0,37,38
 584 174 584 174 554 127 c 128,-1,39
 524 80 524 80 472 80 c 0,40,41
 436 80 436 80 421 102.5 c 128,-1,42
 406 125 406 125 406 179 c 2,43,-1
 406 207 l 2,44,45
 406 260 406 260 378 260 c 0,46,47
 355 260 355 260 318 235 c 1,48,49
 367 168 367 168 367 109 c 0,50,51
 367 61 367 61 335.5 31 c 128,-1,52
 304 1 304 1 251 1 c 0,53,54
 166 1 166 1 103 78 c 128,-1,55
 40 155 40 155 30 268 c 1,0,-1
411 315 m 1,56,57
 432 304 432 304 432 268 c 2,58,-1
 432 224 l 1,59,-1
 432 201 l 2,60,61
 432 131 432 131 475 131 c 0,62,63
 510 131 510 131 534 164.5 c 128,-1,64
 558 198 558 198 558 250 c 0,65,66
 558 299 558 299 536 330 c 128,-1,67
 514 361 514 361 480 361 c 0,68,69
 433 361 433 361 411 315 c 1,56,57
216 505 m 1,70,-1
 233 517 l 1,71,72
 268 472 268 472 316 472 c 0,73,74
 362 472 362 472 395 517 c 1,75,-1
 444 477 l 1,76,77
 396 425 396 425 345 425 c 0,78,79
 268 425 268 425 216 505 c 1,70,-1
324 578 m 1,80,-1
 361 540 l 1,81,-1
 324 504 l 1,82,-1
 287 543 l 1,83,-1
 324 578 l 1,80,-1
EndSplineSet
Ligature2: "'blws' Below Base Substitutions in Telugu lookup 8 subtable" U0C15_U0C4D_U0C37_U0C46 U0C30_U0C4D
Ligature2: "'blws' Below Base Substitutions in Telugu lookup 7 subtable" U0C15_U0C4D_U0C37_U0C46 U0C30_U0C4D
EndChar

StartChar: U0951
Encoding: 2385 2385 107
Width: 0
GlyphClass: 2
Flags: W
LayerCount: 2
Back
Fore
SplineSet
-167 758 m 1,0,-1
 -214 758 l 1,1,-1
 -214 1101 l 1,2,-1
 -167 1101 l 1,3,-1
 -167 758 l 1,0,-1
-191 639 m 1024,4,-1
EndSplineSet
Ligature2: "'blws' Below Base Substitutions in Telugu lookup 11 subtable" U0C24_U0C4D U0C56
EndChar

StartChar: U0952
Encoding: 2386 2386 108
Width: 0
GlyphClass: 2
Flags: W
LayerCount: 2
Back
Fore
SplineSet
-293 -71 m 1024,0,-1
-48 -337 m 1,1,-1
 -528 -337 l 1,2,-1
 -528 -296 l 1,3,-1
 -48 -296 l 1,4,-1
 -48 -337 l 1,1,-1
-293 141 m 1024,5,-1
EndSplineSet
EndChar

StartChar: U0964
Encoding: 2404 2404 109
Width: 213
GlyphClass: 2
Flags: W
LayerCount: 2
Back
Fore
SplineSet
168 -61 m 1,0,-1
 89 -61 l 1,1,-1
 89 434 l 1,2,-1
 168 434 l 1,3,-1
 168 -61 l 1,4,-1
 168 -61 l 1,0,-1
EndSplineSet
EndChar

StartChar: U0965
Encoding: 2405 2405 110
Width: 405
GlyphClass: 2
Flags: W
LayerCount: 2
Back
Fore
SplineSet
89 -61 m 1,0,-1
 89 434 l 1,1,-1
 168 434 l 1,2,-1
 168 -61 l 1,3,-1
 89 -61 l 1,4,-1
 89 -61 l 1,0,-1
280 -61 m 1,5,-1
 280 434 l 1,6,-1
 360 434 l 1,7,-1
 360 -61 l 1,8,-1
 280 -61 l 1,9,-1
 280 -61 l 1,5,-1
EndSplineSet
EndChar

StartChar: U0C01
Encoding: 3073 3073 111
Width: 274
GlyphClass: 2
Flags: W
LayerCount: 2
Back
Fore
SplineSet
254 326 m 1,0,-1
 254 291 l 1,1,2
 170 306 170 306 135 267 c 0,3,4
 99 230 99 230 99 184 c 0,5,6
 99 131 99 131 121 101 c 128,-1,7
 143 71 143 71 177.5 65 c 128,-1,8
 212 59 212 59 244 70 c 1,9,-1
 244 31 l 1,10,-1
 244 3 l 1,11,12
 221 -6 221 -6 204 -5 c 0,13,14
 116 -5 116 -5 65.5 50.5 c 128,-1,15
 15 106 15 106 15 189 c 0,16,17
 15 261 15 261 80.5 320.5 c 128,-1,18
 146 380 146 380 254 356 c 1,19,-1
 254 326 l 1,0,-1
EndSplineSet
EndChar

StartChar: U0C02
Encoding: 3074 3074 112
Width: 424
GlyphClass: 2
Flags: W
LayerCount: 2
Back
Fore
SplineSet
404 182 m 0,0,1
 404 97 404 97 334 41 c 0,2,3
 275 -5 275 -5 202 -5 c 0,4,5
 128 -5 128 -5 78 36 c 0,6,7
 15 86 15 86 15 186 c 0,8,9
 15 279 15 279 96 332 c 0,10,11
 156 367 156 367 215 367 c 0,12,13
 288 367 288 367 344 321 c 0,14,15
 404 268 404 268 404 182 c 0,0,1
326 177 m 0,16,17
 326 218 326 218 300 250 c 0,18,19
 267 291 267 291 211 291 c 0,20,21
 162 291 162 291 130.5 258.5 c 128,-1,22
 99 226 99 226 99 186 c 0,23,24
 99 134 99 134 129 104 c 128,-1,25
 159 74 159 74 209 74 c 0,26,27
 253 74 253 74 289 106 c 0,28,29
 326 142 326 142 326 177 c 0,16,17
EndSplineSet
EndChar

StartChar: U0C03
Encoding: 3075 3075 113
Width: 214
GlyphClass: 2
Flags: W
LayerCount: 2
Back
Fore
SplineSet
194 289 m 0,0,1
 194 258 194 258 167 230 c 0,2,3
 142 207 142 207 105 207 c 0,4,5
 78 207 78 207 59 217 c 0,6,7
 18 241 18 241 18 284 c 0,8,9
 18 317 18 317 44 341 c 128,-1,10
 70 365 70 365 106 365 c 0,11,12
 146 365 146 365 171 340 c 0,13,14
 194 321 194 321 194 289 c 0,0,1
191 81 m 0,15,16
 191 47 191 47 164 24 c 0,17,18
 151 10 151 10 136 4 c 128,-1,19
 121 -2 121 -2 102 -2 c 0,20,21
 72 -2 72 -2 56 8 c 0,22,23
 15 35 15 35 15 76 c 0,24,25
 15 111 15 111 41 133.5 c 128,-1,26
 67 156 67 156 103 156 c 0,27,28
 144 156 144 156 167.5 135 c 128,-1,29
 191 114 191 114 191 81 c 0,15,16
142 287 m 0,30,31
 142 318 142 318 109 318 c 0,32,33
 71 318 71 318 71 287 c 0,34,35
 71 255 71 255 104 255 c 0,36,37
 142 255 142 255 142 287 c 0,30,31
138 80 m 0,38,39
 138 111 138 111 105 111 c 0,40,41
 68 111 68 111 68 79 c 0,42,43
 68 46 68 46 101 46 c 0,44,45
 138 46 138 46 138 80 c 0,38,39
EndSplineSet
EndChar

StartChar: U0C05
Encoding: 3077 3077 114
Width: 492
GlyphClass: 2
Flags: W
LayerCount: 2
Back
Fore
SplineSet
110 174 m 1,0,-1
 110 238 l 1,1,-1
 202 238 l 1,2,-1
 198 273 l 1,3,4
 200 323 200 323 233 355.5 c 128,-1,5
 266 388 266 388 333 387 c 0,6,7
 386 387 386 387 429 334 c 128,-1,8
 472 281 472 281 472 208 c 0,9,10
 472 123 472 123 396 54 c 0,11,12
 331 -5 331 -5 237 -5 c 0,13,14
 137 -5 137 -5 76 52 c 128,-1,15
 15 109 15 109 15 213 c 0,16,17
 15 240 15 240 31 281 c 128,-1,18
 47 322 47 322 73 348 c 0,19,20
 117 392 117 392 183 392 c 1,21,-1
 183 317 l 1,22,23
 156 326 156 326 123 285.5 c 128,-1,24
 90 245 90 245 97.5 184 c 128,-1,25
 105 123 105 123 138 97 c 0,26,27
 180 69 180 69 239 69 c 0,28,29
 312 69 312 69 354 112 c 128,-1,30
 396 155 396 155 396 217 c 0,31,32
 396 260 396 260 368 292 c 0,33,34
 344 317 344 317 322 317 c 0,35,36
 276 317 276 317 276 279 c 0,37,38
 276 247 276 247 314 247 c 2,39,-1
 324 247 l 1,40,-1
 325 174 l 1,41,-1
 110 174 l 1,0,-1
EndSplineSet
EndChar

StartChar: U0C06
Encoding: 3078 3078 115
Width: 471
GlyphClass: 2
Flags: W
LayerCount: 2
Back
Fore
SplineSet
451 156 m 0,0,1
 451 81 451 81 357 27 c 0,2,3
 305 -5 305 -5 237 -5 c 0,4,5
 160 -5 160 -5 103 31 c 0,6,7
 15 85 15 85 15 191 c 0,8,9
 15 252 15 252 63 315 c 0,10,11
 117 383 117 383 191 383 c 1,12,-1
 191 310 l 1,13,-1
 177 313 l 1,14,15
 151 313 151 313 125.5 280 c 128,-1,16
 100 247 100 247 98 197 c 0,17,18
 100 145 100 145 126 111 c 0,19,20
 165 62 165 62 238 62 c 0,21,22
 293 62 293 62 336 100 c 0,23,24
 374 131 374 131 374 152 c 128,-1,25
 374 173 374 173 365 189 c 1,26,27
 347 179 347 179 323 178 c 2,28,-1
 136 178 l 1,29,-1
 136 241 l 1,30,-1
 233 241 l 1,31,32
 212 265 212 265 215 293 c 0,33,34
 215 329 215 329 249 358.5 c 128,-1,35
 283 388 283 388 333 388 c 0,36,37
 385 388 385 388 418 358 c 0,38,39
 444 331 444 331 444 293 c 0,40,41
 444 241 444 241 423 224 c 1,42,43
 451 193 451 193 451 156 c 0,0,1
366 289 m 256,44,45
 366 317 366 317 331 317 c 256,46,47
 296 317 296 317 296 287 c 0,48,49
 296 265 296 265 332 261 c 0,50,51
 366 261 366 261 366 289 c 256,44,45
EndSplineSet
EndChar

StartChar: U0C07
Encoding: 3079 3079 116
Width: 495
GlyphClass: 2
Flags: W
LayerCount: 2
Back
Fore
SplineSet
475 -35 m 1,0,-1
 379 -35 l 1,1,2
 368 2 368 2 340 54 c 1,3,4
 257 -5 257 -5 180 -5 c 0,5,6
 118 -5 118 -5 77 20 c 0,7,8
 24 52 24 52 24 116 c 0,9,10
 24 162 24 162 82 195 c 0,11,12
 137 224 137 224 192 224 c 0,13,14
 253 224 253 224 337 160 c 1,15,16
 358 200 358 200 358 251 c 0,17,18
 358 279 358 279 343 304 c 0,19,20
 327 325 327 325 305 325 c 0,21,22
 267 325 267 325 267 289 c 0,23,24
 267 267 267 267 277 246 c 1,25,-1
 189 246 l 1,26,27
 192 278 192 278 172 298 c 0,28,29
 158 316 158 316 137 316 c 0,30,31
 104 316 104 316 104 273 c 0,32,33
 104 259 104 259 116 243 c 1,34,-1
 15 239 l 1,35,-1
 15 265 l 2,36,37
 15 299 15 299 36 335 c 0,38,39
 67 389 67 389 129 389 c 0,40,41
 156 391 156 391 181 387 c 0,42,43
 192 383 192 383 202 377.5 c 128,-1,44
 212 372 212 372 225 362 c 1,45,46
 249 400 249 400 305 400 c 0,47,48
 363 400 363 400 397 351.5 c 128,-1,49
 431 303 431 303 431 236 c 0,50,51
 431 174 431 174 390 114 c 1,52,53
 451 53 451 53 475 -35 c 1,0,-1
290 104 m 1,54,55
 278 120 278 120 247 135 c 0,56,57
 210 150 210 150 181 150 c 0,58,59
 154 150 154 150 129.5 138.5 c 128,-1,60
 105 127 105 127 103 111 c 0,61,62
 103 94 103 94 132.5 81.5 c 128,-1,63
 162 69 162 69 190 69 c 0,64,65
 200 69 200 69 211 71 c 128,-1,66
 222 73 222 73 242 81 c 0,67,68
 275 91 275 91 290 104 c 1,54,55
EndSplineSet
EndChar

StartChar: U0C08
Encoding: 3080 3080 117
Width: 753
GlyphClass: 2
Flags: W
LayerCount: 2
Back
Fore
SplineSet
733 118 m 0,0,1
 733 72 733 72 692.5 39 c 128,-1,2
 652 6 652 6 608 6 c 0,3,4
 567 6 567 6 534 40 c 0,5,6
 505 73 505 73 505 120 c 0,7,8
 505 136 505 136 511 156 c 1,9,-1
 457 156 l 1,10,11
 446 92 446 92 390 45 c 0,12,13
 329 -7 329 -7 244 -7 c 0,14,15
 161 -7 161 -7 107 43 c 0,16,17
 66 84 66 84 51 152 c 1,18,-1
 15 152 l 1,19,-1
 15 225 l 1,20,-1
 58 225 l 1,21,22
 58 239 58 239 75.5 276 c 128,-1,23
 93 313 93 313 120 328 c 1,24,-1
 90 356 l 1,25,26
 67 383 67 383 67 433 c 1,27,-1
 165 433 l 1,28,29
 157 424 157 424 157 409 c 0,30,31
 157 393 157 393 176 381 c 0,32,33
 193 373 193 373 209 371 c 0,34,35
 234 371 234 371 260 399 c 2,36,-1
 307 449 l 2,37,38
 322 463 322 463 357 478 c 0,39,40
 359 479 359 479 380 486 c 128,-1,41
 401 493 401 493 413 493 c 0,42,43
 426 493 426 493 435 486 c 1,44,-1
 435 403 l 1,45,46
 429 410 429 410 408 412 c 0,47,48
 356 412 356 412 331 371 c 1,49,50
 421 358 421 358 459 230 c 1,51,-1
 575 230 l 1,52,53
 627 250 627 250 627 307 c 0,54,55
 627 337 627 337 589 337 c 0,56,57
 553 337 553 337 553 309 c 1,58,-1
 561 289 l 1,59,-1
 489 289 l 1,60,-1
 488 302 l 1,61,-1
 487 323 l 2,62,63
 487 351 487 351 509 377 c 0,64,65
 539 413 539 413 595 413 c 0,66,67
 645 413 645 413 679 371 c 0,68,69
 707 337 707 337 707 295 c 0,70,71
 707 267 707 267 697 249 c 2,72,-1
 683 223 l 1,73,74
 733 185 733 185 733 118 c 0,0,1
656 120 m 0,75,76
 656 136 656 136 645 151 c 128,-1,77
 634 166 634 166 617 166 c 256,78,79
 600 166 600 166 587 151 c 0,80,81
 576 137 576 137 576 124 c 0,82,83
 576 82 576 82 617 82 c 0,84,85
 631 82 631 82 642.5 93.5 c 128,-1,86
 654 105 654 105 656 120 c 0,75,76
385 224 m 1,87,88
 358 302 358 302 260 302 c 0,89,90
 181 302 181 302 148 224 c 1,91,-1
 385 224 l 1,87,88
378 153 m 1,92,-1
 143 153 l 1,93,94
 139 133 139 133 175.5 104.5 c 128,-1,95
 212 76 212 76 255 76 c 0,96,97
 338 76 338 76 378 153 c 1,92,-1
EndSplineSet
EndChar

StartChar: U0C09
Encoding: 3081 3081 118
Width: 533
GlyphClass: 2
Flags: W
LayerCount: 2
Back
Fore
SplineSet
513 129 m 0,0,1
 513 82 513 82 473 38 c 128,-1,2
 433 -6 433 -6 371 -6 c 0,3,4
 307 -6 307 -6 285 39 c 1,5,-1
 261 9 l 1,6,7
 242 -7 242 -7 195 -7 c 0,8,9
 140 -7 140 -7 100.5 42.5 c 128,-1,10
 61 92 61 92 61 149 c 2,11,-1
 61 171 l 1,12,-1
 15 171 l 1,13,-1
 15 241 l 1,14,-1
 74 241 l 1,15,16
 93 271 93 271 103.5 287 c 128,-1,17
 114 303 114 303 122 311 c 0,18,19
 168 361 168 361 231 371 c 1,20,-1
 231 492 l 1,21,-1
 307 492 l 1,22,-1
 307 375 l 1,23,24
 385 375 385 375 433 332 c 0,25,26
 468 301 468 301 473 267 c 1,27,-1
 396 267 l 1,28,29
 369 310 369 310 293 310 c 0,30,31
 195 310 195 310 159 241 c 1,32,-1
 313 241 l 1,33,-1
 313 171 l 1,34,-1
 145 171 l 1,35,-1
 140 149 l 1,36,37
 140 125 140 125 155 98 c 128,-1,38
 170 71 170 71 197 71 c 0,39,40
 231 71 231 71 243 94 c 0,41,42
 245 101 245 101 247 113 c 128,-1,43
 249 125 249 125 249 141 c 1,44,-1
 343 141 l 1,45,46
 338 137 338 137 338 106 c 0,47,48
 338 68 338 68 389 68 c 0,49,50
 409 68 409 68 422.5 84 c 128,-1,51
 436 100 436 100 436 123 c 0,52,53
 436 136 436 136 431 144.5 c 128,-1,54
 426 153 426 153 411.5 161 c 128,-1,55
 397 169 397 169 374 169 c 1,56,-1
 374 238 l 1,57,58
 380 240 380 240 399 240 c 2,59,-1
 421 238 l 2,60,61
 458 238 458 238 488 199 c 0,62,63
 499 182 499 182 506 164.5 c 128,-1,64
 513 147 513 147 513 129 c 0,0,1
EndSplineSet
EndChar

StartChar: U0C0A
Encoding: 3082 3082 119
Width: 775
GlyphClass: 2
Flags: W
LayerCount: 2
Back
Fore
SplineSet
755 147 m 0,0,1
 755 103 755 103 717 69 c 0,2,3
 704 56 704 56 688 48 c 0,4,5
 662 34 662 34 631 34 c 0,6,7
 585 34 585 34 558 67.5 c 128,-1,8
 531 101 531 101 538 149 c 0,9,10
 538 171 538 171 553 180 c 1,11,-1
 157 180 l 1,12,-1
 158 136 l 2,13,14
 158 116 158 116 172.5 97 c 128,-1,15
 187 78 187 78 209 78 c 256,16,17
 231 78 231 78 244.5 95 c 128,-1,18
 258 112 258 112 258 133 c 2,19,-1
 256 147 l 1,20,-1
 327 147 l 1,21,-1
 327 120 l 2,22,23
 327 100 327 100 341 86 c 128,-1,24
 355 72 355 72 371 72 c 0,25,26
 392 72 392 72 411 95 c 0,27,28
 423 109 423 109 423 136 c 0,29,30
 423 148 423 148 419 157 c 1,31,-1
 498 157 l 1,32,33
 501 144 501 144 502 137 c 128,-1,34
 503 130 503 130 503 116 c 0,35,36
 503 60 503 60 466.5 28.5 c 128,-1,37
 430 -3 430 -3 371 -3 c 0,38,39
 309 -3 309 -3 289 43 c 1,40,41
 268 -6 268 -6 199 -6 c 0,42,43
 131 -6 131 -6 96 47 c 0,44,45
 70 89 70 89 70 142 c 0,46,47
 70 173 70 173 73 180 c 1,48,-1
 15 180 l 1,49,-1
 15 250 l 1,50,-1
 88 250 l 1,51,52
 88 267 88 267 105 295 c 0,53,54
 128 336 128 336 178 364 c 1,55,-1
 178 491 l 1,56,-1
 249 491 l 1,57,-1
 249 387 l 1,58,-1
 265 388 l 1,59,-1
 283 389 l 1,60,-1
 283 490 l 1,61,-1
 355 490 l 1,62,-1
 355 386 l 1,63,64
 452 360 452 360 463 287 c 1,65,-1
 389 287 l 1,66,67
 362 325 362 325 304 325 c 0,68,69
 255 325 255 325 221 303.5 c 128,-1,70
 187 282 187 282 178 250 c 1,71,-1
 589 250 l 2,72,73
 631 250 631 250 654 271 c 128,-1,74
 677 292 677 292 677 312 c 0,75,76
 677 326 677 326 664.5 340 c 128,-1,77
 652 354 652 354 638 354 c 256,78,79
 624 354 624 354 612 341.5 c 128,-1,80
 600 329 600 329 600 312 c 1,81,-1
 602 304 l 1,82,-1
 533 304 l 1,83,-1
 531 321 l 1,84,85
 531 356 531 356 554 382 c 0,86,87
 585 415 585 415 640 415 c 0,88,89
 689 415 689 415 717 377 c 0,90,91
 737 345 737 345 737 306 c 0,92,93
 737 283 737 283 728 269 c 2,94,-1
 711 244 l 1,95,96
 737 223 737 223 745 208 c 0,97,98
 749 201 749 201 752 187 c 128,-1,99
 755 173 755 173 755 147 c 0,0,1
685 142 m 0,100,101
 685 178 685 178 650 184 c 1,102,103
 608 184 608 184 608 147 c 0,104,105
 608 127 608 127 620 115 c 128,-1,106
 632 103 632 103 646 102 c 0,107,108
 685 102 685 102 685 142 c 0,100,101
EndSplineSet
EndChar

StartChar: U0C0B
Encoding: 3083 3083 120
Width: 933
GlyphClass: 2
Flags: W
LayerCount: 2
Back
Fore
SplineSet
417 45 m 1,0,1
 369 -3 369 -3 296 -3 c 0,2,3
 275 -3 275 -3 258 7 c 0,4,5
 255 8 255 8 231 34 c 1,6,7
 189 -5 189 -5 131 -5 c 0,8,9
 76 -5 76 -5 47 29 c 1,10,11
 17 58 17 58 17 106 c 0,12,13
 17 189 17 189 109 219 c 2,14,-1
 148 230 l 2,15,16
 166 239 166 239 166 259 c 0,17,18
 166 291 166 291 131 291 c 0,19,20
 83 291 83 291 83 243 c 1,21,-1
 15 243 l 1,22,23
 15 362 15 362 136 362 c 0,24,25
 182 362 182 362 210.5 334.5 c 128,-1,26
 239 307 239 307 239 261 c 0,27,28
 239 214 239 214 202 188 c 1,29,-1
 134 158 l 2,30,31
 98 141 98 141 98 111 c 0,32,33
 98 96 98 96 110.5 84 c 128,-1,34
 123 72 123 72 145 72 c 0,35,36
 183 72 183 72 191 106 c 0,37,38
 192 112 192 112 192 125 c 0,39,40
 192 130 192 130 190 139 c 1,41,-1
 270 139 l 1,42,-1
 270 120 l 2,43,44
 270 98 270 98 291 85 c 0,45,46
 307 75 307 75 324 73 c 0,47,48
 355 73 355 73 376.5 108.5 c 128,-1,49
 398 144 398 144 398 184 c 0,50,51
 398 219 398 219 377 250 c 0,52,53
 351 287 351 287 314 287 c 0,54,55
 301 287 301 287 285 280 c 1,56,-1
 285 360 l 1,57,-1
 318 362 l 2,58,59
 382 362 382 362 425.5 310 c 128,-1,60
 469 258 469 258 469 175 c 2,61,-1
 469 163 l 1,62,-1
 484 117 l 1,63,64
 503 74 503 74 543 74 c 0,65,66
 575 74 575 74 598 111 c 0,67,68
 619 144 619 144 619 184 c 0,69,70
 619 221 619 221 600 251 c 0,71,72
 576 291 576 291 535 291 c 2,73,-1
 506 290 l 1,74,-1
 506 362 l 1,75,-1
 540 364 l 2,76,77
 604 364 604 364 647 310 c 128,-1,78
 690 256 690 256 690 175 c 2,79,-1
 690 163 l 1,80,-1
 706 117 l 2,81,82
 725 74 725 74 765 74 c 0,83,84
 797 74 797 74 819 109.5 c 128,-1,85
 841 145 841 145 841 184 c 0,86,87
 841 222 841 222 821 251 c 0,88,89
 798 291 798 291 758 291 c 2,90,-1
 727 290 l 1,91,-1
 727 362 l 1,92,-1
 761 364 l 2,93,94
 825 364 825 364 869 310 c 128,-1,95
 913 256 913 256 913 175 c 0,96,97
 913 102 913 102 864.5 48 c 128,-1,98
 816 -6 816 -6 749 -6 c 0,99,100
 679 -6 679 -6 642 38 c 1,101,-1
 639 43 l 1,102,103
 591 -6 591 -6 528 -6 c 0,104,105
 457 -6 457 -6 422 38 c 2,106,-1
 417 45 l 1,0,1
EndSplineSet
EndChar

StartChar: U0C0C
Encoding: 3084 3084 121
Width: 566
GlyphClass: 2
Flags: W
LayerCount: 2
Back
Fore
SplineSet
546 217 m 1,0,1
 546 122 546 122 505 61 c 0,2,3
 457 -6 457 -6 366 -6 c 0,4,5
 272 -6 272 -6 239 51 c 0,6,7
 217 87 217 87 217 158 c 0,8,9
 217 239 217 239 312 267 c 0,10,11
 364 280 364 280 364 323 c 0,12,13
 364 369 364 369 321 369 c 0,14,15
 301 369 301 369 280 354 c 0,16,17
 271 345 271 345 266 336.5 c 128,-1,18
 261 328 261 328 260 318 c 2,19,-1
 260 291 l 1,20,-1
 184 291 l 1,21,-1
 183 332 l 2,22,23
 183 342 183 342 169.5 354 c 128,-1,24
 156 366 156 366 138 368 c 0,25,26
 120 368 120 368 104 354 c 1,27,28
 90 335 90 335 90 314 c 0,29,30
 90 272 90 272 126 272 c 0,31,32
 145 272 145 272 154 276 c 1,33,-1
 154 197 l 1,34,35
 72 197 72 197 49 222 c 0,36,37
 15 258 15 258 15 312 c 0,38,39
 15 365 15 365 57 404 c 128,-1,40
 99 443 99 443 143 443 c 0,41,42
 217 443 217 443 236 398 c 1,43,44
 237 414 237 414 260 428 c 0,45,46
 288 444 288 444 325 444 c 0,47,48
 371 444 371 444 406 415 c 0,49,50
 445 382 445 382 445 329 c 0,51,52
 445 229 445 229 358 210 c 0,53,54
 329 202 329 202 311.5 186.5 c 128,-1,55
 294 171 294 171 294 153 c 0,56,57
 294 120 294 120 301 104 c 0,58,59
 316 69 316 69 364 69 c 0,60,61
 418 69 418 69 443 112 c 0,62,63
 462 142 462 142 462 172 c 2,64,-1
 462 217 l 1,65,-1
 546 217 l 1,0,1
EndSplineSet
EndChar

StartChar: U0C0E
Encoding: 3086 3086 122
Width: 485
GlyphClass: 2
Flags: W
LayerCount: 2
Back
Fore
SplineSet
465 177 m 0,0,1
 465 109 465 109 415 53 c 128,-1,2
 365 -3 365 -3 304 -3 c 0,3,4
 252 -3 252 -3 224 29 c 1,5,6
 194 -7 194 -7 128 -7 c 0,7,8
 73 -7 73 -7 43 31 c 0,9,10
 15 63 15 63 15 111 c 0,11,12
 15 155 15 155 51 191 c 0,13,14
 93 233 93 233 160 233 c 0,15,16
 208 233 208 233 239 195.5 c 128,-1,17
 270 158 270 158 270 106 c 1,18,19
 281 74 281 74 314 74 c 0,20,21
 337 74 337 74 361 109.5 c 128,-1,22
 385 145 385 145 385 173 c 0,23,24
 385 282 385 282 289 282 c 0,25,26
 275 282 275 282 267.5 280 c 128,-1,27
 260 278 260 278 248 278 c 1,28,-1
 248 358 l 1,29,30
 275 365 275 365 293 365 c 0,31,32
 371 365 371 365 422 304 c 0,33,34
 465 248 465 248 465 177 c 0,0,1
188 114 m 0,35,36
 188 133 188 133 173 146 c 1,37,38
 162 161 162 161 140 161 c 0,39,40
 96 161 96 161 96 111 c 0,41,42
 96 67 96 67 140 67 c 0,43,44
 188 67 188 67 188 114 c 0,35,36
EndSplineSet
EndChar

StartChar: U0C0F
Encoding: 3087 3087 123
Width: 489
GlyphClass: 2
Flags: W
LayerCount: 2
Back
Fore
SplineSet
336 458 m 1,0,-1
 293 395 l 1,1,2
 260 417 260 417 230 417 c 0,3,4
 168 417 168 417 129 381 c 0,5,6
 102 351 102 351 102 314 c 0,7,8
 102 281 102 281 124 259 c 1,9,-1
 28 259 l 1,10,11
 15 294 15 294 15 320 c 0,12,13
 15 401 15 401 114 458 c 0,14,15
 144 475 144 475 171.5 483 c 128,-1,16
 199 491 199 491 231 491 c 0,17,18
 300 491 300 491 336 458 c 1,0,-1
469 177 m 0,19,20
 469 112 469 112 419 54.5 c 128,-1,21
 369 -3 369 -3 309 -3 c 0,22,23
 259 -3 259 -3 232 34 c 1,24,25
 215 -7 215 -7 134 -7 c 0,26,27
 79 -7 79 -7 47 30 c 0,28,29
 21 62 21 62 21 111 c 0,30,31
 21 155 21 155 57 191 c 0,32,33
 98 233 98 233 165 233 c 0,34,35
 212 233 212 233 244 195.5 c 128,-1,36
 276 158 276 158 276 106 c 1,37,38
 292 74 292 74 319 74 c 0,39,40
 344 74 344 74 365 108 c 0,41,42
 389 142 389 142 389 175 c 0,43,44
 389 270 389 270 302 282 c 0,45,46
 293 283 293 283 289 283 c 0,47,48
 286 283 286 283 275 281 c 2,49,-1
 250 278 l 1,50,-1
 250 358 l 1,51,52
 277 365 277 365 298 365 c 0,53,54
 376 365 376 365 426 304 c 0,55,56
 469 249 469 249 469 177 c 0,19,20
192 114 m 0,57,58
 192 133 192 133 178 146 c 0,59,60
 167 161 167 161 146 161 c 0,61,62
 101 161 101 161 101 111 c 0,63,64
 101 68 101 68 145 68 c 0,65,66
 192 68 192 68 192 114 c 0,57,58
EndSplineSet
EndChar

StartChar: U0C10
Encoding: 3088 3088 124
Width: 471
GlyphClass: 2
Flags: W
LayerCount: 2
Back
Fore
SplineSet
451 204 m 0,0,1
 451 124 451 124 396.5 60.5 c 128,-1,2
 342 -3 342 -3 289 -3 c 0,3,4
 247 -3 247 -3 211 27 c 1,5,-1
 180 5 l 1,6,7
 155 -7 155 -7 124 -7 c 0,8,9
 72 -7 72 -7 40 36 c 0,10,11
 15 71 15 71 15 118 c 0,12,13
 15 162 15 162 41 194 c 0,14,15
 77 240 77 240 153 240 c 0,16,17
 230 240 230 240 266 124 c 0,18,19
 279 85 279 85 300 85 c 0,20,21
 327 85 327 85 349 126 c 0,22,23
 368 162 368 162 368 195 c 0,24,25
 368 240 368 240 349 276 c 0,26,27
 326 318 326 318 291 318 c 0,28,29
 270 318 270 318 265 303 c 2,30,-1
 260 271 l 1,31,-1
 184 267 l 1,32,33
 184 290 184 290 171.5 305.5 c 128,-1,34
 159 321 159 321 138 321 c 0,35,36
 98 321 98 321 98 294 c 1,37,-1
 107 265 l 1,38,-1
 24 265 l 1,39,-1
 23 284 l 2,40,41
 23 302 23 302 26 315.5 c 128,-1,42
 29 329 29 329 43 351 c 0,43,44
 74 404 74 404 140 404 c 0,45,46
 183 404 183 404 231 373 c 1,47,-1
 253 390 l 2,48,49
 269 402 269 402 293 402 c 0,50,51
 374 402 374 402 420 321 c 0,52,53
 451 265 451 265 451 204 c 0,0,1
181 120 m 0,54,55
 181 136 181 136 165.5 148 c 128,-1,56
 150 160 150 160 131 162 c 0,57,58
 117 162 117 162 104.5 149 c 128,-1,59
 92 136 92 136 92 114 c 0,60,61
 92 71 92 71 131 71 c 0,62,63
 151 71 151 71 166 86 c 128,-1,64
 181 101 181 101 181 120 c 0,54,55
EndSplineSet
EndChar

StartChar: U0C12
Encoding: 3090 3090 125
Width: 467
GlyphClass: 2
Flags: W
LayerCount: 2
Back
Fore
SplineSet
447 125 m 0,0,1
 447 72 447 72 403 31 c 0,2,3
 364 -6 364 -6 321 -6 c 0,4,5
 245 -6 245 -6 227 39 c 1,6,7
 225 23 225 23 202 7 c 0,8,9
 175 -7 175 -7 138 -7 c 0,10,11
 92 -7 92 -7 57 21 c 0,12,13
 17 53 17 53 17 106 c 0,14,15
 17 207 17 207 104 227 c 0,16,17
 167 240 167 240 167 271 c 0,18,19
 167 283 167 283 158 298 c 0,20,21
 150 309 150 309 138 311 c 0,22,23
 124 311 124 311 112.5 297.5 c 128,-1,24
 101 284 101 284 101 272 c 2,25,-1
 103 261 l 1,26,-1
 15 261 l 1,27,28
 15 299 15 299 35 332 c 0,29,30
 66 384 66 384 136 384 c 0,31,32
 172 384 172 384 202 365 c 0,33,34
 244 336 244 336 244 278 c 0,35,36
 244 196 244 196 150 170 c 0,37,38
 99 156 99 156 99 114 c 0,39,40
 99 68 99 68 143 68 c 0,41,42
 161 68 161 68 183 83 c 0,43,44
 188 87 188 87 194.5 96.5 c 128,-1,45
 201 106 201 106 202 118 c 2,46,-1
 202 145 l 1,47,-1
 279 145 l 1,48,-1
 280 104 l 2,49,50
 280 94 280 94 293.5 82.5 c 128,-1,51
 307 71 307 71 325 69 c 0,52,53
 343 69 343 69 358 83 c 0,54,55
 374 101 374 101 374 123 c 0,56,57
 374 164 374 164 336 164 c 0,58,59
 318 164 318 164 309 161 c 1,60,-1
 309 238 l 1,61,62
 390 238 390 238 413 215 c 0,63,64
 447 179 447 179 447 125 c 0,0,1
EndSplineSet
EndChar

StartChar: U0C13
Encoding: 3091 3091 126
Width: 467
GlyphClass: 2
Flags: W
LayerCount: 2
Back
Fore
SplineSet
447 125 m 0,0,1
 447 72 447 72 403 31 c 0,2,3
 364 -6 364 -6 321 -6 c 0,4,5
 245 -6 245 -6 227 39 c 1,6,7
 225 23 225 23 202 7 c 0,8,9
 175 -7 175 -7 138 -7 c 0,10,11
 92 -7 92 -7 57 21 c 0,12,13
 17 53 17 53 17 106 c 0,14,15
 17 207 17 207 104 227 c 0,16,17
 167 240 167 240 167 271 c 0,18,19
 167 283 167 283 158 298 c 0,20,21
 150 309 150 309 138 311 c 0,22,23
 124 311 124 311 112.5 297.5 c 128,-1,24
 101 284 101 284 101 272 c 2,25,-1
 103 261 l 1,26,-1
 15 261 l 1,27,28
 15 335 15 335 76 371 c 1,29,30
 65 386 65 386 65 412 c 0,31,32
 65 459 65 459 99 489 c 1,33,34
 135 515 135 515 194 515 c 0,35,36
 255 515 255 515 294 475 c 0,37,38
 325 442 325 442 325 402 c 2,39,-1
 325 371 l 1,40,-1
 238 371 l 1,41,42
 238 443 238 443 192 443 c 0,43,44
 145 443 145 443 145 405 c 0,45,46
 145 391 145 391 148 384 c 1,47,48
 189 373 189 373 204 362 c 0,49,50
 244 335 244 335 244 278 c 0,51,52
 244 196 244 196 150 170 c 0,53,54
 99 156 99 156 99 114 c 0,55,56
 99 68 99 68 143 68 c 0,57,58
 161 68 161 68 183 83 c 0,59,60
 188 87 188 87 194.5 96.5 c 128,-1,61
 201 106 201 106 202 118 c 2,62,-1
 202 145 l 1,63,-1
 279 145 l 1,64,-1
 280 104 l 2,65,66
 280 94 280 94 293.5 82.5 c 128,-1,67
 307 71 307 71 325 69 c 0,68,69
 343 69 343 69 358 83 c 0,70,71
 374 101 374 101 374 123 c 0,72,73
 374 164 374 164 336 164 c 0,74,75
 318 164 318 164 309 161 c 1,76,-1
 309 238 l 1,77,78
 390 238 390 238 413 215 c 0,79,80
 447 179 447 179 447 125 c 0,0,1
EndSplineSet
EndChar

StartChar: U0C14
Encoding: 3092 3092 127
Width: 531
GlyphClass: 2
Flags: W
LayerCount: 2
Back
Fore
SplineSet
511 376 m 0,0,1
 511 324 511 324 473 284 c 0,2,3
 436 244 436 244 395 244 c 0,4,5
 362 244 362 244 333.5 274 c 128,-1,6
 305 304 305 304 305 343 c 0,7,8
 305 377 305 377 334 408 c 1,9,10
 363 433 363 433 401 433 c 0,11,12
 415 433 415 433 423 431 c 1,13,14
 410 445 410 445 390 447 c 2,15,-1
 219 447 l 1,16,17
 228 426 228 426 228 410 c 0,18,19
 228 389 228 389 205 365 c 1,20,21
 214 360 214 360 229 337 c 128,-1,22
 244 314 244 314 244 284 c 0,23,24
 244 222 244 222 187 184 c 1,25,-1
 142 167 l 1,26,27
 106 148 106 148 106 118 c 0,28,29
 106 104 106 104 118 86 c 0,30,31
 128 69 128 69 148 69 c 0,32,33
 165 69 165 69 181 89 c 0,34,35
 195 111 195 111 195 135 c 1,36,-1
 192 152 l 1,37,-1
 286 152 l 1,38,-1
 282 130 l 1,39,40
 282 74 282 74 327 74 c 0,41,42
 345 74 345 74 362 92 c 0,43,44
 377 109 377 109 377 127 c 0,45,46
 376 141 376 141 365.5 153.5 c 128,-1,47
 355 166 355 166 347 166 c 0,48,49
 334 166 334 166 327 153 c 1,50,-1
 327 238 l 1,51,-1
 337 240 l 1,52,-1
 357 241 l 2,53,54
 384 241 384 241 404 227 c 0,55,56
 450 193 450 193 450 130 c 0,57,58
 450 83 450 83 398 36 c 0,59,60
 352 -4 352 -4 322 -4 c 0,61,62
 268 -4 268 -4 234 31 c 1,63,64
 194 -7 194 -7 127 -7 c 0,65,66
 83 -7 83 -7 49.5 30 c 128,-1,67
 16 67 16 67 16 118 c 0,68,69
 16 200 16 200 84 222 c 2,70,-1
 139 238 l 2,71,72
 167 248 167 248 167 273 c 0,73,74
 167 312 167 312 135 312 c 0,75,76
 95 312 95 312 95 282 c 2,77,-1
 98 255 l 1,78,-1
 15 255 l 1,79,80
 15 328 15 328 57 351 c 1,81,82
 52 365 52 365 52 378 c 0,83,84
 52 389 52 389 57 395 c 1,85,-1
 135 395 l 2,86,87
 148 395 148 395 160 402 c 0,88,89
 169 411 169 411 169 415 c 0,90,91
 169 447 169 447 137 447 c 2,92,-1
 23 447 l 1,93,-1
 23 513 l 1,94,-1
 409 513 l 1,95,96
 511 480 511 480 511 376 c 0,0,1
426 343 m 0,97,98
 426 369 426 369 399 369 c 0,99,100
 390 369 390 369 382 360 c 0,101,102
 377 351 377 351 377 339 c 0,103,104
 377 329 377 329 386.5 321 c 128,-1,105
 396 313 396 313 407 314 c 0,106,107
 426 314 426 314 426 343 c 0,97,98
EndSplineSet
EndChar

StartChar: U0C15
Encoding: 3093 3093 128
Width: 401
GlyphClass: 2
Flags: W
LayerCount: 2
Back
Fore
SplineSet
250 364 m 1,0,1
 359 348 359 348 359 263 c 1,2,-1
 279 263 l 1,3,4
 270 283 270 283 244 294 c 0,5,6
 233 301 233 301 222.5 302 c 128,-1,7
 212 303 212 303 195 303 c 0,8,9
 118 303 118 303 118 252 c 0,10,11
 118 219 118 219 187 219 c 1,12,-1
 222 228 l 2,13,14
 254 236 254 236 285 236 c 0,15,16
 333 236 333 236 359 205 c 0,17,18
 381 183 381 183 381 148 c 0,19,20
 374 76 374 76 320 35.5 c 128,-1,21
 266 -5 266 -5 195 -5 c 0,22,23
 105 -5 105 -5 55 45 c 0,24,25
 15 82 15 82 15 128 c 1,26,-1
 100 128 l 1,27,28
 100 106 100 106 129.5 87 c 128,-1,29
 159 68 159 68 200 68 c 0,30,31
 247 68 247 68 273 87 c 128,-1,32
 299 106 299 106 299 126 c 0,33,34
 299 163 299 163 255 163 c 1,35,-1
 210 156 l 1,36,-1
 151 150 l 1,37,38
 107 150 107 150 70 177 c 0,39,40
 29 205 29 205 29 251 c 0,41,42
 29 287 29 287 71 324 c 1,43,-1
 76 327 l 1,44,-1
 62 337 l 1,45,46
 26 368 26 368 26 406 c 2,47,-1
 26 417 l 1,48,-1
 110 417 l 1,49,-1
 109 408 l 1,50,51
 109 367 109 367 150 367 c 0,52,53
 166 367 166 367 183 383 c 2,54,-1
 214 420 l 2,55,56
 267 479 267 479 326 479 c 0,57,58
 352 479 352 479 366 470 c 1,59,-1
 366 392 l 1,60,61
 354 409 354 409 324 409 c 0,62,63
 293 409 293 409 268 383 c 2,64,-1
 250 364 l 1,0,1
EndSplineSet
Substitution2: "Single Substitution lookup 23 subtable" U0C15_U0C4D_U0C30
Substitution2: "Single Substitution lookup 22 subtable" U0C15.haln
MultipleSubs2: "Multiple Substitution lookup 19 subtable" U0C15_U0C46 U0C56
EndChar

StartChar: U0C16
Encoding: 3094 3094 129
Width: 559
GlyphClass: 2
Flags: W
LayerCount: 2
Back
Fore
SplineSet
539 184 m 0,0,1
 539 106 539 106 487.5 52.5 c 128,-1,2
 436 -1 436 -1 360 -1 c 0,3,4
 322 -1 322 -1 304.5 4 c 128,-1,5
 287 9 287 9 254 41 c 1,6,7
 235 21 235 21 193 5 c 0,8,9
 176 -1 176 -1 160 -4 c 128,-1,10
 144 -7 144 -7 129 -7 c 0,11,12
 81 -7 81 -7 50 14 c 0,13,14
 15 36 15 36 15 79 c 0,15,16
 15 118 15 118 54 146 c 128,-1,17
 93 174 93 174 139 174 c 0,18,19
 210 174 210 174 253 142 c 1,20,21
 264 191 264 191 264 206.5 c 128,-1,22
 264 222 264 222 254.5 247 c 128,-1,23
 245 272 245 272 231 273 c 1,24,25
 223 239 223 239 198 214 c 0,26,27
 191 207 191 207 172 197 c 0,28,29
 145 186 145 186 129 186 c 0,30,31
 78 186 78 186 48.5 211.5 c 128,-1,32
 19 237 19 237 19 280 c 0,33,34
 19 325 19 325 80 362 c 0,35,36
 112 383 112 383 168 383 c 0,37,38
 246 383 246 383 299 327 c 0,39,40
 338 284 338 284 338 200 c 0,41,42
 338 180 338 180 330 147 c 0,43,44
 321 120 321 120 308 106 c 1,45,46
 310 91 310 91 327.5 81.5 c 128,-1,47
 345 72 345 72 363 72 c 0,48,49
 397 72 397 72 426 100 c 0,50,51
 458 135 458 135 458 182 c 0,52,53
 458 219 458 219 440 250 c 0,54,55
 418 283 418 283 377 283 c 1,56,-1
 352 280 l 1,57,-1
 352 360 l 1,58,59
 430 360 430 360 457 343 c 0,60,61
 487 328 487 328 513 285 c 0,62,63
 539 234 539 234 539 184 c 0,0,1
154 280 m 0,64,65
 154 311 154 311 125 311 c 256,66,67
 96 311 96 311 96 280 c 0,68,69
 96 250 96 250 125 250 c 256,70,71
 154 250 154 250 154 280 c 0,64,65
198 90 m 1,72,73
 176 108 176 108 145 108 c 0,74,75
 101 108 101 108 101 89 c 0,76,77
 101 68 101 68 139 68 c 0,78,79
 182 68 182 68 198 90 c 1,72,73
292 -95 m 1,80,-1
 210 -95 l 1,81,-1
 210 -5 l 1,82,-1
 292 -5 l 1,83,-1
 292 -95 l 1,80,-1
EndSplineSet
Substitution2: "Single Substitution lookup 23 subtable" U0C16_U0C4D_U0C30
Substitution2: "Single Substitution lookup 22 subtable" U0C16.haln
MultipleSubs2: "Multiple Substitution lookup 19 subtable" U0C16_U0C46 U0C56
EndChar

StartChar: U0C17
Encoding: 3095 3095 130
Width: 423
GlyphClass: 2
Flags: W
LayerCount: 2
Back
Fore
SplineSet
286 355 m 1,0,1
 338 334 338 334 370.5 278 c 128,-1,2
 403 222 403 222 403 170 c 0,3,4
 403 102 403 102 364 49 c 0,5,6
 335 10 335 10 312 3 c 1,7,-1
 309 5 l 1,8,-1
 269 68 l 1,9,-1
 269 72 l 1,10,11
 323 115 323 115 323 172 c 0,12,13
 323 218 323 218 299 251 c 0,14,15
 270 292 270 292 217 292 c 256,16,17
 164 292 164 292 133 253 c 128,-1,18
 102 214 102 214 102 156 c 0,19,20
 102 131 102 131 104.5 118 c 128,-1,21
 107 105 107 105 115 94 c 0,22,23
 120 87 120 87 153 59 c 1,24,-1
 155 56 l 1,25,26
 150 41 150 41 107 -2 c 1,27,-1
 103 -2 l 1,28,29
 15 32 15 32 15 168 c 0,30,31
 15 246 15 246 72 304 c 1,32,-1
 90 320 l 1,33,-1
 83 323 l 1,34,35
 44 350 44 350 44 389 c 2,36,-1
 45 404 l 1,37,-1
 134 404 l 2,38,39
 131 402 131 402 131 395 c 0,40,41
 131 382 131 382 146 372 c 128,-1,42
 161 362 161 362 175 360 c 1,43,-1
 194 364 l 2,44,45
 206 367 206 367 215 376 c 2,46,-1
 246 409 l 2,47,48
 292 459 292 459 347 459 c 0,49,50
 373 459 373 459 392 450 c 1,51,-1
 392 369 l 1,52,53
 377 383 377 383 346 383 c 0,54,55
 322 383 322 383 286 355 c 1,0,1
EndSplineSet
Substitution2: "Single Substitution lookup 23 subtable" U0C17_U0C4D_U0C30
Substitution2: "Single Substitution lookup 22 subtable" U0C17.haln
MultipleSubs2: "Multiple Substitution lookup 19 subtable" U0C17_U0C46 U0C56
EndChar

StartChar: U0C18
Encoding: 3096 3096 131
Width: 709
GlyphClass: 2
Flags: W
LayerCount: 2
Back
Fore
SplineSet
188 114 m 0,0,1
 188 133 188 133 173 146 c 1,2,3
 162 161 162 161 140 161 c 0,4,5
 96 161 96 161 96 111 c 0,6,7
 96 67 96 67 140 67 c 0,8,9
 160 67 160 67 174 80 c 128,-1,10
 188 93 188 93 188 114 c 0,0,1
465 172 m 1,11,-1
 483 117 l 2,12,13
 501 74 501 74 542 74 c 0,14,15
 574 74 574 74 596 109.5 c 128,-1,16
 618 145 618 145 618 184 c 0,17,18
 618 222 618 222 598 251 c 0,19,20
 575 291 575 291 534 291 c 2,21,-1
 503 290 l 1,22,-1
 503 364 l 1,23,-1
 538 364 l 2,24,25
 602 364 602 364 645.5 310 c 128,-1,26
 689 256 689 256 689 175 c 0,27,28
 689 102 689 102 641 48 c 128,-1,29
 593 -6 593 -6 525 -6 c 0,30,31
 456 -6 456 -6 420 38 c 2,32,-1
 417 42 l 1,33,34
 373 -7 373 -7 308 -7 c 0,35,36
 257 -7 257 -7 224 29 c 1,37,38
 194 -7 194 -7 128 -7 c 0,39,40
 73 -7 73 -7 43 31 c 0,41,42
 15 63 15 63 15 111 c 0,43,44
 15 158 15 158 47 191 c 1,45,46
 81 233 81 233 150 233 c 0,47,48
 199 233 199 233 234.5 194 c 128,-1,49
 270 155 270 155 270 106 c 1,50,51
 281 74 281 74 314 74 c 0,52,53
 345 74 345 74 365 104.5 c 128,-1,54
 385 135 385 135 385 173 c 0,55,56
 385 282 385 282 279 282 c 1,57,-1
 279 360 l 1,58,59
 325 365 325 365 358 351.5 c 128,-1,60
 391 338 391 338 419 306 c 0,61,62
 465 250 465 250 465 177 c 2,63,-1
 465 172 l 1,11,-1
341 424 m 1,64,65
 333 428 333 428 318 428 c 0,66,67
 289 428 289 428 265 402 c 2,68,-1
 217 346 l 1,69,70
 176 307 176 307 111 307 c 0,71,72
 69 307 69 307 43 333 c 0,73,74
 16 356 16 356 16 395 c 1,75,-1
 96 395 l 1,76,77
 96 369 96 369 128 369 c 0,78,79
 156 369 156 369 181 404 c 2,80,-1
 224 466 l 1,81,82
 256 501 256 501 308 501 c 0,83,84
 327 501 327 501 341 492 c 1,85,-1
 341 424 l 1,64,65
264 -95 m 1,86,-1
 182 -95 l 1,87,-1
 182 -5 l 1,88,-1
 264 -5 l 1,89,-1
 264 -95 l 1,86,-1
EndSplineSet
Substitution2: "Single Substitution lookup 23 subtable" U0C18_U0C4D_U0C30
Substitution2: "Single Substitution lookup 22 subtable" U0C18.haln
MultipleSubs2: "Multiple Substitution lookup 19 subtable" U0C18_U0C46 U0C56
EndChar

StartChar: U0C19
Encoding: 3097 3097 132
Width: 467
GlyphClass: 2
Flags: W
LayerCount: 2
Back
Fore
SplineSet
447 125 m 0,0,1
 447 72 447 72 403 31 c 0,2,3
 364 -6 364 -6 321 -6 c 0,4,5
 245 -6 245 -6 227 39 c 1,6,7
 225 23 225 23 202 7 c 0,8,9
 175 -7 175 -7 138 -7 c 0,10,11
 92 -7 92 -7 57 21 c 0,12,13
 17 53 17 53 17 106 c 0,14,15
 17 207 17 207 104 227 c 0,16,17
 167 240 167 240 167 271 c 0,18,19
 167 283 167 283 158 298 c 0,20,21
 150 309 150 309 138 311 c 0,22,23
 124 311 124 311 112.5 297.5 c 128,-1,24
 101 284 101 284 101 272 c 2,25,-1
 103 261 l 1,26,-1
 15 261 l 1,27,28
 15 299 15 299 35 332 c 0,29,30
 66 384 66 384 136 384 c 0,31,32
 198 384 198 384 227 338 c 1,33,-1
 279 338 l 1,34,-1
 279 395 l 1,35,-1
 354 395 l 1,36,-1
 354 340 l 1,37,-1
 408 340 l 1,38,-1
 408 266 l 1,39,-1
 243 266 l 1,40,41
 243 230 243 230 219 206 c 128,-1,42
 195 182 195 182 147 169 c 128,-1,43
 99 156 99 156 99 114 c 0,44,45
 99 68 99 68 143 68 c 0,46,47
 161 68 161 68 183 83 c 0,48,49
 188 87 188 87 194.5 96.5 c 128,-1,50
 201 106 201 106 202 118 c 2,51,-1
 202 145 l 1,52,-1
 279 145 l 1,53,-1
 280 104 l 2,54,55
 280 94 280 94 293.5 82.5 c 128,-1,56
 307 71 307 71 325 69 c 0,57,58
 343 69 343 69 358 83 c 0,59,60
 374 101 374 101 374 123 c 0,61,62
 374 164 374 164 336 164 c 0,63,64
 318 164 318 164 309 161 c 1,65,-1
 309 238 l 1,66,67
 390 238 390 238 413 215 c 0,68,69
 447 179 447 179 447 125 c 0,0,1
EndSplineSet
Substitution2: "Single Substitution lookup 23 subtable" U0C19_U0C4D_U0C30
Substitution2: "Single Substitution lookup 22 subtable" U0C19.haln
MultipleSubs2: "Multiple Substitution lookup 19 subtable" U0C19_U0C46 U0C56
EndChar

StartChar: U0C1A
Encoding: 3098 3098 133
Width: 593
GlyphClass: 2
Flags: W
LayerCount: 2
Back
Fore
SplineSet
425 362 m 1,0,1
 477 358 477 358 520 315 c 0,2,3
 573 265 573 265 573 180 c 0,4,5
 573 106 573 106 528 50.5 c 128,-1,6
 483 -5 483 -5 411 -5 c 0,7,8
 336 -5 336 -5 322 36 c 1,9,10
 290 -6 290 -6 225 -6 c 0,11,12
 172 -6 172 -6 133.5 34.5 c 128,-1,13
 95 75 95 75 95 129 c 0,14,15
 95 167 95 167 113 184 c 1,16,-1
 15 184 l 1,17,-1
 15 261 l 1,18,-1
 241 261 l 1,19,-1
 241 200 l 1,20,21
 188 188 188 188 188 141 c 0,22,23
 188 117 188 117 201 96 c 0,24,25
 216 78 216 78 239 78 c 0,26,27
 283 78 283 78 283 139 c 1,28,-1
 280 163 l 1,29,-1
 377 163 l 1,30,-1
 374 130 l 1,31,32
 374 71 374 71 419 71 c 0,33,34
 454 71 454 71 475 112 c 0,35,36
 491 145 491 145 491 182 c 0,37,38
 491 261 491 261 425 283 c 0,39,40
 389 293 389 293 301 293 c 2,41,-1
 288 293 l 2,42,43
 239 293 239 293 205 323 c 0,44,45
 186 338 186 338 176.5 362.5 c 128,-1,46
 167 387 167 387 167 417 c 1,47,-1
 252 417 l 1,48,49
 249 413 249 413 249 405 c 0,50,51
 249 384 249 384 268 373 c 0,52,53
 277 369 277 369 297 365 c 1,54,-1
 312 365 l 2,55,56
 340 368 340 368 362 397 c 2,57,-1
 409 456 l 1,58,59
 441 487 441 487 486 487 c 0,60,61
 505 487 505 487 525 478 c 1,62,-1
 525 401 l 1,63,64
 517 414 517 414 486 414 c 0,65,66
 464 414 464 414 441 383 c 2,67,-1
 425 362 l 1,0,1
EndSplineSet
Substitution2: "Single Substitution lookup 23 subtable" U0C1A_U0C4D_U0C30
Substitution2: "Single Substitution lookup 22 subtable" U0C1A.haln
MultipleSubs2: "Multiple Substitution lookup 19 subtable" U0C1A_U0C46 U0C56
EndChar

StartChar: U0C1B
Encoding: 3099 3099 134
Width: 593
GlyphClass: 2
Flags: W
LayerCount: 2
Back
Fore
SplineSet
425 362 m 1,0,1
 477 358 477 358 520 315 c 0,2,3
 573 265 573 265 573 180 c 0,4,5
 573 106 573 106 528 50.5 c 128,-1,6
 483 -5 483 -5 411 -5 c 0,7,8
 336 -5 336 -5 322 36 c 1,9,10
 290 -6 290 -6 225 -6 c 0,11,12
 172 -6 172 -6 133.5 34.5 c 128,-1,13
 95 75 95 75 95 129 c 0,14,15
 95 167 95 167 113 184 c 1,16,-1
 15 184 l 1,17,-1
 15 261 l 1,18,-1
 241 261 l 1,19,-1
 241 200 l 1,20,21
 188 188 188 188 188 141 c 0,22,23
 188 117 188 117 201 96 c 0,24,25
 216 78 216 78 239 78 c 0,26,27
 283 78 283 78 283 139 c 1,28,-1
 280 163 l 1,29,-1
 377 163 l 1,30,-1
 374 130 l 1,31,32
 374 71 374 71 419 71 c 0,33,34
 454 71 454 71 475 112 c 0,35,36
 491 145 491 145 491 182 c 0,37,38
 491 261 491 261 425 283 c 0,39,40
 389 293 389 293 301 293 c 2,41,-1
 288 293 l 2,42,43
 239 293 239 293 205 323 c 0,44,45
 186 338 186 338 176.5 362.5 c 128,-1,46
 167 387 167 387 167 417 c 1,47,-1
 252 417 l 1,48,49
 249 413 249 413 249 405 c 0,50,51
 249 384 249 384 268 373 c 0,52,53
 277 369 277 369 297 365 c 1,54,-1
 312 365 l 2,55,56
 340 368 340 368 362 397 c 2,57,-1
 409 456 l 1,58,59
 441 487 441 487 486 487 c 0,60,61
 505 487 505 487 525 478 c 1,62,-1
 525 401 l 1,63,64
 517 414 517 414 486 414 c 0,65,66
 464 414 464 414 441 383 c 2,67,-1
 425 362 l 1,0,1
360 -95 m 1,68,-1
 279 -95 l 1,69,-1
 279 -5 l 1,70,-1
 360 -5 l 1,71,-1
 360 -95 l 1,68,-1
EndSplineSet
Substitution2: "Single Substitution lookup 23 subtable" U0C1B_U0C4D_U0C30
Substitution2: "Single Substitution lookup 22 subtable" U0C1B.haln
MultipleSubs2: "Multiple Substitution lookup 19 subtable" U0C1B_U0C46 U0C56
EndChar

StartChar: U0C1C
Encoding: 3100 3100 135
Width: 472
GlyphClass: 2
Flags: W
LayerCount: 2
Back
Fore
SplineSet
451 106 m 0,0,1
 451 62 451 62 418 29 c 128,-1,2
 385 -4 385 -4 325 -4 c 1,3,4
 269 -10 269 -10 233 36 c 1,5,6
 198 -6 198 -6 149 -6 c 0,7,8
 101 -6 101 -6 63 28 c 0,9,10
 27 63 27 63 27 111 c 0,11,12
 27 166 27 166 68 189 c 1,13,-1
 140 215 l 2,14,15
 180 228 180 228 180 260 c 0,16,17
 180 295 180 295 146 295 c 0,18,19
 104 295 104 295 104 240 c 1,20,-1
 15 240 l 1,21,22
 15 292 15 292 59.5 331.5 c 128,-1,23
 104 371 104 371 154 371 c 0,24,25
 203 371 203 371 233 338 c 0,26,27
 236 336 236 336 268 280 c 0,28,29
 287 248 287 248 313 248 c 0,30,31
 330 248 330 248 343.5 258 c 128,-1,32
 357 268 357 268 357 284 c 0,33,34
 357 316 357 316 318 316 c 0,35,36
 303 316 303 316 293 313 c 2,37,-1
 279 306 l 1,38,-1
 279 386 l 1,39,40
 357 386 357 386 380 378 c 0,41,42
 445 357 445 357 445 289 c 0,43,44
 445 239 445 239 402 211 c 1,45,46
 366 182 366 182 319 182 c 0,47,48
 280 182 280 182 241 200 c 1,49,50
 233 182 233 182 171 160 c 0,51,52
 120 141 120 141 120 111 c 0,53,54
 120 95 120 95 132.5 84.5 c 128,-1,55
 145 74 145 74 162 72 c 0,56,57
 211 72 211 72 215 130 c 1,58,-1
 293 130 l 1,59,-1
 290 111 l 2,60,61
 290 94 290 94 298.5 82 c 128,-1,62
 307 70 307 70 326 68 c 0,63,64
 342 68 342 68 356 80 c 0,65,66
 368 93 368 93 368 108 c 0,67,68
 368 126 368 126 364 130 c 2,69,-1
 357 142 l 1,70,-1
 448 142 l 1,71,72
 452 123 452 123 451 106 c 0,0,1
EndSplineSet
Substitution2: "Single Substitution lookup 23 subtable" U0C1C_U0C4D_U0C30
Substitution2: "Single Substitution lookup 22 subtable" U0C1C.haln
MultipleSubs2: "Multiple Substitution lookup 19 subtable" U0C1C_U0C46 U0C56
EndChar

StartChar: U0C1D
Encoding: 3101 3101 136
Width: 884
GlyphClass: 2
Flags: W
LayerCount: 2
Back
Fore
SplineSet
326 180 m 0,0,1
 326 232 326 232 293 260 c 0,2,3
 260 290 260 290 211 290 c 0,4,5
 166 290 166 290 134 259 c 0,6,7
 102 230 102 230 102 184 c 0,8,9
 102 135 102 135 131 102 c 1,10,11
 162 73 162 73 206 73 c 0,12,13
 255 73 255 73 290.5 103.5 c 128,-1,14
 326 134 326 134 326 180 c 0,0,1
626 -95 m 1,15,-1
 543 -95 l 1,16,-1
 543 -5 l 1,17,-1
 626 -5 l 1,18,-1
 626 -95 l 1,15,-1
403 142 m 1,19,-1
 417 112 l 2,20,21
 437 74 437 74 477 74 c 0,22,23
 509 74 509 74 531 109.5 c 128,-1,24
 553 145 553 145 553 184 c 0,25,26
 553 219 553 219 534 251 c 0,27,28
 510 291 510 291 469 291 c 2,29,-1
 455 291 l 1,30,-1
 440 290 l 1,31,-1
 440 362 l 1,32,-1
 456 362 l 1,33,-1
 474 364 l 1,34,35
 534 364 534 364 580.5 310 c 128,-1,36
 627 256 627 256 627 173 c 0,37,38
 627 151 627 151 624 141 c 1,39,40
 641 74 641 74 714 74 c 0,41,42
 744 74 744 74 769 109 c 128,-1,43
 794 144 794 144 794 184 c 0,44,45
 794 219 794 219 774 251 c 0,46,47
 750 291 750 291 709 291 c 2,48,-1
 694 291 l 1,49,-1
 679 290 l 1,50,-1
 679 362 l 1,51,-1
 697 362 l 1,52,-1
 714 364 l 1,53,54
 776 364 776 364 820 310 c 128,-1,55
 864 256 864 256 864 175 c 0,56,57
 864 100 864 100 815.5 47 c 128,-1,58
 767 -6 767 -6 701 -6 c 0,59,60
 618 -6 618 -6 582 54 c 1,61,62
 533 -6 533 -6 462 -6 c 0,63,64
 393 -6 393 -6 354 38 c 2,65,-1
 345 49 l 1,66,67
 282 -5 282 -5 204 -5 c 0,68,69
 116 -5 116 -5 65.5 50.5 c 128,-1,70
 15 106 15 106 15 189 c 0,71,72
 15 261 15 261 76 314 c 1,73,74
 35 346 35 346 35 405 c 1,75,-1
 122 405 l 1,76,77
 118 386 118 386 136.5 375 c 128,-1,78
 155 364 155 364 177 364 c 2,79,-1
 187 365 l 2,80,81
 205 368 205 368 228 390 c 1,82,-1
 270 443 l 1,83,84
 302 470 302 470 349 470 c 0,85,86
 373 470 373 470 389 457 c 1,87,-1
 389 381 l 1,88,89
 370 395 370 395 349 395 c 0,90,91
 315 395 315 395 279 358 c 1,92,93
 322 344 322 344 352 313 c 0,94,95
 407 261 407 261 407 180 c 1,96,-1
 403 142 l 1,19,-1
EndSplineSet
Substitution2: "Single Substitution lookup 23 subtable" U0C1D_U0C4D_U0C30
Substitution2: "Single Substitution lookup 22 subtable" U0C1D.haln
MultipleSubs2: "Multiple Substitution lookup 19 subtable" U0C1D_U0C46 U0C56
EndChar

StartChar: U0C1E
Encoding: 3102 3102 137
Width: 705
GlyphClass: 2
Flags: W
LayerCount: 2
Back
Fore
SplineSet
685 152 m 1,0,-1
 595 152 l 1,1,-1
 595 92 l 1,2,-1
 498 92 l 1,3,-1
 498 152 l 1,4,-1
 464 146 l 1,5,-1
 440 105 l 1,6,-1
 494 13 l 1,7,-1
 425 -37 l 1,8,-1
 371 43 l 1,9,10
 340 17 340 17 302 5.5 c 128,-1,11
 264 -6 264 -6 219 -6 c 0,12,13
 142 -6 142 -6 100.5 18 c 128,-1,14
 59 42 59 42 59 85 c 0,15,16
 59 163 59 163 213 183 c 1,17,-1
 249 185 l 2,18,19
 301 185 301 185 354 155 c 1,20,21
 374 181 374 181 374 217 c 0,22,23
 374 249 374 249 362 276 c 0,24,25
 347 306 347 306 327 306 c 0,26,27
 305 306 305 306 292.5 287.5 c 128,-1,28
 280 269 280 269 280 247 c 2,29,-1
 282 228 l 1,30,-1
 187 228 l 1,31,32
 187 301 187 301 134 301 c 0,33,34
 106 301 106 301 106 265 c 0,35,36
 103 229 103 229 126 216 c 1,37,-1
 24 216 l 1,38,39
 15 243 15 243 15 258 c 0,40,41
 15 304 15 304 52.5 337.5 c 128,-1,42
 90 371 90 371 137 377 c 0,43,44
 160 377 160 377 173 376 c 128,-1,45
 186 375 186 375 195 369 c 2,46,-1
 234 345 l 1,47,48
 256 366 256 366 268 371 c 0,49,50
 289 380 289 380 322 380 c 0,51,52
 384 380 384 380 426 334 c 0,53,54
 446 312 446 312 455 286 c 128,-1,55
 464 260 464 260 464 226 c 1,56,-1
 496 226 l 1,57,-1
 496 282 l 1,58,-1
 586 282 l 1,59,-1
 586 228 l 1,60,-1
 685 228 l 1,61,-1
 685 152 l 1,0,-1
307 87 m 1,62,63
 269 118 269 118 228 118 c 0,64,65
 209 118 209 118 198 116 c 2,66,-1
 173 109 l 2,67,68
 161 106 161 106 157 97 c 2,69,-1
 155 90 l 2,70,71
 155 79 155 79 172 70 c 128,-1,72
 189 61 189 61 220 61 c 0,73,74
 232 60 232 60 236 60 c 0,75,76
 272 60 272 60 307 87 c 1,62,63
EndSplineSet
Substitution2: "Single Substitution lookup 23 subtable" U0C1E_U0C4D_U0C30
Substitution2: "Single Substitution lookup 22 subtable" U0C1E.haln
MultipleSubs2: "Multiple Substitution lookup 19 subtable" U0C1E_U0C46 U0C56
EndChar

StartChar: U0C1F
Encoding: 3103 3103 138
Width: 521
GlyphClass: 2
Flags: W
LayerCount: 2
Back
Fore
SplineSet
501 200 m 0,0,1
 501 122 501 122 454.5 60 c 128,-1,2
 408 -2 408 -2 343 -2 c 0,3,4
 280 -2 280 -2 253 49 c 1,5,6
 224 -6 224 -6 160 -6 c 0,7,8
 100 -6 100 -6 57.5 51.5 c 128,-1,9
 15 109 15 109 15 186 c 0,10,11
 15 247 15 247 44.5 302 c 128,-1,12
 74 357 74 357 117 373 c 1,13,-1
 117 490 l 1,14,-1
 200 490 l 1,15,-1
 200 380 l 1,16,17
 211 371 211 371 222.5 363 c 128,-1,18
 234 355 234 355 238 349 c 0,19,20
 264 317 264 317 264 273 c 0,21,22
 264 226 264 226 225 193 c 128,-1,23
 186 160 186 160 140 160 c 1,24,25
 103 167 103 167 91 191 c 1,26,27
 91 134 91 134 112.5 103.5 c 128,-1,28
 134 73 134 73 165 73 c 0,29,30
 189 73 189 73 205.5 97.5 c 128,-1,31
 222 122 222 122 222 147 c 1,32,-1
 302 147 l 1,33,34
 302 84 302 84 344 84 c 0,35,36
 374 84 374 84 398 118.5 c 128,-1,37
 422 153 422 153 422 195 c 0,38,39
 422 230 422 230 399 262 c 0,40,41
 374 294 374 294 340 294 c 2,42,-1
 310 292 l 1,43,-1
 310 372 l 1,44,45
 324 376 324 376 343 376 c 0,46,47
 354 376 354 376 359 375 c 0,48,49
 431 368 431 368 470 309 c 0,50,51
 501 258 501 258 501 200 c 0,0,1
191 276 m 0,52,53
 191 289 191 289 181 299 c 128,-1,54
 171 309 171 309 158 311 c 0,55,56
 147 311 147 311 136.5 300.5 c 128,-1,57
 126 290 126 290 126 276 c 0,58,59
 126 239 126 239 158 239 c 0,60,61
 170 239 170 239 179.5 250 c 128,-1,62
 189 261 189 261 191 276 c 0,52,53
EndSplineSet
Substitution2: "Single Substitution lookup 23 subtable" U0C1F_U0C4D_U0C30
Substitution2: "Single Substitution lookup 22 subtable" U0C1F.haln
MultipleSubs2: "Multiple Substitution lookup 19 subtable" U0C1F_U0C46 U0C56
EndChar

StartChar: U0C20
Encoding: 3104 3104 139
Width: 427
GlyphClass: 2
Flags: W
LayerCount: 2
Back
Fore
SplineSet
326 180 m 0,0,1
 326 232 326 232 293 260 c 0,2,3
 260 290 260 290 211 290 c 0,4,5
 166 290 166 290 134 259 c 0,6,7
 102 230 102 230 102 184 c 0,8,9
 102 135 102 135 131 102 c 1,10,11
 162 73 162 73 206 73 c 0,12,13
 255 73 255 73 290.5 103.5 c 128,-1,14
 326 134 326 134 326 180 c 0,0,1
35 405 m 1,15,-1
 122 405 l 1,16,17
 118 386 118 386 136.5 375 c 128,-1,18
 155 364 155 364 177 364 c 2,19,-1
 187 365 l 2,20,21
 205 368 205 368 228 390 c 1,22,-1
 270 443 l 1,23,24
 302 470 302 470 349 470 c 0,25,26
 373 470 373 470 389 457 c 1,27,-1
 389 381 l 1,28,29
 370 395 370 395 349 395 c 0,30,31
 315 395 315 395 279 358 c 1,32,33
 322 344 322 344 352 313 c 0,34,35
 407 261 407 261 407 180 c 0,36,37
 407 103 407 103 344.5 49 c 128,-1,38
 282 -5 282 -5 204 -5 c 0,39,40
 116 -5 116 -5 65.5 50.5 c 128,-1,41
 15 106 15 106 15 189 c 0,42,43
 15 261 15 261 76 314 c 1,44,45
 35 346 35 346 35 405 c 1,15,-1
244 161 m 0,46,47
 235 145 235 145 212 145 c 0,48,49
 202 145 202 145 194 149 c 0,50,51
 178 158 178 158 178 182 c 0,52,53
 178 192 178 192 183 200 c 0,54,55
 192 217 192 217 214 217 c 0,56,57
 223 217 223 217 235.5 209.5 c 128,-1,58
 248 202 248 202 248 180 c 0,59,60
 248 170 248 170 244 161 c 0,46,47
EndSplineSet
Substitution2: "Single Substitution lookup 23 subtable" U0C20_U0C4D_U0C30
Substitution2: "Single Substitution lookup 22 subtable" U0C20.haln
MultipleSubs2: "Multiple Substitution lookup 19 subtable" U0C20_U0C46 U0C56
EndChar

StartChar: U0C21
Encoding: 3105 3105 140
Width: 468
GlyphClass: 2
Flags: W
LayerCount: 2
Back
Fore
SplineSet
288 365 m 1,0,-1
 385 365 l 1,1,-1
 385 299 l 1,2,-1
 213 299 l 2,3,4
 154 299 154 299 120 261 c 0,5,6
 91 226 91 226 91 171 c 0,7,8
 91 129 91 129 108.5 100.5 c 128,-1,9
 126 72 126 72 157 72 c 0,10,11
 172 72 172 72 189 92 c 1,12,13
 202 115 202 115 202 137 c 2,14,-1
 200 152 l 1,15,-1
 282 152 l 1,16,-1
 280 135 l 1,17,18
 280 79 280 79 326 79 c 0,19,20
 346 79 346 79 362 99 c 128,-1,21
 378 119 378 119 378 140 c 256,22,23
 378 161 378 161 364 174 c 0,24,25
 355 186 355 186 340 189 c 0,26,27
 312 189 312 189 301 180 c 1,28,-1
 301 262 l 1,29,30
 318 267 318 267 336 267 c 0,31,32
 364 267 364 267 387 251 c 0,33,34
 448 214 448 214 448 140 c 0,35,36
 448 70 448 70 404 27 c 0,37,38
 365 -6 365 -6 311 -6 c 0,39,40
 266 -6 266 -6 233 36 c 1,41,42
 202 -7 202 -7 140 -7 c 0,43,44
 82 -7 82 -7 48 49 c 0,45,46
 33 74 33 74 24 104.5 c 128,-1,47
 15 135 15 135 15 168 c 0,48,49
 15 255 15 255 62 306 c 0,50,51
 81 326 81 326 106 340 c 1,52,-1
 103 344 l 1,53,54
 66 375 66 375 66 414 c 2,55,-1
 67 426 l 1,56,-1
 151 426 l 1,57,-1
 149 415 l 1,58,59
 149 376 149 376 192 376 c 0,60,61
 206 376 206 376 225 391 c 1,62,-1
 258 428 l 2,63,64
 312 491 312 491 373 491 c 0,65,66
 392 491 392 491 413 481 c 1,67,-1
 413 402 l 1,68,69
 400 417 400 417 370 417 c 0,70,71
 337 417 337 417 311 390 c 2,72,-1
 288 365 l 1,0,-1
EndSplineSet
Substitution2: "Single Substitution lookup 23 subtable" U0C21_U0C4D_U0C30
Substitution2: "Single Substitution lookup 22 subtable" U0C21.haln
MultipleSubs2: "Multiple Substitution lookup 19 subtable" U0C21_U0C46 U0C56
EndChar

StartChar: U0C22
Encoding: 3106 3106 141
Width: 468
GlyphClass: 2
Flags: W
LayerCount: 2
Back
Fore
SplineSet
288 365 m 1,0,-1
 385 365 l 1,1,-1
 385 299 l 1,2,-1
 213 299 l 2,3,4
 154 299 154 299 120 261 c 0,5,6
 91 226 91 226 91 171 c 0,7,8
 91 129 91 129 108.5 100.5 c 128,-1,9
 126 72 126 72 157 72 c 0,10,11
 172 72 172 72 189 92 c 1,12,13
 202 115 202 115 202 137 c 2,14,-1
 200 152 l 1,15,-1
 282 152 l 1,16,-1
 280 135 l 1,17,18
 280 79 280 79 326 79 c 0,19,20
 346 79 346 79 362 99 c 128,-1,21
 378 119 378 119 378 140 c 256,22,23
 378 161 378 161 364 174 c 0,24,25
 355 186 355 186 340 189 c 0,26,27
 312 189 312 189 301 180 c 1,28,-1
 301 262 l 1,29,30
 318 267 318 267 336 267 c 0,31,32
 364 267 364 267 387 251 c 0,33,34
 448 214 448 214 448 140 c 0,35,36
 448 70 448 70 404 27 c 0,37,38
 365 -6 365 -6 311 -6 c 0,39,40
 266 -6 266 -6 233 36 c 1,41,42
 202 -7 202 -7 140 -7 c 0,43,44
 82 -7 82 -7 48 49 c 0,45,46
 33 74 33 74 24 104.5 c 128,-1,47
 15 135 15 135 15 168 c 0,48,49
 15 255 15 255 62 306 c 0,50,51
 81 326 81 326 106 340 c 1,52,-1
 103 344 l 1,53,54
 66 375 66 375 66 414 c 2,55,-1
 67 426 l 1,56,-1
 151 426 l 1,57,-1
 149 415 l 1,58,59
 149 376 149 376 192 376 c 0,60,61
 206 376 206 376 225 391 c 1,62,-1
 258 428 l 2,63,64
 312 491 312 491 373 491 c 0,65,66
 392 491 392 491 413 481 c 1,67,-1
 413 402 l 1,68,69
 400 417 400 417 370 417 c 0,70,71
 337 417 337 417 311 390 c 2,72,-1
 288 365 l 1,0,-1
276 -95 m 1,73,-1
 193 -95 l 1,74,-1
 193 -5 l 1,75,-1
 276 -5 l 1,76,-1
 276 -95 l 1,73,-1
EndSplineSet
Substitution2: "Single Substitution lookup 23 subtable" U0C22_U0C4D_U0C30
Substitution2: "Single Substitution lookup 22 subtable" U0C22.haln
MultipleSubs2: "Multiple Substitution lookup 19 subtable" U0C22_U0C46 U0C56
EndChar

StartChar: U0C23
Encoding: 3107 3107 142
Width: 477
GlyphClass: 2
Flags: W
LayerCount: 2
Back
Fore
SplineSet
457 180 m 0,0,1
 457 115 457 115 430 60 c 0,2,3
 393 -6 393 -6 323 -6 c 0,4,5
 278 -6 278 -6 245.5 19.5 c 128,-1,6
 213 45 213 45 213 91 c 0,7,8
 213 138 213 138 240.5 167 c 128,-1,9
 268 196 268 196 315 196 c 0,10,11
 369 196 369 196 381 177 c 1,12,13
 381 201 381 201 378 219.5 c 128,-1,14
 375 238 375 238 363 257 c 0,15,16
 346 292 346 292 312 292 c 0,17,18
 275 292 275 292 275 250 c 1,19,-1
 197 250 l 1,20,21
 197 271 197 271 178 289 c 0,22,23
 161 303 161 303 145 303 c 0,24,25
 99 303 99 303 99 271 c 0,26,27
 99 257 99 257 110.5 245 c 128,-1,28
 122 233 122 233 137 233 c 0,29,30
 147 233 147 233 155 237 c 1,31,-1
 155 171 l 1,32,-1
 146 172 l 2,33,34
 126 172 126 172 110 156 c 0,35,36
 94 138 94 138 94 117 c 0,37,38
 94 95 94 95 110.5 83.5 c 128,-1,39
 127 72 127 72 148 72 c 0,40,41
 160 72 160 72 168 76 c 1,42,-1
 168 1 l 1,43,44
 146 -5 146 -5 125 -5 c 0,45,46
 80 -5 80 -5 47 23 c 0,47,48
 16 51 16 51 16 95 c 0,49,50
 16 171 16 171 57 193 c 1,51,52
 15 216 15 216 15 261 c 0,53,54
 15 312 15 312 55 340 c 0,55,56
 93 367 93 367 144 367 c 0,57,58
 192 367 192 367 228 332 c 1,59,60
 258 365 258 365 324 365 c 0,61,62
 391 365 391 365 428 302 c 0,63,64
 457 247 457 247 457 180 c 0,0,1
358 96 m 0,65,66
 358 111 358 111 347 124.5 c 128,-1,67
 336 138 336 138 319 139 c 0,68,69
 307 139 307 139 293 126 c 0,70,71
 282 111 282 111 282 98 c 0,72,73
 282 59 282 59 322 59 c 0,74,75
 358 59 358 59 358 96 c 0,65,66
EndSplineSet
Substitution2: "Single Substitution lookup 23 subtable" U0C23_U0C4D_U0C30
Substitution2: "Single Substitution lookup 22 subtable" U0C23.haln
MultipleSubs2: "Multiple Substitution lookup 19 subtable" U0C23_U0C46 U0C56
EndChar

StartChar: U0C24
Encoding: 3108 3108 143
Width: 515
GlyphClass: 2
Flags: W
LayerCount: 2
Back
Fore
SplineSet
153 190 m 0,0,1
 153 219 153 219 121 219 c 0,2,3
 109 219 109 219 96 211 c 1,4,5
 88 200 88 200 87 190 c 0,6,7
 87 179 87 179 96.5 171.5 c 128,-1,8
 106 164 106 164 121 163 c 0,9,10
 153 163 153 163 153 190 c 0,0,1
395 208 m 0,11,12
 395 219 395 219 385.5 231 c 128,-1,13
 376 243 376 243 362 243 c 0,14,15
 353 243 353 243 343 234 c 128,-1,16
 333 225 333 225 331 211 c 0,17,18
 331 181 331 181 359 181 c 0,19,20
 395 181 395 181 395 208 c 0,11,12
233 295 m 1,21,-1
 210 294 l 2,22,23
 164 294 164 294 127 323 c 0,24,25
 107 339 107 339 99 361.5 c 128,-1,26
 91 384 91 384 91 419 c 1,27,-1
 175 419 l 1,28,29
 172 414 172 414 172 405 c 0,30,31
 172 386 172 386 191 375 c 0,32,33
 199 370 199 370 209 367.5 c 128,-1,34
 219 365 219 365 228 365 c 0,35,36
 258 365 258 365 286 398 c 2,37,-1
 332 456 l 1,38,39
 364 489 364 489 409 489 c 0,40,41
 428 489 428 489 448 479 c 1,42,-1
 448 402 l 1,43,44
 440 415 440 415 409 415 c 0,45,46
 386 415 386 415 364 383 c 2,47,-1
 347 361 l 1,48,49
 382 353 382 353 411 329 c 0,50,51
 446 301 446 301 454 269 c 1,52,53
 495 229 495 229 495 177 c 0,54,55
 495 95 495 95 412 43 c 0,56,57
 336 -5 336 -5 242 -5 c 0,58,59
 149 -5 149 -5 83 43 c 0,60,61
 15 95 15 95 15 170 c 0,62,63
 15 211 15 211 40 239 c 0,64,65
 71 278 71 278 131 278 c 0,66,67
 170 278 170 278 194.5 256 c 128,-1,68
 219 234 219 234 219 197 c 0,69,70
 219 163 219 163 195.5 138.5 c 128,-1,71
 172 114 172 114 144 114 c 0,72,73
 123 114 123 114 104 127 c 1,74,75
 107 114 107 114 126 100 c 0,76,77
 140 90 140 90 153 83 c 0,78,79
 198 60 198 60 250 60 c 0,80,81
 304 60 304 60 336 76 c 0,82,83
 376 93 376 93 413 139 c 1,84,85
 393 128 393 128 375 122 c 128,-1,86
 357 116 357 116 344 116 c 0,87,88
 309 116 309 116 284 139.5 c 128,-1,89
 259 163 259 163 259 194 c 0,90,91
 259 230 259 230 286 257 c 0,92,93
 297 269 297 269 313.5 273.5 c 128,-1,94
 330 278 330 278 351 278 c 1,95,96
 333 289 333 289 302 292 c 2,97,-1
 233 295 l 1,21,-1
EndSplineSet
Substitution2: "Single Substitution lookup 23 subtable" U0C24_U0C4D_U0C30
Substitution2: "Single Substitution lookup 22 subtable" U0C24.haln
MultipleSubs2: "Multiple Substitution lookup 19 subtable" U0C24_U0C46 U0C56
EndChar

StartChar: U0C25
Encoding: 3109 3109 144
Width: 470
GlyphClass: 2
Flags: W
LayerCount: 2
Back
Fore
SplineSet
374 180 m 0,0,1
 374 203 374 203 366 223.5 c 128,-1,2
 358 244 358 244 343 261 c 0,3,4
 304 302 304 302 238 302 c 0,5,6
 189 302 189 302 142.5 259.5 c 128,-1,7
 96 217 96 217 96 153 c 0,8,9
 96 126 96 126 109 102.5 c 128,-1,10
 122 79 122 79 148 79 c 0,11,12
 192 79 192 79 192 161 c 1,13,-1
 272 161 l 1,14,-1
 269 129 l 1,15,16
 278 76 278 76 313 76 c 0,17,18
 341 76 341 76 354 100 c 128,-1,19
 367 124 367 124 370.5 142.5 c 128,-1,20
 374 161 374 161 374 180 c 0,0,1
101 324 m 1,21,22
 84 338 84 338 77 359.5 c 128,-1,23
 70 381 70 381 70 411 c 1,24,-1
 153 411 l 1,25,-1
 150 398 l 1,26,27
 150 365 150 365 195 365 c 0,28,29
 219 365 219 365 244 386 c 2,30,-1
 281 425 l 2,31,32
 299 447 299 447 310 452 c 0,33,34
 333 463 333 463 371 463 c 0,35,36
 404 463 404 463 418 454 c 1,37,-1
 418 381 l 1,38,39
 411 383 411 383 402 384.5 c 128,-1,40
 393 386 393 386 373 386 c 0,41,42
 338 386 338 386 298 356 c 1,43,44
 356 345 356 345 393 310 c 0,45,46
 450 260 450 260 450 167 c 0,47,48
 450 96 450 96 407 45 c 128,-1,49
 364 -6 364 -6 296 -6 c 0,50,51
 264 -6 264 -6 230 36 c 1,52,53
 193 -7 193 -7 146 -7 c 0,54,55
 90 -7 90 -7 52.5 41.5 c 128,-1,56
 15 90 15 90 15 158 c 0,57,58
 15 256 15 256 83 311 c 1,59,-1
 101 324 l 1,21,22
263 196 m 0,60,61
 254 181 254 181 232 181 c 0,62,63
 221 181 221 181 213 185 c 0,64,65
 197 194 197 194 197 217 c 0,66,67
 197 227 197 227 204 239 c 128,-1,68
 211 251 211 251 234 251 c 0,69,70
 244 251 244 251 252 247 c 0,71,72
 267 238 267 238 267 215 c 0,73,74
 267 204 267 204 263 196 c 0,60,61
265 -95 m 1,75,-1
 183 -95 l 1,76,-1
 183 -5 l 1,77,-1
 265 -5 l 1,78,-1
 265 -95 l 1,75,-1
EndSplineSet
Substitution2: "Single Substitution lookup 23 subtable" U0C25_U0C4D_U0C30
Substitution2: "Single Substitution lookup 22 subtable" U0C25.haln
MultipleSubs2: "Multiple Substitution lookup 19 subtable" U0C25_U0C46 U0C56
EndChar

StartChar: U0C26
Encoding: 3110 3110 145
Width: 470
GlyphClass: 2
Flags: W
LayerCount: 2
Back
Fore
SplineSet
374 180 m 0,0,1
 374 203 374 203 366 223.5 c 128,-1,2
 358 244 358 244 343 261 c 0,3,4
 304 302 304 302 238 302 c 0,5,6
 189 302 189 302 142.5 259.5 c 128,-1,7
 96 217 96 217 96 153 c 0,8,9
 96 126 96 126 109 102.5 c 128,-1,10
 122 79 122 79 148 79 c 0,11,12
 192 79 192 79 192 161 c 1,13,-1
 272 161 l 1,14,-1
 269 129 l 1,15,16
 278 76 278 76 313 76 c 0,17,18
 341 76 341 76 354 100 c 128,-1,19
 367 124 367 124 370.5 142.5 c 128,-1,20
 374 161 374 161 374 180 c 0,0,1
101 324 m 1,21,22
 84 338 84 338 77 359.5 c 128,-1,23
 70 381 70 381 70 411 c 1,24,-1
 153 411 l 1,25,-1
 150 398 l 1,26,27
 150 365 150 365 195 365 c 0,28,29
 219 365 219 365 244 386 c 2,30,-1
 281 425 l 2,31,32
 299 447 299 447 310 452 c 0,33,34
 333 463 333 463 371 463 c 0,35,36
 404 463 404 463 418 454 c 1,37,-1
 418 381 l 1,38,39
 411 383 411 383 402 384.5 c 128,-1,40
 393 386 393 386 373 386 c 0,41,42
 338 386 338 386 298 356 c 1,43,44
 356 345 356 345 393 310 c 0,45,46
 450 260 450 260 450 167 c 0,47,48
 450 96 450 96 407 45 c 128,-1,49
 364 -6 364 -6 296 -6 c 0,50,51
 264 -6 264 -6 230 36 c 1,52,53
 193 -7 193 -7 146 -7 c 0,54,55
 90 -7 90 -7 52.5 41.5 c 128,-1,56
 15 90 15 90 15 158 c 0,57,58
 15 256 15 256 83 311 c 1,59,-1
 101 324 l 1,21,22
EndSplineSet
Substitution2: "Single Substitution lookup 23 subtable" U0C26_U0C4D_U0C30
Substitution2: "Single Substitution lookup 22 subtable" U0C26.haln
MultipleSubs2: "Multiple Substitution lookup 19 subtable" U0C26_U0C46 U0C56
EndChar

StartChar: U0C27
Encoding: 3111 3111 146
Width: 470
GlyphClass: 2
Flags: W
LayerCount: 2
Back
Fore
SplineSet
374 180 m 0,0,1
 374 203 374 203 366 223.5 c 128,-1,2
 358 244 358 244 343 261 c 0,3,4
 304 302 304 302 238 302 c 0,5,6
 189 302 189 302 142.5 259.5 c 128,-1,7
 96 217 96 217 96 153 c 0,8,9
 96 126 96 126 109 102.5 c 128,-1,10
 122 79 122 79 148 79 c 0,11,12
 192 79 192 79 192 161 c 1,13,-1
 272 161 l 1,14,-1
 269 129 l 1,15,16
 278 76 278 76 313 76 c 0,17,18
 341 76 341 76 354 100 c 128,-1,19
 367 124 367 124 370.5 142.5 c 128,-1,20
 374 161 374 161 374 180 c 0,0,1
101 324 m 1,21,22
 84 338 84 338 77 359.5 c 128,-1,23
 70 381 70 381 70 411 c 1,24,-1
 153 411 l 1,25,-1
 150 398 l 1,26,27
 150 365 150 365 195 365 c 0,28,29
 219 365 219 365 244 386 c 2,30,-1
 281 425 l 2,31,32
 299 447 299 447 310 452 c 0,33,34
 333 463 333 463 371 463 c 0,35,36
 404 463 404 463 418 454 c 1,37,-1
 418 381 l 1,38,39
 411 383 411 383 402 384.5 c 128,-1,40
 393 386 393 386 373 386 c 0,41,42
 338 386 338 386 298 356 c 1,43,44
 356 345 356 345 393 310 c 0,45,46
 450 260 450 260 450 167 c 0,47,48
 450 96 450 96 407 45 c 128,-1,49
 364 -6 364 -6 296 -6 c 0,50,51
 264 -6 264 -6 230 36 c 1,52,53
 193 -7 193 -7 146 -7 c 0,54,55
 90 -7 90 -7 52.5 41.5 c 128,-1,56
 15 90 15 90 15 158 c 0,57,58
 15 256 15 256 83 311 c 1,59,-1
 101 324 l 1,21,22
265 -95 m 1,60,-1
 183 -95 l 1,61,-1
 183 -5 l 1,62,-1
 265 -5 l 1,63,-1
 265 -95 l 1,60,-1
EndSplineSet
Substitution2: "Single Substitution lookup 23 subtable" U0C27_U0C4D_U0C30
Substitution2: "Single Substitution lookup 22 subtable" U0C27.haln
MultipleSubs2: "Multiple Substitution lookup 19 subtable" U0C27_U0C46 U0C56
EndChar

StartChar: U0C28
Encoding: 3112 3112 147
Width: 479
GlyphClass: 2
Flags: W
LayerCount: 2
Back
Fore
SplineSet
459 182 m 0,0,1
 459 100 459 100 403 43 c 0,2,3
 353 -7 353 -7 289 -7 c 0,4,5
 243 -7 243 -7 210 23 c 128,-1,6
 177 53 177 53 177 102 c 2,7,-1
 178 123 l 1,8,-1
 181 146 l 1,9,10
 181 182 181 182 153 182 c 0,11,12
 128 182 128 182 115 163.5 c 128,-1,13
 102 145 102 145 102 120 c 0,14,15
 102 61 102 61 175 1 c 1,16,-1
 77 1 l 1,17,18
 62 8 62 8 44 36 c 0,19,20
 21 69 21 69 21 106 c 0,21,22
 21 168 21 168 57.5 208 c 128,-1,23
 94 248 94 248 156 248 c 0,24,25
 257 248 257 248 257 123 c 0,26,27
 257 75 257 75 298 75 c 0,28,29
 330 75 330 75 353 110 c 128,-1,30
 376 145 376 145 376 174 c 0,31,32
 376 284 376 284 263 284 c 1,33,-1
 210 282 l 1,34,-1
 166 280 l 1,35,36
 15 280 15 280 15 403 c 1,37,-1
 93 403 l 1,38,39
 90 386 90 386 106 368.5 c 128,-1,40
 122 351 122 351 143 351 c 0,41,42
 178 351 178 351 201 381 c 2,43,-1
 248 442 l 1,44,45
 283 472 283 472 341 472 c 2,46,-1
 382 472 l 1,47,-1
 382 387 l 1,48,49
 366 395 366 395 341 395 c 0,50,51
 291 395 291 395 264 351 c 1,52,-1
 291 354 l 1,53,54
 353 354 353 354 389 324 c 0,55,56
 459 268 459 268 459 182 c 0,0,1
EndSplineSet
Substitution2: "Single Substitution lookup 23 subtable" U0C28_U0C4D_U0C30
Substitution2: "Single Substitution lookup 22 subtable" U0C28.haln
MultipleSubs2: "Multiple Substitution lookup 19 subtable" U0C28_U0C46 U0C56
EndChar

StartChar: U0C2A
Encoding: 3114 3114 148
Width: 485
GlyphClass: 2
Flags: W
LayerCount: 2
Back
Fore
SplineSet
465 177 m 0,0,1
 465 102 465 102 420.5 47.5 c 128,-1,2
 376 -7 376 -7 308 -7 c 0,3,4
 257 -7 257 -7 224 29 c 1,5,6
 194 -7 194 -7 128 -7 c 0,7,8
 73 -7 73 -7 43 31 c 0,9,10
 15 63 15 63 15 111 c 0,11,12
 15 158 15 158 47 191 c 1,13,14
 81 233 81 233 150 233 c 0,15,16
 199 233 199 233 234.5 194 c 128,-1,17
 270 155 270 155 270 106 c 1,18,19
 281 74 281 74 314 74 c 0,20,21
 345 74 345 74 365 104.5 c 128,-1,22
 385 135 385 135 385 173 c 0,23,24
 385 282 385 282 279 282 c 1,25,-1
 279 365 l 1,26,27
 325 365 325 365 358 351.5 c 128,-1,28
 391 338 391 338 419 306 c 0,29,30
 465 250 465 250 465 177 c 0,0,1
188 114 m 0,31,32
 188 133 188 133 173 146 c 1,33,34
 162 161 162 161 140 161 c 0,35,36
 96 161 96 161 96 111 c 0,37,38
 96 67 96 67 140 67 c 0,39,40
 160 67 160 67 174 80 c 128,-1,41
 188 93 188 93 188 114 c 0,31,32
341 424 m 1,42,43
 333 428 333 428 318 428 c 0,44,45
 289 428 289 428 265 402 c 2,46,-1
 217 346 l 1,47,48
 176 307 176 307 111 307 c 0,49,50
 69 307 69 307 43 333 c 0,51,52
 16 356 16 356 16 395 c 1,53,-1
 96 395 l 1,54,55
 96 369 96 369 128 369 c 0,56,57
 156 369 156 369 181 404 c 2,58,-1
 224 466 l 1,59,60
 256 501 256 501 308 501 c 0,61,62
 327 501 327 501 341 492 c 1,63,-1
 341 424 l 1,42,43
EndSplineSet
Substitution2: "Single Substitution lookup 23 subtable" U0C2A_U0C4D_U0C30
Substitution2: "Single Substitution lookup 22 subtable" U0C2A.haln
MultipleSubs2: "Multiple Substitution lookup 19 subtable" U0C2A_U0C46 U0C56
EndChar

StartChar: U0C2B
Encoding: 3115 3115 149
Width: 485
GlyphClass: 2
Flags: W
LayerCount: 2
Back
Fore
SplineSet
465 177 m 0,0,1
 465 102 465 102 420.5 47.5 c 128,-1,2
 376 -7 376 -7 308 -7 c 0,3,4
 257 -7 257 -7 224 29 c 1,5,6
 194 -7 194 -7 128 -7 c 0,7,8
 73 -7 73 -7 43 31 c 0,9,10
 15 63 15 63 15 111 c 0,11,12
 15 158 15 158 47 191 c 1,13,14
 81 233 81 233 150 233 c 0,15,16
 199 233 199 233 234.5 194 c 128,-1,17
 270 155 270 155 270 106 c 1,18,19
 281 74 281 74 314 74 c 0,20,21
 345 74 345 74 365 104.5 c 128,-1,22
 385 135 385 135 385 173 c 0,23,24
 385 282 385 282 279 282 c 1,25,-1
 279 365 l 1,26,27
 325 365 325 365 358 351.5 c 128,-1,28
 391 338 391 338 419 306 c 0,29,30
 465 250 465 250 465 177 c 0,0,1
188 114 m 0,31,32
 188 133 188 133 173 146 c 1,33,34
 162 161 162 161 140 161 c 0,35,36
 96 161 96 161 96 111 c 0,37,38
 96 67 96 67 140 67 c 0,39,40
 160 67 160 67 174 80 c 128,-1,41
 188 93 188 93 188 114 c 0,31,32
264 -94 m 1,42,-1
 182 -94 l 1,43,-1
 182 -5 l 1,44,-1
 264 -5 l 1,45,-1
 264 -94 l 1,42,-1
341 424 m 1,46,47
 333 428 333 428 318 428 c 0,48,49
 289 428 289 428 265 402 c 2,50,-1
 217 346 l 1,51,52
 176 307 176 307 111 307 c 0,53,54
 69 307 69 307 43 333 c 0,55,56
 16 356 16 356 16 395 c 1,57,-1
 96 395 l 1,58,59
 96 369 96 369 128 369 c 0,60,61
 156 369 156 369 181 404 c 2,62,-1
 224 466 l 1,63,64
 256 501 256 501 308 501 c 0,65,66
 327 501 327 501 341 492 c 1,67,-1
 341 424 l 1,46,47
EndSplineSet
Substitution2: "Single Substitution lookup 23 subtable" U0C2B_U0C4D_U0C30
Substitution2: "Single Substitution lookup 22 subtable" U0C2B.haln
MultipleSubs2: "Multiple Substitution lookup 19 subtable" U0C2B_U0C46 U0C56
EndChar

StartChar: U0C2C
Encoding: 3116 3116 150
Width: 489
GlyphClass: 2
Flags: W
LayerCount: 2
Back
Fore
SplineSet
469 175 m 0,0,1
 469 98 469 98 420 47.5 c 128,-1,2
 371 -3 371 -3 296 -3 c 0,3,4
 275 -3 275 -3 258 7 c 0,5,6
 255 8 255 8 231 34 c 1,7,8
 189 -5 189 -5 131 -5 c 0,9,10
 76 -5 76 -5 47 29 c 1,11,12
 17 58 17 58 17 106 c 0,13,14
 17 189 17 189 109 219 c 2,15,-1
 148 230 l 2,16,17
 166 239 166 239 166 259 c 0,18,19
 166 291 166 291 131 291 c 0,20,21
 83 291 83 291 83 243 c 1,22,-1
 15 243 l 1,23,24
 15 362 15 362 136 362 c 0,25,26
 182 362 182 362 210.5 334.5 c 128,-1,27
 239 307 239 307 239 261 c 0,28,29
 239 214 239 214 202 188 c 1,30,-1
 134 158 l 2,31,32
 98 141 98 141 98 111 c 0,33,34
 98 96 98 96 110.5 84 c 128,-1,35
 123 72 123 72 145 72 c 0,36,37
 183 72 183 72 191 106 c 0,38,39
 192 112 192 112 192 125 c 0,40,41
 192 130 192 130 190 139 c 1,42,-1
 270 139 l 1,43,-1
 270 120 l 2,44,45
 270 98 270 98 291 85 c 0,46,47
 307 75 307 75 324 73 c 0,48,49
 355 73 355 73 376.5 108.5 c 128,-1,50
 398 144 398 144 398 184 c 0,51,52
 398 219 398 219 377 250 c 0,53,54
 351 287 351 287 314 287 c 0,55,56
 301 287 301 287 285 280 c 1,57,-1
 285 360 l 1,58,-1
 318 362 l 2,59,60
 382 362 382 362 425.5 310 c 128,-1,61
 469 258 469 258 469 175 c 0,0,1
EndSplineSet
Substitution2: "Single Substitution lookup 23 subtable" U0C2C_U0C4D_U0C30
Substitution2: "Single Substitution lookup 22 subtable" U0C2C.haln
MultipleSubs2: "Multiple Substitution lookup 19 subtable" U0C2C_U0C46 U0C56
EndChar

StartChar: U0C2D
Encoding: 3117 3117 151
Width: 501
GlyphClass: 2
Flags: W
LayerCount: 2
Back
Fore
SplineSet
382 349 m 1,0,1
 408 332 408 332 426 310 c 0,2,3
 469 257 469 257 469 175 c 0,4,5
 469 98 469 98 420 47.5 c 128,-1,6
 371 -3 371 -3 296 -3 c 0,7,8
 275 -3 275 -3 258 7 c 0,9,10
 255 8 255 8 231 34 c 1,11,12
 189 -5 189 -5 131 -5 c 0,13,14
 76 -5 76 -5 47 29 c 1,15,16
 17 58 17 58 17 106 c 0,17,18
 17 189 17 189 109 219 c 2,19,-1
 148 230 l 2,20,21
 166 239 166 239 166 259 c 0,22,23
 166 291 166 291 131 291 c 0,24,25
 83 291 83 291 83 243 c 1,26,-1
 15 243 l 1,27,28
 15 362 15 362 136 362 c 0,29,30
 182 362 182 362 210.5 334.5 c 128,-1,31
 239 307 239 307 239 261 c 0,32,33
 239 214 239 214 202 188 c 1,34,-1
 134 158 l 2,35,36
 98 141 98 141 98 111 c 0,37,38
 98 96 98 96 110.5 84 c 128,-1,39
 123 72 123 72 145 72 c 0,40,41
 183 72 183 72 191 106 c 0,42,43
 192 112 192 112 192 125 c 0,44,45
 192 130 192 130 190 139 c 1,46,-1
 270 139 l 1,47,-1
 270 120 l 2,48,49
 270 98 270 98 291 85 c 0,50,51
 307 75 307 75 324 73 c 0,52,53
 355 73 355 73 376.5 108.5 c 128,-1,54
 398 144 398 144 398 184 c 0,55,56
 398 255 398 255 343 291 c 0,57,58
 327 303 327 303 293 306 c 1,59,-1
 285 309 l 1,60,61
 257 312 257 312 238 334 c 0,62,63
 213 360 213 360 213 408 c 2,64,-1
 213 413 l 1,65,-1
 286 413 l 1,66,-1
 285 406 l 1,67,-1
 283 401 l 1,68,69
 283 388 283 388 291.5 377.5 c 128,-1,70
 300 367 300 367 314 367 c 0,71,72
 325 366 325 366 343 388 c 0,73,74
 356 406 356 406 365.5 416 c 128,-1,75
 375 426 375 426 382 434 c 0,76,77
 410 459 410 459 445 459 c 0,78,79
 459 459 459 459 478 450 c 1,80,-1
 481 446 l 1,81,-1
 481 388 l 1,82,83
 476 383 476 383 474 383 c 2,84,-1
 458 392 l 2,85,86
 456 393 456 393 441 397 c 1,87,88
 422 397 422 397 401 369 c 1,89,-1
 382 349 l 1,0,1
265 -95 m 1,90,-1
 183 -95 l 1,91,-1
 183 -5 l 1,92,-1
 265 -5 l 1,93,-1
 265 -95 l 1,90,-1
EndSplineSet
Substitution2: "Single Substitution lookup 23 subtable" U0C2D_U0C4D_U0C30
Substitution2: "Single Substitution lookup 22 subtable" U0C2D.haln
MultipleSubs2: "Multiple Substitution lookup 19 subtable" U0C2D_U0C46 U0C56
EndChar

StartChar: U0C2E
Encoding: 3118 3118 152
Width: 683
GlyphClass: 2
Flags: W
LayerCount: 2
Back
Fore
SplineSet
187 114 m 0,0,1
 187 168 187 168 145 168 c 0,2,3
 94 168 94 168 94 123 c 0,4,5
 94 71 94 71 137 71 c 0,6,7
 155 71 155 71 171 83.5 c 128,-1,8
 187 96 187 96 187 114 c 0,0,1
448 139 m 1,9,-1
 456 117 l 1,10,11
 476 74 476 74 516 74 c 0,12,13
 546 74 546 74 568.5 109.5 c 128,-1,14
 591 145 591 145 591 184 c 0,15,16
 591 219 591 219 573 251 c 0,17,18
 547 291 547 291 509 291 c 2,19,-1
 478 290 l 1,20,-1
 478 362 l 1,21,-1
 512 364 l 2,22,23
 576 364 576 364 619.5 311 c 128,-1,24
 663 258 663 258 663 175 c 0,25,26
 663 101 663 101 614 47.5 c 128,-1,27
 565 -6 565 -6 499 -6 c 0,28,29
 436 -6 436 -6 398 32 c 1,30,-1
 396 30 l 2,31,32
 353 -8 353 -8 287 -8 c 0,33,34
 236 -8 236 -8 210 29 c 1,35,36
 186 -6 186 -6 129 -6 c 0,37,38
 88 -6 88 -6 57 24 c 0,39,40
 16 57 16 57 16 118 c 0,41,42
 16 169 16 169 53.5 203 c 128,-1,43
 91 237 91 237 143 237 c 0,44,45
 194 237 194 237 231 204 c 128,-1,46
 268 171 268 171 268 104 c 1,47,48
 282 76 282 76 299 76 c 0,49,50
 331 76 331 76 350.5 106 c 128,-1,51
 370 136 370 136 370 170 c 0,52,53
 370 221 370 221 335 255 c 0,54,55
 301 289 301 289 250 289 c 0,56,57
 231 289 231 289 193.5 282.5 c 128,-1,58
 156 276 156 276 135 276 c 0,59,60
 83 276 83 276 48 310 c 0,61,62
 29 327 29 327 22 349 c 128,-1,63
 15 371 15 371 15 403 c 1,64,-1
 96 403 l 1,65,66
 94 386 94 386 105 370 c 128,-1,67
 116 354 116 354 139 354 c 0,68,69
 171 354 171 354 203 388 c 2,70,-1
 259 455 l 1,71,72
 297 490 297 490 346 490 c 0,73,74
 368 490 368 490 377 486 c 1,75,-1
 377 399 l 1,76,77
 353 413 353 413 338 414 c 0,78,79
 293 414 293 414 267 362 c 1,80,81
 448 362 448 362 448 148 c 2,82,-1
 448 139 l 1,9,-1
EndSplineSet
Substitution2: "Single Substitution lookup 23 subtable" U0C2E_U0C4D_U0C30
Substitution2: "Single Substitution lookup 22 subtable" U0C2E.haln
MultipleSubs2: "Multiple Substitution lookup 19 subtable" U0C2E_U0C46 U0C56
EndChar

StartChar: U0C2F
Encoding: 3119 3119 153
Width: 923
GlyphClass: 2
Flags: W
LayerCount: 2
Back
Fore
SplineSet
331 180 m 0,0,1
 331 232 331 232 296 262.5 c 128,-1,2
 261 293 261 293 211 293 c 0,3,4
 167 293 167 293 133 261.5 c 128,-1,5
 99 230 99 230 99 184 c 0,6,7
 99 133 99 133 128 100 c 1,8,9
 161 70 161 70 206 70 c 0,10,11
 258 70 258 70 293 101 c 0,12,13
 331 131 331 131 331 180 c 0,0,1
678 149 m 1,14,15
 683 136 683 136 689 127 c 128,-1,16
 695 118 695 118 695 117 c 0,17,18
 716 74 716 74 755 74 c 0,19,20
 786 74 786 74 809 111 c 0,21,22
 830 142 830 142 830 184 c 0,23,24
 830 222 830 222 811 251 c 0,25,26
 787 291 787 291 748 291 c 2,27,-1
 718 290 l 1,28,-1
 718 362 l 1,29,-1
 751 364 l 2,30,31
 815 364 815 364 859 310 c 128,-1,32
 903 256 903 256 903 175 c 0,33,34
 903 100 903 100 854.5 47 c 128,-1,35
 806 -6 806 -6 739 -6 c 0,36,37
 670 -6 670 -6 633 38 c 2,38,-1
 629 43 l 1,39,40
 582 -6 582 -6 517 -6 c 0,41,42
 420 -6 420 -6 371 81 c 1,43,44
 308 -5 308 -5 204 -5 c 0,45,46
 116 -5 116 -5 65.5 50.5 c 128,-1,47
 15 106 15 106 15 189 c 0,48,49
 15 261 15 261 77 314 c 128,-1,50
 139 367 139 367 217 367 c 0,51,52
 294 367 294 367 348 316 c 0,53,54
 377 289 377 289 392 258 c 128,-1,55
 407 227 407 227 407 191 c 1,56,57
 433 129 433 129 452 107 c 0,58,59
 479 74 479 74 520 74 c 0,60,61
 560 74 560 74 585 111 c 0,62,63
 608 141 608 141 608 184 c 0,64,65
 608 222 608 222 588 251 c 0,66,67
 566 290 566 290 523 290 c 2,68,-1
 452 292 l 1,69,-1
 445 292 l 2,70,71
 399 292 399 292 363 321 c 0,72,73
 343 337 343 337 334.5 359.5 c 128,-1,74
 326 382 326 382 326 416 c 1,75,-1
 410 416 l 1,76,77
 408 412 408 412 408 403 c 0,78,79
 408 383 408 383 426.5 372.5 c 128,-1,80
 445 362 445 362 464 362 c 0,81,82
 494 362 494 362 521 395 c 2,83,-1
 568 454 l 2,84,85
 598 486 598 486 644 486 c 0,86,87
 663 486 663 486 684 477 c 1,88,-1
 684 400 l 1,89,90
 675 413 675 413 644 413 c 0,91,92
 621 413 621 413 599 381 c 2,93,-1
 578 354 l 1,94,95
 611 339 611 339 635 309 c 0,96,97
 679 256 679 256 679 175 c 2,98,-1
 678 149 l 1,14,15
EndSplineSet
Substitution2: "Single Substitution lookup 23 subtable" U0C2F_U0C4D_U0C30
Substitution2: "Single Substitution lookup 22 subtable" U0C2F.haln
MultipleSubs2: "Multiple Substitution lookup 19 subtable" U0C2F_U0C46 U0C56
EndChar

StartChar: U0C30
Encoding: 3120 3120 154
Width: 427
GlyphClass: 2
Flags: W
LayerCount: 2
Back
Fore
SplineSet
326 180 m 0,0,1
 326 232 326 232 293 260 c 0,2,3
 260 290 260 290 211 290 c 0,4,5
 166 290 166 290 134 259 c 0,6,7
 102 230 102 230 102 184 c 0,8,9
 102 135 102 135 131 102 c 1,10,11
 162 73 162 73 206 73 c 0,12,13
 255 73 255 73 290.5 103.5 c 128,-1,14
 326 134 326 134 326 180 c 0,0,1
35 405 m 1,15,-1
 122 405 l 1,16,17
 118 386 118 386 136.5 375 c 128,-1,18
 155 364 155 364 177 364 c 2,19,-1
 187 365 l 2,20,21
 205 368 205 368 228 390 c 1,22,-1
 270 443 l 1,23,24
 302 470 302 470 349 470 c 0,25,26
 373 470 373 470 389 457 c 1,27,-1
 389 381 l 1,28,29
 370 395 370 395 349 395 c 0,30,31
 315 395 315 395 279 358 c 1,32,33
 322 344 322 344 352 313 c 0,34,35
 407 261 407 261 407 180 c 0,36,37
 407 103 407 103 344.5 49 c 128,-1,38
 282 -5 282 -5 204 -5 c 0,39,40
 116 -5 116 -5 65.5 50.5 c 128,-1,41
 15 106 15 106 15 189 c 0,42,43
 15 261 15 261 76 314 c 1,44,45
 35 346 35 346 35 405 c 1,15,-1
EndSplineSet
Substitution2: "Single Substitution lookup 23 subtable" U0C30_U0C4D_U0C30
Substitution2: "Single Substitution lookup 22 subtable" U0C30.haln
MultipleSubs2: "Multiple Substitution lookup 19 subtable" U0C30_U0C46 U0C56
EndChar

StartChar: U0C31
Encoding: 3121 3121 155
Width: 514
GlyphClass: 2
Flags: W
LayerCount: 2
Back
Fore
SplineSet
494 173 m 0,0,1
 494 101 494 101 454 50 c 0,2,3
 411 -5 411 -5 344 -5 c 0,4,5
 281 -5 281 -5 242 39 c 1,6,7
 228 -5 228 -5 142 -5 c 0,8,9
 87 -5 87 -5 51 41 c 128,-1,10
 15 87 15 87 15 151 c 0,11,12
 15 233 15 233 45 294 c 0,13,14
 81 369 81 369 150 369 c 0,15,16
 182 369 182 369 208 346.5 c 128,-1,17
 234 324 234 324 234 293 c 0,18,19
 234 244 234 244 208 213 c 1,20,-1
 258 213 l 1,21,22
 249 237 249 237 249 258 c 0,23,24
 249 304 249 304 278.5 334.5 c 128,-1,25
 308 365 308 365 354 365 c 0,26,27
 423 365 423 365 463 304 c 0,28,29
 494 251 494 251 494 173 c 0,0,1
418 190 m 0,30,31
 418 227 418 227 401 256 c 0,32,33
 382 292 382 292 349 292 c 0,34,35
 319 292 319 292 319 260 c 0,36,37
 319 227 319 227 356 215 c 1,38,-1
 356 139 l 1,39,-1
 148 139 l 1,40,-1
 148 177 l 1,41,42
 143 173 143 173 135.5 172 c 128,-1,43
 128 171 128 171 125 171 c 0,44,45
 115 171 115 171 105 178 c 1,46,-1
 101 149 l 1,47,48
 101 117 101 117 116.5 89 c 128,-1,49
 132 61 132 61 164 61 c 0,50,51
 209 61 209 61 209 119 c 1,52,-1
 296 119 l 1,53,-1
 296 103 l 2,54,55
 296 69 296 69 337 69 c 256,56,57
 378 69 378 69 399 107 c 0,58,59
 418 141 418 141 418 190 c 0,30,31
173 271 m 0,60,61
 173 303 173 303 146 303 c 0,62,63
 117 303 117 303 117 271 c 0,64,65
 117 240 117 240 146 240 c 0,66,67
 173 240 173 240 173 271 c 0,60,61
EndSplineSet
Substitution2: "Single Substitution lookup 23 subtable" U0C31_U0C4D_U0C30
Substitution2: "Single Substitution lookup 22 subtable" U0C31.haln
MultipleSubs2: "Multiple Substitution lookup 19 subtable" U0C31_U0C46 U0C56
EndChar

StartChar: U0C32
Encoding: 3122 3122 156
Width: 471
GlyphClass: 2
Flags: W
LayerCount: 2
Back
Fore
SplineSet
451 186 m 256,0,1
 451 95 451 95 384.5 43.5 c 128,-1,2
 318 -8 318 -8 232 -8 c 0,3,4
 124 -8 124 -8 67 54 c 0,5,6
 15 109 15 109 15 197 c 0,7,8
 15 268 15 268 50 316 c 0,9,10
 69 340 69 340 95 351 c 128,-1,11
 121 362 121 362 158 362 c 0,12,13
 197 362 197 362 220 333 c 0,14,15
 245 306 245 306 245 267 c 0,16,17
 245 222 245 222 217 193 c 128,-1,18
 189 164 189 164 147 164 c 0,19,20
 116 164 116 164 93 184 c 1,21,22
 93 161 93 161 98 146 c 0,23,24
 107 116 107 116 137 95 c 0,25,26
 176 70 176 70 231 70 c 0,27,28
 289 70 289 70 331 95 c 0,29,30
 379 127 379 127 379 184 c 0,31,32
 379 248 379 248 353 269 c 128,-1,33
 327 290 327 290 287 291 c 1,34,-1
 287 358 l 1,35,36
 314 367 314 367 342 356 c 128,-1,37
 370 345 370 345 393 325 c 0,38,39
 451 277 451 277 451 186 c 256,0,1
177 266 m 0,40,41
 177 279 177 279 168 293 c 0,42,43
 158 306 158 306 146 306 c 0,44,45
 127 306 127 306 119 298.5 c 128,-1,46
 111 291 111 291 109 271 c 0,47,48
 109 229 109 229 140 229 c 0,49,50
 173 229 173 229 177 266 c 0,40,41
EndSplineSet
Substitution2: "Single Substitution lookup 23 subtable" U0C32_U0C4D_U0C30
Substitution2: "Single Substitution lookup 22 subtable" U0C32.haln
MultipleSubs2: "Multiple Substitution lookup 19 subtable" U0C32_U0C46 U0C56
EndChar

StartChar: U0C33
Encoding: 3123 3123 157
Width: 479
GlyphClass: 2
Flags: W
LayerCount: 2
Back
Fore
SplineSet
302 118 m 0,0,1
 302 156 302 156 221 156 c 0,2,3
 200 156 200 156 191.5 154.5 c 128,-1,4
 183 153 183 153 168 146 c 0,5,6
 140 134 140 134 140 109 c 0,7,8
 140 59 140 59 217 59 c 0,9,10
 249 59 249 59 271 74 c 0,11,12
 302 90 302 90 302 118 c 0,0,1
131 293 m 0,13,14
 131 305 131 305 122.5 313 c 128,-1,15
 114 321 114 321 102 321 c 0,16,17
 76 317 76 317 76 289 c 0,18,19
 76 265 76 265 105 265 c 0,20,21
 135 268 135 268 131 293 c 0,13,14
269 309 m 1,22,-1
 260 307 l 1,23,24
 219 307 219 307 190.5 334 c 128,-1,25
 162 361 162 361 162 400 c 1,26,-1
 164 413 l 1,27,-1
 164 415 l 1,28,-1
 244 415 l 1,29,-1
 244 412 l 1,30,-1
 243 395 l 2,31,32
 243 368 243 368 267 368 c 0,33,34
 282 368 282 368 326 416 c 0,35,36
 355 452 355 452 373 464 c 0,37,38
 396 481 396 481 422 481 c 0,39,40
 441 481 441 481 459 474 c 1,41,-1
 459 395 l 1,42,43
 446 410 446 410 420 410 c 0,44,45
 408 410 408 410 398 401 c 0,46,47
 396 399 396 399 378 379 c 2,48,-1
 360 360 l 1,49,50
 378 353 378 353 390.5 332.5 c 128,-1,51
 403 312 403 312 403 280 c 0,52,53
 403 236 403 236 341 193 c 1,54,55
 368 173 368 173 368 123 c 0,56,57
 368 84 368 84 343 51 c 0,58,59
 323 23 323 23 290 8 c 128,-1,60
 257 -7 257 -7 210 -7 c 0,61,62
 148 -7 148 -7 108 22 c 128,-1,63
 68 51 68 51 68 109 c 0,64,65
 68 158 68 158 110 186 c 1,66,67
 72 193 72 193 47 219 c 0,68,69
 15 247 15 247 15 292 c 0,70,71
 15 375 15 375 103 375 c 0,72,73
 139 375 139 375 160 355.5 c 128,-1,74
 181 336 181 336 181 305 c 0,75,76
 181 280 181 280 175.5 267.5 c 128,-1,77
 170 255 170 255 143 236 c 1,78,79
 176 216 176 216 227 216 c 0,80,81
 260 216 260 216 300.5 233.5 c 128,-1,82
 341 251 341 251 341 276 c 0,83,84
 341 309 341 309 298 309 c 2,85,-1
 269 309 l 1,22,-1
EndSplineSet
Substitution2: "Single Substitution lookup 23 subtable" U0C33_U0C4D_U0C30
Substitution2: "Single Substitution lookup 22 subtable" U0C33.haln
MultipleSubs2: "Multiple Substitution lookup 19 subtable" U0C33_U0C46 U0C56
EndChar

StartChar: U0C34
Encoding: 3124 3124 158
Width: 509
GlyphClass: 2
Flags: W
LayerCount: 2
Back
Fore
SplineSet
173 271 m 0,0,1
 173 303 173 303 146 303 c 0,2,3
 117 303 117 303 117 271 c 0,4,5
 117 240 117 240 146 240 c 0,6,7
 173 240 173 240 173 271 c 0,0,1
358 240 m 0,8,9
 387 240 387 240 387 271 c 0,10,11
 387 303 387 303 358 303 c 0,12,13
 331 303 331 303 331 271 c 0,14,15
 331 240 331 240 358 240 c 0,8,9
253 51 m 1,16,17
 228 -5 228 -5 142 -5 c 0,18,19
 87 -5 87 -5 51 41 c 128,-1,20
 15 87 15 87 15 151 c 0,21,22
 15 233 15 233 45 294 c 0,23,24
 81 369 81 369 150 369 c 0,25,26
 182 369 182 369 208 346.5 c 128,-1,27
 234 324 234 324 234 293 c 0,28,29
 234 244 234 244 212 213.5 c 128,-1,30
 190 183 190 183 160.5 177 c 128,-1,31
 131 171 131 171 105 178 c 1,32,33
 88 135 88 135 110 98 c 128,-1,34
 132 61 132 61 164 61 c 0,35,36
 209 61 209 61 209 119 c 1,37,-1
 296 119 l 1,38,39
 296 61 296 61 341 61 c 0,40,41
 373 61 373 61 395 98 c 128,-1,42
 417 135 417 135 399 178 c 1,43,44
 374 171 374 171 344 177 c 128,-1,45
 314 183 314 183 292 213.5 c 128,-1,46
 270 244 270 244 270 293 c 0,47,48
 270 324 270 324 296 346.5 c 128,-1,49
 322 369 322 369 354 369 c 0,50,51
 423 369 423 369 459 294 c 0,52,53
 489 233 489 233 489 151 c 0,54,55
 489 87 489 87 453.5 41 c 128,-1,56
 418 -5 418 -5 363 -5 c 0,57,58
 276 -5 276 -5 253 51 c 1,16,17
EndSplineSet
EndChar

StartChar: U0C35
Encoding: 3125 3125 159
Width: 468
GlyphClass: 2
Flags: W
LayerCount: 2
Back
Fore
SplineSet
448 148 m 0,0,1
 448 78 448 78 396 30 c 0,2,3
 353 -8 353 -8 287 -8 c 0,4,5
 236 -8 236 -8 210 29 c 1,6,7
 186 -6 186 -6 129 -6 c 0,8,9
 88 -6 88 -6 57 24 c 0,10,11
 16 57 16 57 16 118 c 0,12,13
 16 169 16 169 53.5 203 c 128,-1,14
 91 237 91 237 143 237 c 0,15,16
 194 237 194 237 231 204 c 128,-1,17
 268 171 268 171 268 104 c 1,18,19
 282 76 282 76 299 76 c 0,20,21
 331 76 331 76 350.5 106 c 128,-1,22
 370 136 370 136 370 170 c 0,23,24
 370 221 370 221 335 255 c 0,25,26
 301 289 301 289 250 289 c 0,27,28
 231 289 231 289 193.5 282.5 c 128,-1,29
 156 276 156 276 135 276 c 0,30,31
 83 276 83 276 48 310 c 0,32,33
 29 327 29 327 22 349 c 128,-1,34
 15 371 15 371 15 403 c 1,35,-1
 96 403 l 1,36,37
 94 386 94 386 105 370 c 128,-1,38
 116 354 116 354 139 354 c 0,39,40
 171 354 171 354 203 388 c 2,41,-1
 259 455 l 1,42,43
 297 490 297 490 346 490 c 0,44,45
 368 490 368 490 377 486 c 1,46,-1
 377 399 l 1,47,48
 353 413 353 413 338 414 c 0,49,50
 293 414 293 414 267 362 c 1,51,52
 448 362 448 362 448 148 c 0,0,1
187 114 m 0,53,54
 187 168 187 168 145 168 c 0,55,56
 94 168 94 168 94 123 c 0,57,58
 94 71 94 71 137 71 c 0,59,60
 155 71 155 71 171 83.5 c 128,-1,61
 187 96 187 96 187 114 c 0,53,54
EndSplineSet
Substitution2: "Single Substitution lookup 23 subtable" U0C35_U0C4D_U0C30
Substitution2: "Single Substitution lookup 22 subtable" U0C35.haln
MultipleSubs2: "Multiple Substitution lookup 19 subtable" U0C35_U0C46 U0C56
EndChar

StartChar: U0C36
Encoding: 3126 3126 160
Width: 451
GlyphClass: 2
Flags: W
LayerCount: 2
Back
Fore
SplineSet
343 130 m 0,0,1
 343 156 343 156 322 175.5 c 128,-1,2
 301 195 301 195 278 195 c 0,3,4
 249 195 249 195 230.5 176 c 128,-1,5
 212 157 212 157 212 130 c 0,6,7
 212 102 212 102 233 83 c 128,-1,8
 254 64 254 64 279 64 c 0,9,10
 343 64 343 64 343 130 c 0,0,1
242 309 m 1,11,-1
 223 307 l 1,12,13
 183 307 183 307 154.5 334 c 128,-1,14
 126 361 126 361 126 400 c 2,15,-1
 126 413 l 1,16,-1
 128 415 l 1,17,-1
 205 415 l 1,18,-1
 208 412 l 1,19,-1
 206 395 l 2,20,21
 206 368 206 368 231 368 c 0,22,23
 247 368 247 368 289 416 c 0,24,25
 338 475 338 475 392 475 c 0,26,27
 412 475 412 475 431 466 c 1,28,-1
 431 388 l 1,29,30
 417 402 417 402 390 402 c 256,31,32
 363 402 363 402 342 379 c 2,33,-1
 329 365 l 1,34,-1
 345 365 l 2,35,36
 373 365 373 365 396.5 340 c 128,-1,37
 420 315 420 315 420 285 c 0,38,39
 420 269 420 269 408 250 c 2,40,-1
 385 223 l 1,41,42
 389 215 389 215 396.5 203.5 c 128,-1,43
 404 192 404 192 409 186 c 0,44,45
 424 162 424 162 424 130 c 0,46,47
 424 69 424 69 380.5 31 c 128,-1,48
 337 -7 337 -7 271 -7 c 0,49,50
 200 -7 200 -7 159 34 c 0,51,52
 126 70 126 70 126 120 c 0,53,54
 126 158 126 158 155 200 c 1,55,56
 92 200 92 200 92 126 c 0,57,58
 92 97 92 97 105 81 c 1,59,-1
 23 81 l 1,60,61
 15 93 15 93 15 122 c 0,62,63
 15 192 15 192 75 228.5 c 128,-1,64
 135 265 135 265 237 265 c 1,65,-1
 269 267 l 1,66,-1
 298 267 l 2,67,68
 310 266 310 266 315.5 264.5 c 128,-1,69
 321 263 321 263 331 258 c 1,70,71
 345 262 345 262 346 279 c 0,72,73
 346 309 346 309 308 309 c 2,74,-1
 242 309 l 1,11,-1
EndSplineSet
Substitution2: "Single Substitution lookup 23 subtable" U0C36_U0C4D_U0C30
Substitution2: "Single Substitution lookup 22 subtable" U0C36.haln
MultipleSubs2: "Multiple Substitution lookup 19 subtable" U0C36_U0C46 U0C56
EndChar

StartChar: U0C37
Encoding: 3127 3127 161
Width: 515
GlyphClass: 2
Flags: W
LayerCount: 2
Back
Fore
SplineSet
495 -80 m 1,0,1
 467 -96 467 -96 443.5 -106 c 128,-1,2
 420 -116 420 -116 406 -116 c 1,3,4
 374 -90 374 -90 374 -23 c 0,5,6
 374 -12 374 -12 374 -1 c 0,7,8
 377 12 377 12 378 17 c 1,9,-1
 347 2 l 2,10,11
 326 -7 326 -7 298 -7 c 0,12,13
 237 -7 237 -7 217 34 c 1,14,15
 188 -5 188 -5 136 -5 c 0,16,17
 83 -5 83 -5 49 33.5 c 128,-1,18
 15 72 15 72 15 120 c 0,19,20
 15 175 15 175 52 212.5 c 128,-1,21
 89 250 89 250 149 250 c 0,22,23
 213 250 213 250 247 193 c 0,24,25
 258 175 258 175 266.5 152 c 128,-1,26
 275 129 275 129 275 106 c 1,27,28
 289 76 289 76 315 76 c 0,29,30
 340 76 340 76 363 106 c 0,31,32
 385 137 385 137 385 171 c 0,33,34
 385 210 385 210 369 236 c 0,35,36
 349 271 349 271 316 271 c 2,37,-1
 289 271 l 1,38,-1
 289 356 l 1,39,40
 298 360 298 360 323 360 c 0,41,42
 382 360 382 360 419 313 c 0,43,44
 459 258 459 258 459 155 c 0,45,46
 459 135 459 135 459 116 c 0,47,48
 456 95 456 95 455 85 c 0,49,50
 451 48 451 48 450.5 41.5 c 128,-1,51
 450 35 450 35 450 15 c 0,52,53
 450 -64 450 -64 495 -80 c 1,0,1
186 127 m 0,54,55
 186 174 186 174 146 174 c 0,56,57
 102 174 102 174 102 125 c 0,58,59
 102 79 102 79 146 79 c 0,60,61
 156 79 156 79 171 95 c 128,-1,62
 186 111 186 111 186 127 c 0,54,55
343 424 m 1,63,64
 335 428 335 428 321 428 c 0,65,66
 291 428 291 428 267 402 c 2,67,-1
 220 346 l 1,68,69
 178 307 178 307 113 307 c 0,70,71
 71 307 71 307 45 333 c 0,72,73
 18 356 18 356 18 395 c 1,74,-1
 99 395 l 1,75,76
 99 369 99 369 131 369 c 0,77,78
 158 369 158 369 183 404 c 2,79,-1
 227 466 l 1,80,81
 258 501 258 501 310 501 c 0,82,83
 330 501 330 501 343 492 c 1,84,-1
 343 424 l 1,63,64
EndSplineSet
Substitution2: "Single Substitution lookup 23 subtable" U0C37_U0C4D_U0C30
Substitution2: "Single Substitution lookup 22 subtable" U0C37.haln
MultipleSubs2: "Multiple Substitution lookup 19 subtable" U0C37_U0C46 U0C56
EndChar

StartChar: U0C38
Encoding: 3128 3128 162
Width: 489
GlyphClass: 2
Flags: W
LayerCount: 2
Back
Fore
SplineSet
469 182 m 0,0,1
 469 118 469 118 436 67 c 0,2,3
 391 -8 391 -8 307 -8 c 0,4,5
 239 -8 239 -8 210 36 c 0,6,7
 203 48 203 48 183 118 c 0,8,9
 169 162 169 162 138 162 c 0,10,11
 102 162 102 162 102 111 c 0,12,13
 102 73 102 73 123 43 c 2,14,-1
 158 -5 l 1,15,-1
 59 -5 l 1,16,17
 15 51 15 51 15 102 c 0,18,19
 15 158 15 158 45 196 c 0,20,21
 80 240 80 240 153 240 c 0,22,23
 208 240 208 240 238 197 c 1,24,-1
 270 118 l 2,25,26
 287 74 287 74 315 74 c 256,27,28
 343 74 343 74 369 104 c 0,29,30
 380 119 380 119 386.5 137 c 128,-1,31
 393 155 393 155 393 177 c 0,32,33
 393 215 393 215 367.5 246 c 128,-1,34
 342 277 342 277 307 277 c 1,35,-1
 287 273 l 1,36,-1
 287 360 l 1,37,38
 374 360 374 360 421.5 310.5 c 128,-1,39
 469 261 469 261 469 182 c 0,0,1
341 424 m 1,40,41
 333 428 333 428 318 428 c 0,42,43
 289 428 289 428 265 402 c 2,44,-1
 217 346 l 1,45,46
 176 307 176 307 111 307 c 0,47,48
 69 307 69 307 43 333 c 0,49,50
 16 356 16 356 16 395 c 1,51,-1
 96 395 l 1,52,53
 96 369 96 369 128 369 c 0,54,55
 156 369 156 369 181 404 c 2,56,-1
 224 466 l 1,57,58
 256 501 256 501 308 501 c 0,59,60
 327 501 327 501 341 492 c 1,61,-1
 341 424 l 1,40,41
EndSplineSet
Substitution2: "Single Substitution lookup 23 subtable" U0C38_U0C4D_U0C30
Substitution2: "Single Substitution lookup 22 subtable" U0C38.haln
MultipleSubs2: "Multiple Substitution lookup 19 subtable" U0C38_U0C46 U0C56
EndChar

StartChar: U0C39
Encoding: 3129 3129 163
Width: 751
GlyphClass: 2
Flags: W
LayerCount: 2
Back
Fore
SplineSet
342 424 m 1,0,1
 334 428 334 428 319 428 c 0,2,3
 290 428 290 428 266 402 c 2,4,-1
 219 346 l 1,5,6
 177 307 177 307 112 307 c 0,7,8
 70 307 70 307 44 333 c 0,9,10
 17 356 17 356 17 395 c 1,11,-1
 98 395 l 1,12,13
 98 369 98 369 129 369 c 0,14,15
 157 369 157 369 182 404 c 2,16,-1
 225 466 l 1,17,18
 257 501 257 501 309 501 c 0,19,20
 329 501 329 501 342 492 c 1,21,-1
 342 424 l 1,0,1
638 168 m 0,22,23
 638 197 638 197 605 197 c 0,24,25
 569 197 569 197 569 166 c 0,26,27
 569 130 569 130 602 130 c 0,28,29
 638 130 638 130 638 168 c 0,22,23
188 114 m 0,30,31
 188 133 188 133 174 147 c 128,-1,32
 160 161 160 161 140 161 c 0,33,34
 95 161 95 161 95 111 c 0,35,36
 95 67 95 67 140 67 c 0,37,38
 160 67 160 67 174 80 c 128,-1,39
 188 93 188 93 188 114 c 0,30,31
433 294 m 1,40,41
 450 267 450 267 458 234.5 c 128,-1,42
 466 202 466 202 466 157 c 0,43,44
 466 100 466 100 422 49 c 0,45,46
 375 -7 375 -7 301 -7 c 0,47,48
 255 -7 255 -7 224 29 c 1,49,50
 192 -7 192 -7 127 -7 c 0,51,52
 72 -7 72 -7 41 31 c 0,53,54
 15 63 15 63 15 111 c 0,55,56
 15 160 15 160 46 191 c 0,57,58
 82 233 82 233 149 233 c 0,59,60
 198 233 198 233 234 194 c 128,-1,61
 270 155 270 155 270 106 c 1,62,63
 279 79 279 79 310 79 c 2,64,-1
 321 79 l 2,65,66
 344 79 344 79 366 108 c 128,-1,67
 388 137 388 137 388 173 c 0,68,69
 388 204 388 204 368 245 c 0,70,71
 342 294 342 294 305 294 c 2,72,-1
 277 294 l 1,73,-1
 277 366 l 1,74,-1
 485 366 l 2,75,76
 612 366 612 366 638 356 c 0,77,78
 731 320 731 320 731 201 c 0,79,80
 731 145 731 145 691 98.5 c 128,-1,81
 651 52 651 52 591 52 c 0,82,83
 550 52 550 52 519.5 82 c 128,-1,84
 489 112 489 112 489 152 c 0,85,86
 489 203 489 203 519.5 234 c 128,-1,87
 550 265 550 265 607 265 c 1,88,-1
 643 261 l 1,89,90
 626 282 626 282 596 288 c 128,-1,91
 566 294 566 294 496 294 c 2,92,-1
 433 294 l 1,40,41
EndSplineSet
Substitution2: "Single Substitution lookup 23 subtable" U0C39_U0C4D_U0C30
Substitution2: "Single Substitution lookup 22 subtable" U0C39.haln
MultipleSubs2: "Multiple Substitution lookup 19 subtable" U0C39_U0C46 U0C56
EndChar

StartChar: U0C3d
Encoding: 3133 3133 164
Width: 655
GlyphClass: 2
Flags: W
LayerCount: 2
Back
Fore
SplineSet
26 315 m 1,0,1
 26 359 26 359 70 386 c 0,2,3
 115 413 115 413 189 413 c 0,4,5
 277 413 277 413 330 372 c 0,6,7
 382 332 382 332 382 266 c 0,8,9
 382 211 382 211 322 172 c 0,10,11
 261 133 261 133 176 133 c 0,12,13
 148 133 148 133 128 122 c 0,14,15
 109 111 109 111 109 95 c 0,16,17
 109 83 109 83 123 75 c 256,18,19
 137 67 137 67 157 67 c 2,20,-1
 635 67 l 1,21,-1
 635 -5 l 1,22,-1
 145 -5 l 2,23,24
 91 -5 91 -5 54 24 c 0,25,26
 15 51 15 51 15 91 c 0,27,28
 15 135 15 135 60 166 c 0,29,30
 106 195 106 195 170 195 c 0,31,32
 225 195 225 195 264 216 c 0,33,34
 303 236 303 236 303 266 c 0,35,36
 303 284 303 284 291 301 c 0,37,38
 280 317 280 317 259 326 c 1,39,40
 266 288 266 288 230 258 c 0,41,42
 192 227 192 227 138 227 c 0,43,44
 92 227 92 227 59 252 c 0,45,46
 26 279 26 279 26 315 c 1,47,-1
 26 315 l 1,0,1
188 320 m 1,48,49
 188 334 188 334 177 344 c 0,50,51
 166 355 166 355 151 355 c 0,52,53
 134 355 134 355 121 344 c 0,54,55
 109 334 109 334 109 320 c 0,56,57
 109 305 109 305 121 294 c 0,58,59
 134 284 134 284 151 284 c 0,60,61
 166 284 166 284 177 294 c 0,62,63
 188 305 188 305 188 320 c 1,64,-1
 188 320 l 1,48,49
EndSplineSet
EndChar

StartChar: U0C3E
Encoding: 3134 3134 165
Width: 559
GlyphClass: 2
Flags: W
LayerCount: 2
Back
Fore
SplineSet
274 157 m 1,0,1
 274 205 274 205 310 237 c 0,2,3
 345 268 345 268 397 268 c 0,4,5
 421 268 421 268 442 256 c 0,6,7
 459 245 459 245 466 233 c 1,8,9
 466 270 466 270 433 290 c 0,10,11
 403 309 403 309 362 309 c 2,12,-1
 -203 309 l 1,13,-1
 -203 388 l 1,14,-1
 366 388 l 2,15,16
 447 388 447 388 497 327 c 0,17,18
 538 276 538 276 538 215 c 0,19,20
 538 137 538 137 508 93 c 0,21,22
 474 41 474 41 401 41 c 0,23,24
 339 41 339 41 304 81 c 0,25,26
 274 114 274 114 274 157 c 1,27,-1
 274 157 l 1,0,1
445 166 m 1,28,29
 444 185 444 185 430 196 c 0,30,31
 419 207 419 207 402 207 c 0,32,33
 384 207 384 207 372 193 c 0,34,35
 362 181 362 181 362 164 c 0,36,37
 362 146 362 146 376 135 c 0,38,39
 390 125 390 125 406 125 c 0,40,41
 424 125 424 125 435 138 c 0,42,43
 445 149 445 149 445 166 c 1,44,-1
 445 166 l 1,28,29
EndSplineSet
EndChar

StartChar: U0C3F
Encoding: 3135 3135 166
Width: 0
GlyphClass: 2
Flags: W
LayerCount: 2
Back
Fore
SplineSet
163 456 m 1,0,1
 163 405 163 405 119 362 c 0,2,3
 72 315 72 315 1 315 c 0,4,5
 -44 315 -44 315 -79 327 c 0,6,7
 -115 338 -115 338 -135 361 c 1,8,-1
 -96 413 l 1,9,10
 -79 395 -79 395 -52 386 c 0,11,12
 -28 378 -28 378 7 378 c 0,13,14
 40 378 40 378 67 404 c 0,15,16
 96 430 96 430 96 460 c 0,17,18
 96 479 96 479 88 496 c 0,19,20
 80 512 80 512 64 520 c 1,21,22
 64 519 64 519 65 514 c 0,23,24
 66 510 66 510 66 508 c 0,25,26
 66 467 66 467 30 444 c 0,27,28
 1 425 1 425 -32 425 c 0,29,30
 -80 425 -80 425 -105 453 c 0,31,32
 -128 475 -128 475 -128 510 c 0,33,34
 -128 541 -128 541 -98 566 c 0,35,36
 -60 598 -60 598 -1 598 c 0,37,38
 82 598 82 598 126 554 c 0,39,40
 163 515 163 515 163 456 c 1,41,-1
 163 456 l 1,0,1
-57 509 m 1,42,43
 -57 498 -57 498 -47 489 c 0,44,45
 -36 479 -36 479 -22 479 c 0,46,47
 -5 479 -5 479 6 489 c 0,48,49
 15 498 15 498 15 509 c 0,50,51
 15 522 15 522 6 531 c 0,52,53
 -5 542 -5 542 -22 542 c 0,54,55
 -36 542 -36 542 -47 531 c 0,56,57
 -57 521 -57 521 -57 509 c 1,58,-1
 -57 509 l 1,42,43
EndSplineSet
EndChar

StartChar: U0C40
Encoding: 3136 3136 167
Width: 0
GlyphClass: 2
Flags: W
LayerCount: 2
Back
Fore
SplineSet
157 457 m 1,0,1
 157 399 157 399 110 358 c 0,2,3
 63 316 63 316 -5 316 c 0,4,5
 -50 316 -50 316 -86 328 c 0,6,7
 -121 339 -121 339 -141 362 c 1,8,-1
 -102 414 l 1,9,10
 -86 398 -86 398 -58 388 c 0,11,12
 -32 379 -32 379 1 379 c 256,13,14
 34 379 34 379 61 405 c 0,15,16
 90 431 90 431 90 461 c 0,17,18
 90 480 90 480 81 497 c 0,19,20
 74 512 74 512 58 521 c 1,21,22
 58 519 58 519 59 515 c 256,23,24
 60 511 60 511 60 509 c 0,25,26
 60 475 60 475 33 450 c 0,27,28
 3 426 3 426 -38 426 c 0,29,30
 -82 426 -82 426 -108 449 c 256,31,32
 -134 472 -134 472 -134 511 c 0,33,34
 -134 538 -134 538 -110 562 c 0,35,36
 -87 586 -87 586 -50 595 c 1,37,38
 -57 610 -57 610 -57 631 c 0,39,40
 -57 668 -57 668 -29 692 c 0,41,42
 2 716 2 716 52 716 c 0,43,44
 105 716 105 716 134 690 c 0,45,46
 160 663 160 663 160 611 c 1,47,-1
 87 611 l 1,48,49
 87 631 87 631 77 644 c 0,50,51
 66 657 66 657 52 657 c 0,52,53
 33 657 33 657 22 646 c 0,54,55
 12 635 12 635 12 614 c 0,56,57
 12 612 12 612 14 608 c 0,58,59
 15 604 15 604 19 598 c 1,60,61
 78 591 78 591 119 552 c 0,62,63
 157 511 157 511 157 457 c 1,64,-1
 157 457 l 1,0,1
-63 510 m 1,65,66
 -63 498 -63 498 -53 490 c 0,67,68
 -43 480 -43 480 -29 480 c 0,69,70
 -13 480 -13 480 -5 489 c 0,71,72
 4 497 4 497 4 510 c 0,73,74
 4 524 4 524 -5 533 c 0,75,76
 -13 543 -13 543 -29 543 c 0,77,78
 -43 543 -43 543 -53 533 c 256,79,80
 -63 523 -63 523 -63 510 c 1,81,-1
 -63 510 l 1,65,66
EndSplineSet
EndChar

StartChar: U0C41
Encoding: 3137 3137 168
Width: 231
GlyphClass: 2
Flags: W
LayerCount: 2
Back
Fore
SplineSet
210 182 m 1,0,1
 210 101 210 101 168 50 c 0,2,3
 123 -6 123 -6 42 -6 c 0,4,5
 -32 -6 -32 -6 -70 40 c 0,6,7
 -93 68 -93 68 -99 102 c 1,8,9
 -99 151 -99 151 -67 169 c 2,10,-1
 -64 171 l 1,11,-1
 -52 171 l 1,12,13
 -49 133 -49 133 -21 105 c 0,14,15
 6 80 6 80 43 80 c 0,16,17
 84 80 84 80 110 112 c 0,18,19
 135 142 135 142 135 186 c 0,20,21
 135 229 135 229 113 263 c 0,22,23
 86 303 86 303 42 303 c 0,24,25
 28 303 28 303 18 302 c 1,26,-1
 18 377 l 1,27,-1
 52 378 l 2,28,29
 120 378 120 378 165 324 c 0,30,31
 210 269 210 269 210 182 c 1,32,-1
 210 182 l 1,0,1
EndSplineSet
EndChar

StartChar: U0C42
Encoding: 3138 3138 169
Width: 520
GlyphClass: 2
Flags: W
LayerCount: 2
Back
Fore
SplineSet
210 182 m 1,0,1
 210 101 210 101 168 50 c 0,2,3
 123 -6 123 -6 42 -6 c 0,4,5
 -33 -6 -33 -6 -71 39 c 0,6,7
 -99 71 -99 71 -99 102 c 0,8,9
 -99 138 -99 138 -88 156 c 0,10,11
 -81 168 -81 168 -64 177 c 0,12,13
 -58 181 -58 181 -52 182 c 0,14,15
 -48 182 -48 182 -46 181 c 256,16,17
 -44 180 -44 180 -44 178 c 0,18,19
 -44 134 -44 134 -22 107 c 0,20,21
 1 80 1 80 48 80 c 0,22,23
 89 80 89 80 113 115 c 0,24,25
 135 147 135 147 135 192 c 0,26,27
 135 235 135 235 116 266 c 0,28,29
 91 303 91 303 47 303 c 0,30,31
 28 303 28 303 18 302 c 1,32,-1
 18 378 l 1,33,-1
 329 378 l 2,34,35
 410 378 410 378 459 322 c 0,36,37
 501 273 501 273 501 214 c 0,38,39
 501 138 501 138 468 92 c 0,40,41
 431 40 431 40 364 40 c 0,42,43
 303 40 303 40 267 80 c 0,44,45
 238 112 238 112 238 156 c 0,46,47
 238 204 238 204 273 236 c 0,48,49
 308 267 308 267 359 267 c 0,50,51
 382 267 382 267 405 252 c 0,52,53
 422 243 422 243 428 232 c 1,54,55
 428 269 428 269 395 289 c 0,56,57
 366 306 366 306 326 306 c 2,58,-1
 176 306 l 1,59,60
 210 252 210 252 210 182 c 1,61,-1
 210 182 l 1,0,1
406 164 m 1,62,63
 406 181 406 181 391 194 c 0,64,65
 378 205 378 205 365 205 c 0,66,67
 344 205 344 205 331 193 c 0,68,69
 317 181 317 181 317 162 c 0,70,71
 317 144 317 144 333 133 c 0,72,73
 349 123 349 123 365 123 c 0,74,75
 384 123 384 123 395 133 c 0,76,77
 406 144 406 144 406 164 c 1,78,-1
 406 164 l 1,62,63
EndSplineSet
EndChar

StartChar: U0C43
Encoding: 3139 3139 170
Width: 275
GlyphClass: 2
Flags: W
LayerCount: 2
Back
Fore
SplineSet
267 -14 m 0,0,1
 287 -111 287 -111 240 -172.5 c 128,-1,2
 193 -234 193 -234 137.5 -240.5 c 128,-1,3
 82 -247 82 -247 30 -221 c 0,4,5
 -26 -191 -26 -191 -39 -129 c 0,6,7
 -47 -93 -47 -93 -23.5 -54.5 c 128,-1,8
 0 -16 0 -16 45 -6 c 0,9,10
 83 2 83 2 109 -16 c 0,11,12
 121 -25 121 -25 129 -35.5 c 128,-1,13
 137 -46 137 -46 140 -62 c 0,14,15
 153 -126 153 -126 88 -164 c 1,16,17
 111 -171 111 -171 131 -168 c 0,18,19
 171 -159 171 -159 189 -114.5 c 128,-1,20
 207 -70 207 -70 193 -7 c 0,21,22
 181 49 181 49 146 76 c 0,23,24
 120 97 120 97 91 91 c 0,25,26
 81 89 81 89 76 85 c 1,27,-1
 76 163 l 1,28,29
 133 175 133 175 187 133 c 0,30,31
 246 83 246 83 267 -14 c 0,0,1
80 -82 m 0,32,33
 75 -61 75 -61 52 -67 c 0,34,35
 30 -72 30 -72 36 -93 c 0,36,37
 40 -114 40 -114 62 -111 c 0,38,39
 85 -105 85 -105 80 -82 c 0,32,33
EndSplineSet
EndChar

StartChar: U0C44
Encoding: 3140 3140 171
Width: 490
GlyphClass: 2
Flags: W
LayerCount: 2
Back
Fore
SplineSet
411 8 m 0,0,1
 411 34 411 34 385 34 c 0,2,3
 356 34 356 34 356 6 c 0,4,5
 356 -21 356 -21 383 -21 c 0,6,7
 411 -21 411 -21 411 8 c 0,0,1
82 -82 m 0,8,9
 78 -61 78 -61 55 -67 c 0,10,11
 33 -72 33 -72 38 -93 c 256,12,13
 43 -114 43 -114 65 -111 c 0,14,15
 88 -105 88 -105 82 -82 c 0,8,9
126 166 m 2,16,-1
 290 166 l 2,17,18
 394 166 394 166 411 159 c 0,19,20
 486 129 486 129 486 36 c 0,21,22
 486 -9 486 -9 453.5 -46 c 128,-1,23
 421 -83 421 -83 375 -83 c 0,24,25
 343 -83 343 -83 317 -61 c 0,26,27
 293 -36 293 -36 293 -4 c 0,28,29
 293 37 293 37 317.5 61 c 128,-1,30
 342 85 342 85 386 85 c 1,31,-1
 417 82 l 1,32,33
 402 101 402 101 379.5 105 c 128,-1,34
 357 109 357 109 299 109 c 2,35,-1
 225 109 l 2,36,37
 221 108 221 108 218 108 c 1,38,39
 256 62 256 62 273 -13 c 0,40,41
 293 -109 293 -109 244.5 -170.5 c 128,-1,42
 196 -232 196 -232 143 -234 c 1,43,44
 88 -246 88 -246 36 -219 c 0,45,46
 -20 -190 -20 -190 -33 -128 c 0,47,48
 -41 -92 -41 -92 -17.5 -53.5 c 128,-1,49
 6 -15 6 -15 51 -5 c 0,50,51
 89 3 89 3 115 -15 c 0,52,53
 126 -24 126 -24 134 -34.5 c 128,-1,54
 142 -45 142 -45 146 -61 c 0,55,56
 159 -125 159 -125 93 -163 c 1,57,58
 116 -170 116 -170 136 -167 c 0,59,60
 176 -158 176 -158 194 -113.5 c 128,-1,61
 212 -69 212 -69 199 -6 c 0,62,63
 187 50 187 50 152 78 c 0,64,65
 126 98 126 98 97 92 c 0,66,67
 87 90 87 90 82 86 c 1,68,-1
 82 164 l 1,69,70
 104 169 104 169 126 166 c 2,16,-1
EndSplineSet
EndChar

StartChar: U0C46
Encoding: 3142 3142 172
Width: 0
GlyphClass: 2
Flags: W
LayerCount: 2
Back
Fore
SplineSet
186 421 m 1,0,1
 186 375 186 375 152 342 c 256,2,3
 118 309 118 309 63 309 c 2,4,-1
 -109 309 l 1,5,-1
 -109 378 l 1,6,-1
 54 378 l 2,7,8
 75 378 75 378 89 387 c 0,9,10
 107 399 107 399 107 416 c 0,11,12
 107 437 107 437 93 446 c 0,13,14
 82 452 82 452 56 452 c 2,15,-1
 -199 452 l 1,16,-1
 -199 520 l 1,17,-1
 93 520 l 2,18,19
 132 520 132 520 159 493 c 0,20,21
 186 465 186 465 186 421 c 1,22,-1
 186 421 l 1,0,1
EndSplineSet
EndChar

StartChar: U0C47
Encoding: 3143 3143 173
Width: 0
GlyphClass: 2
Flags: W
LayerCount: 2
Back
Fore
SplineSet
184 419 m 1,0,1
 184 377 184 377 154 344 c 0,2,3
 120 309 120 309 66 309 c 2,4,-1
 -109 309 l 1,5,-1
 -109 378 l 1,6,-1
 60 378 l 2,7,8
 78 378 78 378 90 386 c 0,9,10
 104 397 104 397 104 414 c 0,11,12
 104 435 104 435 90 444 c 0,13,14
 81 450 81 450 56 450 c 2,15,-1
 -200 450 l 1,16,-1
 -200 519 l 1,17,-1
 44 519 l 1,18,-1
 43 549 l 2,19,20
 43 591 43 591 83 619 c 0,21,22
 119 646 119 646 160 646 c 0,23,24
 218 646 218 646 251 612 c 0,25,26
 283 576 283 576 283 509 c 1,27,-1
 200 509 l 1,28,-1
 200 530 l 2,29,30
 200 544 200 544 193 556 c 0,31,32
 182 575 182 575 160 575 c 0,33,34
 141 575 141 575 130 563 c 0,35,36
 118 551 118 551 118 531 c 2,37,-1
 119 515 l 1,38,39
 148 505 148 505 165 480 c 0,40,41
 184 455 184 455 184 419 c 1,42,-1
 184 419 l 1,0,1
EndSplineSet
EndChar

StartChar: U0C48
Encoding: 3144 3144 174
Width: 587
GlyphClass: 2
Flags: W
LayerCount: 2
Back
Fore
SplineSet
542 421 m 1,0,1
 542 376 542 376 508 346 c 0,2,3
 473 316 473 316 418 316 c 2,4,-1
 246 316 l 1,5,-1
 246 384 l 1,6,-1
 416 384 l 2,7,8
 437 384 437 384 448 390 c 0,9,10
 462 398 462 398 462 415 c 0,11,12
 462 436 462 436 449 445 c 0,13,14
 437 452 437 452 413 452 c 2,15,-1
 44 452 l 1,16,-1
 44 520 l 1,17,-1
 449 520 l 2,18,19
 487 520 487 520 514 493 c 0,20,21
 542 465 542 465 542 421 c 1,22,-1
 542 421 l 1,0,1
542 -250 m 1,23,-1
 158 -250 l 2,24,25
 113 -250 113 -250 81 -223 c 0,26,27
 47 -192 47 -192 47 -148 c 0,28,29
 47 -113 47 -113 80 -86 c 0,30,31
 110 -60 110 -60 149 -60 c 0,32,33
 185 -60 185 -60 210 -84 c 0,34,35
 235 -107 235 -107 235 -141 c 0,36,37
 235 -163 235 -163 227 -178 c 1,38,-1
 542 -178 l 1,39,-1
 542 -250 l 1,40,-1
 542 -250 l 1,23,-1
166 -148 m 1,41,42
 166 -139 166 -139 158 -133 c 0,43,44
 152 -127 152 -127 143 -127 c 0,45,46
 133 -127 133 -127 125 -133 c 0,47,48
 119 -139 119 -139 119 -148 c 0,49,50
 119 -158 119 -158 129 -166 c 0,51,52
 139 -173 139 -173 149 -173 c 0,53,54
 157 -173 157 -173 163 -164 c 0,55,56
 166 -159 166 -159 166 -148 c 1,57,-1
 166 -148 l 1,41,42
EndSplineSet
Substitution2: "'abvs' Above Base Substitutions in Telugu lookup 17 subtable" U2109
EndChar

StartChar: U0C4A
Encoding: 3146 3146 175
Width: 553
GlyphClass: 2
Flags: W
LayerCount: 2
Back
Fore
SplineSet
274 247 m 1,0,1
 274 296 274 296 306 327 c 0,2,3
 339 358 339 358 390 358 c 0,4,5
 409 358 409 358 427 353 c 0,6,7
 446 345 446 345 454 336 c 1,8,9
 454 372 454 372 428 398 c 0,10,11
 404 421 404 421 373 421 c 256,12,13
 342 421 342 421 318 402 c 0,14,15
 294 381 294 381 294 351 c 1,16,-1
 210 351 l 1,17,18
 210 398 210 398 167 430 c 0,19,20
 124 463 124 463 64 463 c 0,21,22
 19 463 19 463 -13 450 c 0,23,24
 -43 436 -43 436 -43 419 c 0,25,26
 -43 403 -43 403 -36 393 c 0,27,28
 -27 382 -27 382 -4 378 c 1,29,-1
 17 378 l 1,30,-1
 17 309 l 1,31,-1
 -12 309 l 1,32,33
 -69 316 -69 316 -100 355 c 0,34,35
 -126 386 -126 386 -126 417 c 0,36,37
 -126 465 -126 465 -71 498 c 0,38,39
 -17 531 -17 531 61 531 c 0,40,41
 134 531 134 531 189 508 c 0,42,43
 243 485 243 485 263 445 c 1,44,45
 279 471 279 471 311 486 c 0,46,47
 339 500 339 500 371 500 c 0,48,49
 459 500 459 500 502 422 c 0,50,51
 532 369 532 369 532 309 c 0,52,53
 532 230 532 230 501 185 c 0,54,55
 467 133 467 133 393 133 c 0,56,57
 332 133 332 133 300 171 c 0,58,59
 274 202 274 202 274 247 c 1,60,-1
 274 247 l 1,0,1
438 255 m 1,61,62
 437 274 437 274 424 285 c 0,63,64
 412 295 412 295 395 295 c 256,65,66
 378 295 378 295 366 282 c 0,67,68
 355 270 355 270 355 252 c 0,69,70
 355 235 355 235 370 224 c 0,71,72
 382 214 382 214 400 214 c 0,73,74
 419 214 419 214 428 226 c 0,75,76
 438 238 438 238 438 255 c 1,77,-1
 438 255 l 1,61,62
EndSplineSet
EndChar

StartChar: U0C4B
Encoding: 3147 3147 176
Width: 578
GlyphClass: 2
Flags: W
LayerCount: 2
Back
Fore
SplineSet
275 247 m 1,0,1
 275 293 275 293 308 325 c 0,2,3
 342 358 342 358 391 358 c 0,4,5
 411 358 411 358 428 353 c 0,6,7
 444 346 444 346 455 336 c 1,8,9
 455 371 455 371 431 397 c 0,10,11
 407 421 407 421 374 421 c 256,12,13
 341 421 341 421 319 401 c 0,14,15
 295 380 295 380 295 351 c 1,16,-1
 210 351 l 1,17,18
 210 398 210 398 157 430 c 0,19,20
 105 463 105 463 30 463 c 0,21,22
 -2 463 -2 463 -26 450 c 0,23,24
 -49 436 -49 436 -49 419 c 0,25,26
 -49 405 -49 405 -38 392 c 0,27,28
 -27 381 -27 381 -10 378 c 2,29,-1
 17 378 l 1,30,-1
 17 309 l 1,31,-1
 -29 309 l 1,32,33
 -74 315 -74 315 -102 345 c 0,34,35
 -132 377 -132 377 -132 417 c 0,36,37
 -132 465 -132 465 -86 498 c 0,38,39
 -38 531 -38 531 26 531 c 0,40,41
 114 531 114 531 179 508 c 0,42,43
 243 485 243 485 264 445 c 1,44,45
 275 463 275 463 293 476 c 0,46,47
 310 490 310 490 334 496 c 1,48,49
 327 504 327 504 323 518 c 0,50,51
 319 531 319 531 319 548 c 0,52,53
 319 589 319 589 352 618 c 0,54,55
 386 646 386 646 435 646 c 0,56,57
 492 646 492 646 525 614 c 0,58,59
 557 584 557 584 557 525 c 1,60,-1
 473 525 l 1,61,62
 473 547 473 547 462 562 c 0,63,64
 450 576 450 576 435 576 c 0,65,66
 415 576 415 576 404 564 c 0,67,68
 393 553 393 553 393 531 c 0,69,70
 393 525 393 525 402 502 c 2,71,-1
 405 496 l 1,72,73
 462 481 462 481 496 428 c 0,74,75
 532 377 532 377 532 309 c 0,76,77
 532 228 532 228 494 181 c 0,78,79
 458 133 458 133 394 133 c 0,80,81
 344 133 344 133 309 167 c 0,82,83
 275 200 275 200 275 247 c 1,84,-1
 275 247 l 1,0,1
439 255 m 1,85,86
 438 272 438 272 426 283 c 0,87,88
 414 295 414 295 396 295 c 0,89,90
 380 295 380 295 369 283 c 0,91,92
 355 271 355 271 355 252 c 0,93,94
 355 237 355 237 370 225 c 0,95,96
 382 214 382 214 400 214 c 0,97,98
 417 214 417 214 428 226 c 0,99,100
 439 237 439 237 439 255 c 1,101,-1
 439 255 l 1,85,86
EndSplineSet
EndChar

StartChar: U0C4C
Encoding: 3148 3148 177
Width: 562
GlyphClass: 2
Flags: W
LayerCount: 2
Back
Fore
SplineSet
273 274 m 1,0,1
 273 323 273 323 310 351 c 0,2,3
 343 378 343 378 395 378 c 0,4,5
 422 378 422 378 441 370 c 0,6,7
 458 362 458 362 466 351 c 1,8,9
 457 393 457 393 430 421 c 0,10,11
 401 449 401 449 365 449 c 2,12,-1
 161 449 l 1,13,14
 170 444 170 444 174 428 c 0,15,16
 180 415 180 415 180 398 c 0,17,18
 180 360 180 360 155 334 c 0,19,20
 128 309 128 309 92 309 c 2,21,-1
 -124 309 l 1,22,-1
 -124 378 l 1,23,-1
 70 378 l 2,24,25
 82 378 82 378 91 387 c 0,26,27
 100 397 100 397 100 410 c 0,28,29
 100 419 100 419 95 427 c 0,30,31
 91 436 91 436 81 444 c 1,32,-1
 -170 444 l 1,33,-1
 -170 524 l 1,34,-1
 372 524 l 2,35,36
 452 524 452 524 500 457 c 0,37,38
 541 401 541 401 541 337 c 0,39,40
 541 266 541 266 509 217 c 0,41,42
 471 160 471 160 399 160 c 0,43,44
 337 160 337 160 303 199 c 0,45,46
 273 232 273 232 273 274 c 1,47,-1
 273 274 l 1,0,1
443 283 m 1,48,49
 442 303 442 303 428 312 c 0,50,51
 417 320 417 320 400 320 c 0,52,53
 382 320 382 320 371 309 c 0,54,55
 359 298 359 298 359 281 c 0,56,57
 359 263 359 263 375 251 c 0,58,59
 387 241 387 241 404 241 c 0,60,61
 423 241 423 241 433 256 c 0,62,63
 443 267 443 267 443 283 c 1,64,-1
 443 283 l 1,48,49
EndSplineSet
EndChar

StartChar: U0C4D
Encoding: 3149 3149 178
Width: 1
GlyphClass: 2
Flags: W
LayerCount: 2
Back
Fore
SplineSet
215 554 m 1,0,-1
 -48 554 l 2,1,2
 -60 554 -60 554 -71 546 c 0,3,4
 -82 537 -82 537 -82 525 c 256,5,6
 -82 513 -82 513 -70 504 c 0,7,8
 -60 498 -60 498 -48 498 c 2,9,-1
 116 498 l 1,10,-1
 116 425 l 1,11,-1
 -36 425 l 2,12,13
 -46 425 -46 425 -56 417 c 0,14,15
 -63 411 -63 411 -63 402 c 0,16,17
 -63 390 -63 390 -56 383 c 0,18,19
 -48 378 -48 378 -39 378 c 2,20,-1
 105 378 l 1,21,-1
 105 309 l 1,22,-1
 -68 309 l 2,23,24
 -104 309 -104 309 -128 332 c 0,25,26
 -155 357 -155 357 -155 390 c 0,27,28
 -155 405 -155 405 -141 425 c 0,29,30
 -128 447 -128 447 -113 453 c 1,31,32
 -134 463 -134 463 -150 479 c 0,33,34
 -170 503 -170 503 -170 531 c 0,35,36
 -170 571 -170 571 -142 601 c 0,37,38
 -115 630 -115 630 -73 630 c 2,39,-1
 215 630 l 1,40,-1
 215 554 l 1,41,-1
 215 554 l 1,0,-1
EndSplineSet
EndChar

StartChar: U0C55
Encoding: 3157 3157 179
Width: 207
GlyphClass: 2
Flags: W
LayerCount: 2
Back
Fore
SplineSet
17 509 m 1,0,1
 2 530 2 530 0 565 c 0,2,3
 0 604 0 604 31 635 c 0,4,5
 61 665 61 665 102 665 c 0,6,7
 136 665 136 665 163 652 c 0,8,9
 198 635 198 635 207 603 c 1,10,-1
 154 558 l 1,11,12
 152 570 152 570 140 579 c 0,13,14
 129 589 129 589 116 589 c 0,15,16
 95 589 95 589 85 578 c 0,17,18
 76 569 76 569 76 552 c 0,19,20
 76 545 76 545 78 534 c 0,21,22
 80 525 80 525 84 521 c 1,23,-1
 17 509 l 1,24,-1
 17 509 l 1,0,1
EndSplineSet
EndChar

StartChar: U0C56
Encoding: 3158 3158 180
Width: 0
GlyphClass: 2
Flags: W
LayerCount: 2
Back
Fore
SplineSet
437 -250 m 1,0,-1
 111 -250 l 2,1,2
 65 -250 65 -250 34 -223 c 0,3,4
 0 -193 0 -193 0 -148 c 0,5,6
 0 -113 0 -113 32 -86 c 0,7,8
 63 -60 63 -60 101 -60 c 0,9,10
 138 -60 138 -60 162 -84 c 0,11,12
 187 -106 187 -106 187 -141 c 0,13,14
 187 -152 187 -152 186 -160 c 0,15,16
 184 -171 184 -171 179 -178 c 1,17,-1
 437 -178 l 1,18,-1
 437 -250 l 1,19,-1
 437 -250 l 1,0,-1
119 -148 m 1,20,21
 119 -139 119 -139 111 -133 c 0,22,23
 105 -127 105 -127 96 -127 c 0,24,25
 86 -127 86 -127 78 -133 c 0,26,27
 69 -139 69 -139 69 -148 c 0,28,29
 69 -158 69 -158 81 -166 c 0,30,31
 90 -173 90 -173 101 -173 c 0,32,33
 110 -173 110 -173 114 -164 c 0,34,35
 119 -159 119 -159 119 -148 c 1,36,-1
 119 -148 l 1,20,21
88 -244 m 1024,37,-1
EndSplineSet
Substitution2: "Single Substitution lookup 20 subtable" U0C56.blws.001
EndChar

StartChar: U0C58
Encoding: 3160 3160 181
Width: 593
GlyphClass: 2
Flags: W
LayerCount: 2
Back
Fore
SplineSet
425 362 m 1,0,1
 477 358 477 358 520 315 c 0,2,3
 573 265 573 265 573 180 c 0,4,5
 573 106 573 106 528 50.5 c 128,-1,6
 483 -5 483 -5 411 -5 c 0,7,8
 336 -5 336 -5 322 36 c 1,9,10
 290 -6 290 -6 225 -6 c 0,11,12
 172 -6 172 -6 133.5 34.5 c 128,-1,13
 95 75 95 75 95 129 c 0,14,15
 95 167 95 167 113 184 c 1,16,-1
 15 184 l 1,17,-1
 15 261 l 1,18,-1
 241 261 l 1,19,-1
 241 200 l 1,20,21
 188 188 188 188 188 141 c 0,22,23
 188 117 188 117 201 96 c 0,24,25
 216 78 216 78 239 78 c 0,26,27
 283 78 283 78 283 139 c 1,28,-1
 280 163 l 1,29,-1
 377 163 l 1,30,-1
 374 130 l 1,31,32
 374 71 374 71 419 71 c 0,33,34
 454 71 454 71 475 112 c 0,35,36
 491 145 491 145 491 182 c 0,37,38
 491 261 491 261 425 283 c 0,39,40
 389 293 389 293 301 293 c 2,41,-1
 288 293 l 2,42,43
 239 293 239 293 205 323 c 0,44,45
 186 338 186 338 176.5 362.5 c 128,-1,46
 167 387 167 387 167 417 c 1,47,-1
 252 417 l 1,48,49
 249 413 249 413 249 405 c 0,50,51
 249 384 249 384 268 373 c 0,52,53
 277 369 277 369 297 365 c 1,54,-1
 312 365 l 2,55,56
 340 368 340 368 362 397 c 2,57,-1
 409 456 l 1,58,59
 441 487 441 487 486 487 c 0,60,61
 505 487 505 487 525 478 c 1,62,-1
 525 401 l 1,63,64
 517 414 517 414 486 414 c 0,65,66
 464 414 464 414 441 383 c 2,67,-1
 425 362 l 1,0,1
520 606 m 0,68,69
 520 565 520 565 488.5 538.5 c 128,-1,70
 457 512 457 512 415 512 c 2,71,-1
 77 512 l 1,72,-1
 77 575 l 1,73,-1
 358 575 l 1,74,75
 346 591 346 591 346 612 c 0,76,77
 346 643 346 643 369.5 665.5 c 128,-1,78
 393 688 393 688 424 688 c 0,79,80
 462 688 462 688 491 662.5 c 128,-1,81
 520 637 520 637 520 606 c 0,68,69
458 606 m 0,82,83
 458 631 458 631 433 631 c 256,84,85
 408 631 408 631 408 606 c 0,86,87
 408 578 408 578 424 578 c 0,88,89
 439 578 439 578 448 587 c 0,90,91
 458 593 458 593 458 606 c 0,82,83
EndSplineSet
EndChar

StartChar: U0C59
Encoding: 3161 3161 182
Width: 485
GlyphClass: 2
Flags: W
LayerCount: 2
Back
Fore
SplineSet
465 540 m 0,0,1
 465 499 465 499 433.5 472.5 c 128,-1,2
 402 446 402 446 360 446 c 2,3,-1
 22 446 l 1,4,-1
 22 509 l 1,5,-1
 303 509 l 1,6,7
 291 525 291 525 291 546 c 0,8,9
 291 577 291 577 314.5 599.5 c 128,-1,10
 338 622 338 622 369 622 c 0,11,12
 407 622 407 622 436 596.5 c 128,-1,13
 465 571 465 571 465 540 c 0,0,1
403 540 m 0,14,15
 403 565 403 565 378 565 c 256,16,17
 353 565 353 565 353 540 c 0,18,19
 353 512 353 512 369 512 c 0,20,21
 384 512 384 512 393 521 c 0,22,23
 403 527 403 527 403 540 c 0,14,15
451 106 m 0,24,25
 451 62 451 62 418 29 c 128,-1,26
 385 -4 385 -4 325 -4 c 1,27,28
 269 -10 269 -10 233 36 c 1,29,30
 198 -6 198 -6 149 -6 c 0,31,32
 101 -6 101 -6 63 28 c 0,33,34
 27 63 27 63 27 111 c 0,35,36
 27 166 27 166 68 189 c 1,37,-1
 140 215 l 2,38,39
 180 228 180 228 180 260 c 0,40,41
 180 295 180 295 146 295 c 0,42,43
 104 295 104 295 104 240 c 1,44,-1
 15 240 l 1,45,46
 15 292 15 292 59.5 331.5 c 128,-1,47
 104 371 104 371 154 371 c 0,48,49
 203 371 203 371 233 338 c 0,50,51
 236 336 236 336 268 280 c 0,52,53
 287 248 287 248 313 248 c 0,54,55
 330 248 330 248 343.5 258 c 128,-1,56
 357 268 357 268 357 284 c 0,57,58
 357 316 357 316 318 316 c 0,59,60
 303 316 303 316 293 313 c 2,61,-1
 279 306 l 1,62,-1
 279 386 l 1,63,64
 357 386 357 386 380 378 c 0,65,66
 445 357 445 357 445 289 c 0,67,68
 445 239 445 239 402 211 c 1,69,70
 366 182 366 182 319 182 c 0,71,72
 280 182 280 182 241 200 c 1,73,74
 233 182 233 182 171 160 c 0,75,76
 120 141 120 141 120 111 c 0,77,78
 120 95 120 95 132.5 84.5 c 128,-1,79
 145 74 145 74 162 72 c 0,80,81
 211 72 211 72 215 130 c 1,82,-1
 293 130 l 1,83,-1
 290 111 l 2,84,85
 290 94 290 94 298.5 82 c 128,-1,86
 307 70 307 70 326 68 c 0,87,88
 342 68 342 68 356 80 c 0,89,90
 368 93 368 93 368 108 c 0,91,92
 368 126 368 126 364 130 c 2,93,-1
 357 142 l 1,94,-1
 448 142 l 1,95,96
 452 123 452 123 451 106 c 0,24,25
EndSplineSet
EndChar

StartChar: U0C60
Encoding: 3168 3168 183
Width: 1193
GlyphClass: 2
Flags: W
LayerCount: 2
Back
Fore
SplineSet
1082 169 m 0,0,1
 1082 190 1082 190 1074.5 198.5 c 128,-1,2
 1067 207 1067 207 1041 207 c 0,3,4
 1008 207 1008 207 1008 168 c 0,5,6
 1008 125 1008 125 1041 125 c 0,7,8
 1057 125 1057 125 1068.5 138.5 c 128,-1,9
 1080 152 1080 152 1082 169 c 0,0,1
417 45 m 1,10,11
 369 -3 369 -3 296 -3 c 0,12,13
 275 -3 275 -3 258 7 c 0,14,15
 255 8 255 8 231 34 c 1,16,17
 189 -5 189 -5 131 -5 c 0,18,19
 76 -5 76 -5 47 29 c 1,20,21
 17 58 17 58 17 106 c 0,22,23
 17 189 17 189 109 219 c 2,24,-1
 148 230 l 2,25,26
 166 239 166 239 166 259 c 0,27,28
 166 291 166 291 131 291 c 0,29,30
 83 291 83 291 83 243 c 1,31,-1
 15 243 l 1,32,33
 15 362 15 362 136 362 c 0,34,35
 182 362 182 362 210.5 334.5 c 128,-1,36
 239 307 239 307 239 261 c 0,37,38
 239 214 239 214 202 188 c 1,39,-1
 134 158 l 2,40,41
 98 141 98 141 98 111 c 0,42,43
 98 96 98 96 110.5 84 c 128,-1,44
 123 72 123 72 145 72 c 0,45,46
 183 72 183 72 191 106 c 0,47,48
 192 112 192 112 192 125 c 0,49,50
 192 130 192 130 190 139 c 1,51,-1
 270 139 l 1,52,-1
 270 120 l 2,53,54
 270 98 270 98 291 85 c 0,55,56
 307 75 307 75 324 73 c 0,57,58
 355 73 355 73 376.5 108.5 c 128,-1,59
 398 144 398 144 398 184 c 0,60,61
 398 219 398 219 377 250 c 0,62,63
 351 287 351 287 314 287 c 0,64,65
 301 287 301 287 285 280 c 1,66,-1
 285 360 l 1,67,-1
 318 362 l 2,68,69
 382 362 382 362 425.5 310 c 128,-1,70
 469 258 469 258 469 175 c 2,71,-1
 469 163 l 1,72,-1
 484 117 l 1,73,74
 503 74 503 74 543 74 c 0,75,76
 575 74 575 74 598 111 c 0,77,78
 619 144 619 144 619 184 c 0,79,80
 619 221 619 221 600 251 c 0,81,82
 576 291 576 291 535 291 c 2,83,-1
 506 290 l 1,84,-1
 506 362 l 1,85,-1
 540 364 l 2,86,87
 604 364 604 364 647 310 c 128,-1,88
 690 256 690 256 690 175 c 2,89,-1
 690 166 l 1,90,91
 703 124 703 124 707 117 c 0,92,93
 726 74 726 74 765 74 c 0,94,95
 797 74 797 74 819.5 109.5 c 128,-1,96
 842 145 842 145 842 184 c 0,97,98
 842 219 842 219 822 251 c 0,99,100
 798 291 798 291 758 291 c 2,101,-1
 728 291 l 1,102,-1
 728 364 l 1,103,-1
 1033 365 l 2,104,105
 1105 365 1105 365 1145 304 c 0,106,107
 1173 260 1173 260 1173 215 c 0,108,109
 1173 151 1173 151 1134.5 105.5 c 128,-1,110
 1096 60 1096 60 1039 60 c 0,111,112
 1001 60 1001 60 969 91 c 128,-1,113
 937 122 937 122 937 162 c 0,114,115
 937 210 937 210 969 240 c 0,116,117
 998 268 998 268 1042 268 c 0,118,119
 1061 268 1061 268 1078 262 c 1,120,121
 1067 283 1067 283 1049 288 c 2,122,-1
 1000 291 l 1,123,-1
 882 291 l 1,124,125
 913 240 913 240 913 175 c 0,126,127
 913 101 913 101 864 47.5 c 128,-1,128
 815 -6 815 -6 750 -6 c 0,129,130
 682 -6 682 -6 642 38 c 2,131,-1
 638 43 l 1,132,133
 591 -6 591 -6 528 -6 c 0,134,135
 457 -6 457 -6 422 38 c 2,136,-1
 417 45 l 1,10,11
EndSplineSet
EndChar

StartChar: U0C61
Encoding: 3169 3169 184
Width: 852
GlyphClass: 2
Flags: W
LayerCount: 2
Back
Fore
SplineSet
739 107 m 0,0,1
 739 139 739 139 706 139 c 0,2,3
 671 139 671 139 671 105 c 256,4,5
 671 71 671 71 704 71 c 0,6,7
 739 71 739 71 739 107 c 0,0,1
546 235 m 1,8,-1
 547 200 l 2,9,10
 547 114 547 114 502 56 c 0,11,12
 453 -6 453 -6 366 -6 c 0,13,14
 272 -6 272 -6 239 51 c 0,15,16
 217 87 217 87 217 158 c 0,17,18
 217 239 217 239 312 267 c 0,19,20
 364 280 364 280 364 323 c 0,21,22
 364 369 364 369 321 369 c 0,23,24
 301 369 301 369 280 354 c 0,25,26
 271 345 271 345 266 336.5 c 128,-1,27
 261 328 261 328 260 318 c 2,28,-1
 260 291 l 1,29,-1
 184 291 l 1,30,-1
 183 332 l 2,31,32
 183 342 183 342 169.5 354 c 128,-1,33
 156 366 156 366 138 368 c 0,34,35
 120 368 120 368 104 354 c 1,36,37
 90 335 90 335 90 314 c 0,38,39
 90 272 90 272 126 272 c 0,40,41
 145 272 145 272 154 276 c 1,42,-1
 154 197 l 1,43,44
 72 197 72 197 49 222 c 0,45,46
 15 258 15 258 15 312 c 0,47,48
 15 365 15 365 57 404 c 128,-1,49
 99 443 99 443 143 443 c 0,50,51
 217 443 217 443 236 398 c 1,52,53
 237 414 237 414 260 428 c 0,54,55
 288 444 288 444 325 444 c 0,56,57
 371 444 371 444 406 415 c 0,58,59
 445 382 445 382 445 329 c 0,60,61
 445 229 445 229 358 210 c 0,62,63
 329 202 329 202 311.5 186.5 c 128,-1,64
 294 171 294 171 294 153 c 0,65,66
 294 120 294 120 301 104 c 0,67,68
 316 69 316 69 364 69 c 0,69,70
 418 69 418 69 443 112 c 0,71,72
 462 142 462 142 462 172 c 2,73,-1
 462 197 l 1,74,-1
 462 235 l 1,75,-1
 459 306 l 1,76,-1
 586 306 l 2,77,78
 717 306 717 306 739 296 c 0,79,80
 832 260 832 260 832 142 c 0,81,82
 832 85 832 85 792 39 c 128,-1,83
 752 -7 752 -7 693 -7 c 0,84,85
 654 -7 654 -7 621 23 c 0,86,87
 590 52 590 52 590 93 c 0,88,89
 590 144 590 144 621 174 c 128,-1,90
 652 204 652 204 708 204 c 1,91,-1
 747 201 l 1,92,93
 727 224 727 224 699.5 229.5 c 128,-1,94
 672 235 672 235 597 235 c 2,95,-1
 546 235 l 1,8,-1
EndSplineSet
EndChar

StartChar: U0C62
Encoding: 3170 3170 185
Width: 3
GlyphClass: 2
Flags: W
LayerCount: 2
Back
Fore
SplineSet
-39 -157 m 1,0,1
 -39 -213 -39 -213 -63 -248 c 0,2,3
 -90 -288 -90 -288 -144 -288 c 0,4,5
 -199 -288 -199 -288 -218 -254 c 0,6,7
 -231 -233 -231 -233 -231 -192 c 0,8,9
 -231 -144 -231 -144 -176 -127 c 0,10,11
 -145 -119 -145 -119 -145 -95 c 0,12,13
 -145 -68 -145 -68 -171 -68 c 0,14,15
 -182 -68 -182 -68 -195 -76 c 0,16,17
 -199 -82 -199 -82 -202.5 -87 c 128,-1,18
 -206 -92 -206 -92 -206 -97 c 2,19,-1
 -206 -114 l 1,20,-1
 -251 -114 l 1,21,-1
 -251 -90 l 2,22,23
 -251 -84 -251 -84 -259 -77 c 128,-1,24
 -267 -70 -267 -70 -277 -68 c 0,25,26
 -288 -68 -288 -68 -297 -76 c 0,27,28
 -306 -87 -306 -87 -306 -100 c 0,29,30
 -306 -125 -306 -125 -285 -125 c 0,31,32
 -274 -125 -274 -125 -269 -123 c 1,33,-1
 -269 -168 l 1,34,35
 -316 -168 -316 -168 -330 -155 c 0,36,37
 -350 -133 -350 -133 -350 -101 c 0,38,39
 -350 -70 -350 -70 -325 -47.5 c 128,-1,40
 -300 -25 -300 -25 -275 -25 c 0,41,42
 -231 -25 -231 -25 -220 -51 c 1,43,44
 -219 -41 -219 -41 -206 -32 c 0,45,46
 -189 -24 -189 -24 -168 -24 c 0,47,48
 -141 -24 -141 -24 -121 -40 c 0,49,50
 -98 -60 -98 -60 -98 -91 c 0,51,52
 -98 -149 -98 -149 -149 -161 c 0,53,54
 -166 -166 -166 -166 -176 -175 c 128,-1,55
 -186 -184 -186 -184 -186 -194 c 0,56,57
 -186 -214 -186 -214 -182 -223 c 0,58,59
 -173 -244 -173 -244 -145 -244 c 0,60,61
 -113 -244 -113 -244 -99 -218 c 0,62,63
 -88 -201 -88 -201 -88 -183 c 2,64,-1
 -88 -157 l 1,65,-1
 -39 -157 l 1,0,1
EndSplineSet
EndChar

StartChar: U0C63
Encoding: 3171 3171 186
Width: 132
GlyphClass: 2
Flags: W
LayerCount: 2
Back
Fore
SplineSet
70 -219 m 0,0,1
 70 -201 70 -201 52 -201 c 0,2,3
 31 -201 31 -201 31 -221 c 0,4,5
 31 -240 31 -240 49 -240 c 0,6,7
 70 -240 70 -240 70 -219 c 0,0,1
-42 -145 m 1,8,-1
 -41 -166 l 2,9,10
 -41 -215 -41 -215 -67 -249 c 0,11,12
 -96 -284 -96 -284 -146 -284 c 0,13,14
 -200 -284 -200 -284 -220 -251 c 0,15,16
 -232 -230 -232 -230 -232 -190 c 0,17,18
 -232 -142 -232 -142 -177 -126 c 0,19,20
 -148 -118 -148 -118 -148 -94 c 0,21,22
 -148 -67 -148 -67 -173 -67 c 0,23,24
 -184 -67 -184 -67 -196 -76 c 0,25,26
 -201 -81 -201 -81 -204 -86 c 128,-1,27
 -207 -91 -207 -91 -208 -96 c 2,28,-1
 -208 -113 l 1,29,-1
 -252 -113 l 1,30,-1
 -252 -89 l 2,31,32
 -252 -83 -252 -83 -260.5 -76 c 128,-1,33
 -269 -69 -269 -69 -278 -68 c 0,34,35
 -289 -68 -289 -68 -298 -76 c 0,36,37
 -307 -86 -307 -86 -307 -98 c 0,38,39
 -307 -124 -307 -124 -285 -124 c 0,40,41
 -275 -124 -275 -124 -270 -122 c 1,42,-1
 -270 -167 l 1,43,44
 -317 -167 -317 -167 -330 -152 c 0,45,46
 -350 -131 -350 -131 -350 -101 c 0,47,48
 -350 -70 -350 -70 -326 -47.5 c 128,-1,49
 -302 -25 -302 -25 -276 -25 c 0,50,51
 -232 -25 -232 -25 -221 -50 c 1,52,53
 -221 -41 -221 -41 -208 -32 c 0,54,55
 -192 -24 -192 -24 -170 -24 c 0,56,57
 -143 -24 -143 -24 -123 -40 c 0,58,59
 -100 -60 -100 -60 -100 -90 c 0,60,61
 -100 -148 -100 -148 -151 -160 c 0,62,63
 -168 -164 -168 -164 -178 -173 c 128,-1,64
 -188 -182 -188 -182 -188 -192 c 0,65,66
 -188 -212 -188 -212 -184 -221 c 0,67,68
 -175 -241 -175 -241 -148 -241 c 0,69,70
 -117 -241 -117 -241 -101 -216 c 0,71,72
 -90 -199 -90 -199 -90 -181 c 2,73,-1
 -90 -167 l 1,74,-1
 -90 -145 l 1,75,-1
 -91 -104 l 1,76,-1
 -19 -104 l 2,77,78
 57 -104 57 -104 70 -109 c 0,79,80
 124 -130 124 -130 124 -199 c 0,81,82
 124 -232 124 -232 101 -258.5 c 128,-1,83
 78 -285 78 -285 44 -285 c 0,84,85
 21 -285 21 -285 2 -268 c 0,86,87
 -16 -251 -16 -251 -16 -227 c 0,88,89
 -16 -197 -16 -197 2 -180 c 128,-1,90
 20 -163 20 -163 53 -163 c 2,91,-1
 75 -164 l 1,92,93
 64 -151 64 -151 48 -148 c 128,-1,94
 32 -145 32 -145 -12 -145 c 2,95,-1
 -42 -145 l 1,8,-1
EndSplineSet
EndChar

StartChar: U0C66
Encoding: 3174 3174 187
Width: 417
GlyphClass: 2
Flags: W
LayerCount: 2
Back
Fore
SplineSet
384 183 m 0,0,1
 384 101 384 101 329 43 c 0,2,3
 274 -16 274 -16 192 -16 c 0,4,5
 109 -16 109 -16 54 42 c 0,6,7
 0 100 0 100 0 183 c 0,8,9
 0 263 0 263 56 319 c 128,-1,10
 112 375 112 375 192 375 c 256,11,12
 272 375 272 375 328 319 c 128,-1,13
 384 263 384 263 384 183 c 0,0,1
308 183 m 256,14,15
 308 230 308 230 273.5 264.5 c 128,-1,16
 239 299 239 299 192 299 c 256,17,18
 145 299 145 299 111 264.5 c 128,-1,19
 77 230 77 230 77 183 c 256,20,21
 77 136 77 136 111 105 c 0,22,23
 144 75 144 75 192 75 c 256,24,25
 240 75 240 75 274 105.5 c 128,-1,26
 308 136 308 136 308 183 c 256,14,15
EndSplineSet
EndChar

StartChar: U0C67
Encoding: 3175 3175 188
Width: 431
GlyphClass: 2
Flags: W
LayerCount: 2
Back
Fore
SplineSet
399 172 m 0,0,1
 399 62 399 62 324 -12 c 1,2,-1
 264 37 l 1,3,4
 322 96 322 96 322 172 c 0,5,6
 322 222 322 222 285.5 260.5 c 128,-1,7
 249 299 249 299 199 299 c 0,8,9
 150 299 150 299 113.5 260.5 c 128,-1,10
 77 222 77 222 77 172 c 0,11,12
 77 96 77 96 135 37 c 1,13,-1
 75 -12 l 1,14,15
 0 62 0 62 0 172 c 0,16,17
 0 257 0 257 57.5 316 c 128,-1,18
 115 375 115 375 199 375 c 0,19,20
 284 375 284 375 341.5 316 c 128,-1,21
 399 257 399 257 399 172 c 0,0,1
EndSplineSet
EndChar

StartChar: U0C68
Encoding: 3176 3176 189
Width: 496
GlyphClass: 2
Flags: W
LayerCount: 2
Back
Fore
SplineSet
455 183 m 0,0,1
 455 102 455 102 401.5 45 c 128,-1,2
 348 -12 348 -12 267 -12 c 2,3,-1
 0 -12 l 1,4,-1
 0 71 l 1,5,-1
 267 71 l 2,6,7
 319 71 319 71 352 101 c 0,8,9
 387 132 387 132 387 183 c 256,10,11
 387 234 387 234 357 259 c 1,12,13
 351 230 351 230 326 207.5 c 128,-1,14
 301 185 301 185 267 185 c 0,15,16
 229 185 229 185 201.5 212.5 c 128,-1,17
 174 240 174 240 174 278 c 0,18,19
 174 317 174 317 201.5 344 c 128,-1,20
 229 371 229 371 267 371 c 0,21,22
 345 371 345 371 400 316 c 128,-1,23
 455 261 455 261 455 183 c 0,0,1
305 293 m 1,24,25
 292 303 292 303 267 303 c 0,26,27
 257 303 257 303 250 295.5 c 128,-1,28
 243 288 243 288 243 278 c 256,29,30
 243 268 243 268 250 261 c 128,-1,31
 257 254 257 254 267 254 c 0,32,33
 300 254 300 254 305 293 c 1,24,25
EndSplineSet
EndChar

StartChar: U0C69
Encoding: 3177 3177 190
Width: 345
GlyphClass: 2
Flags: W
LayerCount: 2
Back
Fore
SplineSet
305 110 m 0,0,1
 305 49 305 49 256 16 c 0,2,3
 215 -12 215 -12 153 -12 c 256,4,5
 91 -12 91 -12 49 17 c 0,6,7
 0 50 0 50 0 115 c 1,8,-1
 69 115 l 1,9,10
 69 71 69 71 153 71 c 0,11,12
 236 71 236 71 236 110 c 0,13,14
 236 148 236 148 200 148 c 2,15,-1
 111 148 l 1,16,-1
 111 217 l 1,17,-1
 200 217 l 2,18,19
 217 217 217 217 226.5 228 c 128,-1,20
 236 239 236 239 236 256 c 0,21,22
 236 281 236 281 207 293 c 0,23,24
 185 303 185 303 153 303 c 256,25,26
 121 303 121 303 98 293 c 0,27,28
 69 280 69 280 69 251 c 1,29,-1
 0 251 l 1,30,31
 0 314 0 314 51 346 c 0,32,33
 93 371 93 371 153 371 c 256,34,35
 213 371 213 371 254 346 c 0,36,37
 305 315 305 315 305 256 c 0,38,39
 305 202 305 202 278 183 c 1,40,41
 305 168 305 168 305 110 c 0,0,1
EndSplineSet
EndChar

StartChar: U0C6A
Encoding: 3178 3178 191
Width: 464
GlyphClass: 2
Flags: W
LayerCount: 2
Back
Fore
SplineSet
423 286 m 0,0,1
 423 230 423 230 383 182 c 0,2,3
 345 138 345 138 296 125 c 1,4,5
 304 112 304 112 304 88 c 0,6,7
 304 45 304 45 280 17 c 0,8,9
 254 -12 254 -12 212 -12 c 0,10,11
 167 -12 167 -12 142 16 c 0,12,13
 119 43 119 43 119 88 c 0,14,15
 119 114 119 114 126 125 c 1,16,17
 78 138 78 138 40 182 c 0,18,19
 0 230 0 230 0 286 c 0,20,21
 0 321 0 321 25 346 c 128,-1,22
 50 371 50 371 91 371 c 1,23,-1
 101 310 l 1,24,25
 86 310 86 310 78.5 303 c 128,-1,26
 71 296 71 296 71 286 c 0,27,28
 71 237 71 237 124 207 c 0,29,30
 169 180 169 180 213 180 c 256,31,32
 257 180 257 180 301 207 c 0,33,34
 352 237 352 237 352 286 c 0,35,36
 352 296 352 296 345 303 c 128,-1,37
 338 310 338 310 323 310 c 1,38,-1
 333 371 l 1,39,40
 373 371 373 371 398 346 c 128,-1,41
 423 321 423 321 423 286 c 0,0,1
236 88 m 256,42,43
 236 98 236 98 229 105 c 128,-1,44
 222 112 222 112 212 112 c 256,45,46
 202 112 202 112 194.5 105 c 128,-1,47
 187 98 187 98 187 88 c 256,48,49
 187 78 187 78 194.5 71 c 128,-1,50
 202 64 202 64 212 64 c 256,51,52
 222 64 222 64 229 71 c 128,-1,53
 236 78 236 78 236 88 c 256,42,43
EndSplineSet
EndChar

StartChar: U0C6B
Encoding: 3179 3179 192
Width: 443
GlyphClass: 2
Flags: W
LayerCount: 2
Back
Fore
SplineSet
324 255 m 0,0,1
 327 271 327 271 327 289 c 0,2,3
 327 306 327 306 323 316 c 0,4,5
 317 327 317 327 310 327 c 0,6,7
 299 327 299 327 295 318 c 0,8,9
 288 309 288 309 288 296 c 0,10,11
 288 277 288 277 295 259 c 0,12,13
 302 242 302 242 316 233 c 1,14,15
 322 241 322 241 324 255 c 0,0,1
270 45 m 1,16,17
 293 42 293 42 310 60 c 0,18,19
 328 81 328 81 328 107 c 0,20,21
 328 117 328 117 326 126 c 1,22,23
 328 121 328 121 318 134 c 1,24,25
 276 70 276 70 198 31 c 0,26,27
 121 -8 121 -8 32 -8 c 0,28,29
 18 -8 18 -8 10 -2 c 0,30,31
 0 5 0 5 0 15 c 0,32,33
 0 27 0 27 7 35 c 0,34,35
 13 42 13 42 24 42 c 0,36,37
 73 46 73 46 98 82 c 0,38,39
 123 117 123 117 123 185 c 0,40,41
 123 244 123 244 98 283 c 0,42,43
 74 321 74 321 31 316 c 0,44,45
 26 316 26 316 22 317 c 1,46,-1
 22 374 l 1,47,48
 30 378 30 378 40 378 c 0,49,50
 111 378 111 378 161 321 c 0,51,52
 211 265 211 265 211 185 c 0,53,54
 211 155 211 155 207 133 c 0,55,56
 202 110 202 110 194 98 c 1,57,58
 259 135 259 135 286 183 c 1,59,60
 254 205 254 205 236 236 c 0,61,62
 217 267 217 267 217 296 c 0,63,64
 217 331 217 331 245 357 c 256,65,66
 273 383 273 383 310 383 c 0,67,68
 349 383 349 383 375 355 c 0,69,70
 403 328 403 328 403 289 c 0,71,72
 403 270 403 270 393 244 c 0,73,74
 384 220 384 220 365 192 c 1,75,76
 380 174 380 174 389 154 c 0,77,78
 397 131 397 131 397 110 c 0,79,80
 397 62 397 62 361 25 c 0,81,82
 324 -10 324 -10 276 -10 c 2,83,-1
 270 -10 l 1,84,-1
 270 45 l 1,16,17
EndSplineSet
EndChar

StartChar: U0C6C
Encoding: 3180 3180 193
Width: 443
GlyphClass: 2
Flags: W
LayerCount: 2
Back
Fore
SplineSet
403 -12 m 1,0,-1
 110 -12 l 2,1,2
 64 -12 64 -12 31 24 c 0,3,4
 0 59 0 59 0 105 c 0,5,6
 0 158 0 158 33 182 c 1,7,8
 0 213 0 213 0 261 c 0,9,10
 0 307 0 307 32 339 c 128,-1,11
 64 371 64 371 110 371 c 2,12,-1
 183 371 l 1,13,-1
 183 303 l 1,14,-1
 110 303 l 2,15,16
 92 303 92 303 80.5 291 c 128,-1,17
 69 279 69 279 69 261 c 0,18,19
 69 242 69 242 80.5 229.5 c 128,-1,20
 92 217 92 217 110 217 c 2,21,-1
 226 217 l 1,22,-1
 226 148 l 1,23,-1
 110 148 l 2,24,25
 93 148 93 148 81 135.5 c 128,-1,26
 69 123 69 123 69 105 c 0,27,28
 69 90 69 90 82 81 c 0,29,30
 94 71 94 71 110 71 c 2,31,-1
 403 71 l 1,32,-1
 403 -12 l 1,0,-1
EndSplineSet
EndChar

StartChar: U0C6D
Encoding: 3181 3181 194
Width: 377
GlyphClass: 2
Flags: W
LayerCount: 2
Back
Fore
SplineSet
341 118 m 1,0,1
 341 46 341 46 284 12 c 0,2,3
 239 -14 239 -14 170 -14 c 0,4,5
 99 -14 99 -14 56 10 c 0,6,7
 0 43 0 43 0 111 c 256,8,9
 0 179 0 179 58 204 c 0,10,11
 95 219 95 219 170 219 c 0,12,13
 215 219 215 219 234 224 c 0,14,15
 268 232 268 232 268 256 c 0,16,17
 268 301 268 301 170 301 c 0,18,19
 134 301 134 301 108 291 c 0,20,21
 73 280 73 280 73 249 c 1,22,-1
 0 249 l 1,23,24
 0 317 0 317 59 349 c 0,25,26
 106 373 106 373 170 373 c 0,27,28
 237 373 237 373 282 350 c 0,29,30
 341 319 341 319 341 256 c 0,31,32
 341 187 341 187 283 162 c 0,33,34
 246 147 246 147 170 147 c 0,35,36
 126 147 126 147 107 143 c 0,37,38
 73 134 73 134 73 111 c 0,39,40
 73 73 73 73 168 73 c 0,41,42
 268 73 268 73 268 118 c 1,43,-1
 341 118 l 1,0,1
EndSplineSet
EndChar

StartChar: U0C6E
Encoding: 3182 3182 195
Width: 477
GlyphClass: 2
Flags: W
LayerCount: 2
Back
Fore
SplineSet
440 301 m 1,0,-1
 340 301 l 1,1,2
 352 291 352 291 366 254 c 0,3,4
 380 219 380 219 380 183 c 0,5,6
 380 101 380 101 326 44 c 0,7,8
 272 -14 272 -14 190 -14 c 0,9,10
 107 -14 107 -14 53 44 c 0,11,12
 0 100 0 100 0 183 c 0,13,14
 0 262 0 262 61 323 c 1,15,-1
 111 270 l 1,16,17
 73 231 73 231 73 183 c 256,18,19
 73 135 73 135 107 104 c 128,-1,20
 141 73 141 73 190 73 c 256,21,22
 239 73 239 73 273.5 104 c 128,-1,23
 308 135 308 135 308 183 c 0,24,25
 308 232 308 232 273.5 266.5 c 128,-1,26
 239 301 239 301 183 301 c 1,27,-1
 183 373 l 1,28,-1
 440 373 l 1,29,-1
 440 301 l 1,0,-1
EndSplineSet
EndChar

StartChar: U0C6F
Encoding: 3183 3183 196
AltUni2: 002122.ffffffff.0
Width: 439
GlyphClass: 2
Flags: W
LayerCount: 2
Back
Fore
SplineSet
399 303 m 1,0,-1
 110 303 l 2,1,2
 93 303 93 303 81 290.5 c 128,-1,3
 69 278 69 278 69 261 c 256,4,5
 69 244 69 244 81 231 c 128,-1,6
 93 218 93 218 110 218 c 2,7,-1
 226 218 l 1,8,-1
 226 149 l 1,9,-1
 110 149 l 2,10,11
 92 149 92 149 80.5 136.5 c 128,-1,12
 69 124 69 124 69 105 c 0,13,14
 69 89 69 89 81 80 c 256,15,16
 93 71 93 71 110 71 c 2,17,-1
 183 71 l 1,18,-1
 183 -12 l 1,19,-1
 110 -12 l 2,20,21
 64 -12 64 -12 31 24 c 0,22,23
 0 59 0 59 0 105 c 0,24,25
 0 153 0 153 33 184 c 1,26,27
 0 208 0 208 0 261 c 0,28,29
 0 307 0 307 32 339 c 128,-1,30
 64 371 64 371 110 371 c 2,31,-1
 399 371 l 1,32,-1
 399 303 l 1,0,-1
EndSplineSet
Ligature2: "'blws' Below Base Substitutions in Telugu lookup 7 subtable" copyright U0C30_U0C4D
EndChar

StartChar: U0C78
Encoding: 3192 3192 197
Width: 379
GlyphClass: 2
Flags: W
LayerCount: 2
Back
Fore
SplineSet
117 19 m 1,0,1
 127 22 127 22 140.5 27.5 c 128,-1,2
 154 33 154 33 172.5 41 c 128,-1,3
 191 49 191 49 211.5 59 c 128,-1,4
 232 69 232 69 249.5 79.5 c 128,-1,5
 267 90 267 90 277 100.5 c 128,-1,6
 287 111 287 111 287 120 c 0,7,8
 287 127 287 127 281.5 133 c 128,-1,9
 276 139 276 139 265 143 c 128,-1,10
 254 147 254 147 237.5 151 c 128,-1,11
 221 155 221 155 204 159 c 0,12,13
 200 158 200 158 195.5 158 c 128,-1,14
 191 158 191 158 186 158 c 0,15,16
 149 158 149 158 119 171.5 c 128,-1,17
 89 185 89 185 67 208 c 128,-1,18
 45 231 45 231 33 261 c 128,-1,19
 21 291 21 291 21 326 c 0,20,21
 21 359 21 359 33.5 388 c 128,-1,22
 46 417 46 417 68.5 439 c 128,-1,23
 91 461 91 461 121 474 c 128,-1,24
 151 487 151 487 186 487 c 256,25,26
 221 487 221 487 251.5 474 c 128,-1,27
 282 461 282 461 304 439 c 128,-1,28
 326 417 326 417 338.5 388 c 128,-1,29
 351 359 351 359 351 326 c 0,30,31
 351 285 351 285 335 251 c 128,-1,32
 319 217 319 217 294 197 c 1,33,34
 302 194 302 194 315 186 c 128,-1,35
 328 178 328 178 338.5 168 c 128,-1,36
 349 158 349 158 355.5 146.5 c 128,-1,37
 362 135 362 135 362 120 c 0,38,39
 362 102 362 102 351 85 c 128,-1,40
 340 68 340 68 321.5 53 c 128,-1,41
 303 38 303 38 281.5 25 c 128,-1,42
 260 12 260 12 238 2 c 128,-1,43
 216 -8 216 -8 196 -15.5 c 128,-1,44
 176 -23 176 -23 157 -31 c 1,45,-1
 117 19 l 1,0,1
277 326 m 256,46,47
 277 346 277 346 269.5 364 c 128,-1,48
 262 382 262 382 249 394.5 c 128,-1,49
 236 407 236 407 220 414 c 128,-1,50
 204 421 204 421 186 421 c 0,51,52
 169 421 169 421 152.5 414 c 128,-1,53
 136 407 136 407 123.5 394.5 c 128,-1,54
 111 382 111 382 103.5 364 c 128,-1,55
 96 346 96 346 96 326 c 0,56,57
 96 307 96 307 103 290.5 c 128,-1,58
 110 274 110 274 122.5 262.5 c 128,-1,59
 135 251 135 251 151.5 245 c 128,-1,60
 168 239 168 239 186 239 c 256,61,62
 204 239 204 239 220.5 244.5 c 128,-1,63
 237 250 237 250 249.5 261.5 c 128,-1,64
 262 273 262 273 269.5 289.5 c 128,-1,65
 277 306 277 306 277 326 c 256,46,47
EndSplineSet
EndChar

StartChar: U0C79
Encoding: 3193 3193 198
Width: 219
GlyphClass: 2
Flags: W
LayerCount: 2
Back
Fore
SplineSet
80 480 m 1,0,-1
 155 480 l 1,1,-1
 155 -4 l 1,2,-1
 80 -4 l 1,3,-1
 80 480 l 1,0,-1
EndSplineSet
EndChar

StartChar: U0C7A
Encoding: 3194 3194 199
Width: 344
GlyphClass: 2
Flags: W
LayerCount: 2
Back
Fore
SplineSet
301 -4 m 1,0,-1
 226 -4 l 1,1,-1
 226 188 l 2,2,3
 223 187 223 187 202.5 183 c 128,-1,4
 182 179 182 179 158 179 c 0,5,6
 135 179 135 179 113 187.5 c 128,-1,7
 91 196 91 196 74 211.5 c 128,-1,8
 57 227 57 227 46.5 249 c 128,-1,9
 36 271 36 271 36 301 c 2,10,-1
 36 480 l 1,11,-1
 111 480 l 1,12,-1
 111 307 l 2,13,14
 111 289 111 289 116 276.5 c 128,-1,15
 121 264 121 264 129 258 c 128,-1,16
 137 252 137 252 146.5 249 c 128,-1,17
 156 246 156 246 166 246 c 0,18,19
 183 246 183 246 199.5 250.5 c 128,-1,20
 216 255 216 255 226 260 c 1,21,-1
 226 480 l 1,22,-1
 301 480 l 1,23,-1
 301 -4 l 1,0,-1
EndSplineSet
EndChar

